<svg id="Layer_1" data-name="Layer 1" xmlns="http://www.w3.org/2000/svg" viewBox="0 0 700 550"><title>female leader-boss- employee profile</title><path d="M269.87009,90.66662l2.37611-7.3489a45.55266,45.55266,0,0,0,.15328,8.64222A3.43752,3.43752,0,0,0,269.87009,90.66662Z"/><path d="M297.301,83.93081l2.17488,6.73581a3.43343,3.43343,0,0,0-2.6923,1.52326c.10544-.66105.19163-1.26478.24912-1.82033C297.23387,88.33823,297.301,86.058,297.301,83.93081Z"/><path d="M312.25712,122.00655l-11.54528-2.472s-6.35231-3.88041-7.35832-17.56233v-.37356a23.28762,23.28762,0,0,0,2.79768-6.5536,3.54858,3.54858,0,0,0,3.66,3.27668c4.7235,0,4.92467-7.0516.57484-7.62656,3.58335-6.63009-1.96412-7.31031-3.09469-7.37744-.01918-4.00486-.25871-7.34868-.25871-7.34868-7.27207,3.87059-11.81358-5.51875-11.81358-5.51875s-2.54856,6.30447-12.15849,7.03242V76.8888a52.763,52.763,0,0,0-.81438,6.41932s-7.26253.03837-3.28633,7.387c-4.34029.575-4.15824,7.62656.57485,7.62656a3.49329,3.49329,0,0,0,3.53545-2.63482,19.4961,19.4961,0,0,0,1.69588,4.44579l.00959,1.025v3.03738a14.23335,14.23335,0,0,1-1.90664,7.33908c-4.91514,8.22071-16.27843,7.18587-16.27843,7.18587l-6.02653-.661s14.79331-40.28881,17.19819-44.16923c2.41447-3.88018,15.51189-15.62668,29.53872-4.4935C297.301,69.39627,304.19933,74.62754,312.25712,122.00655Z"/><path d="M243.35788,181.36948a13.15873,13.15873,0,0,1,2.91675-2.097,16.90069,16.90069,0,0,1,3.33252-1.37l-.07567.27345-3.24837-3.26452c-.26713-.26362-.55105-.56607-.79923-.78548a2.15938,2.15938,0,0,0-.94566-.418,13.5179,13.5179,0,0,1-2.26325-.54572,11.92111,11.92111,0,0,1-2.10921-1.04093,7.616,7.616,0,0,1-1.86243-1.50617,2.30037,2.30037,0,0,1-.50771-1.21285,1.906,1.906,0,0,1,.36877-1.28911,4.80181,4.80181,0,0,1,1.94588-1.52l-.07854.62526a12.68779,12.68779,0,0,1-1.46437-1.28069,3.20277,3.20277,0,0,1-.98782-1.85845,2.238,2.238,0,0,1,.06456-.61169,2.45287,2.45287,0,0,1,.28906-.53309,2.72121,2.72121,0,0,1,.84993-.6966,6.08611,6.08611,0,0,1,1.91957-.63648l-.06234.836a2.88382,2.88382,0,0,1-1.44156-.923,2.662,2.662,0,0,1-.43807-.75812,2.74957,2.74957,0,0,1-.18333-.87484l.00819.08515a2.19687,2.19687,0,0,1,2.08722-2.86125,7.49735,7.49735,0,0,1,1.78513.02316,11.71522,11.71522,0,0,1,1.71418.34245l-.40806.88279a5.28481,5.28481,0,0,1-1.05233-.90946,1.99106,1.99106,0,0,1-.56981-1.51928,1.52705,1.52705,0,0,1,.40806-.82946,2.62441,2.62441,0,0,1,.62607-.46011,3.34148,3.34148,0,0,1,1.38759-.40608,21.47431,21.47431,0,0,1,5.11689.38012c.831.13824,1.65641.29613,2.47821.46736a12.27315,12.27315,0,0,1,2.50113.731,10.9723,10.9723,0,0,1,4.19346,3.12043l12.966,15.21921-.52052-.2414a95.20979,95.20979,0,0,0,9.50829-.66713c3.17142-.3483,6.33921-.77122,9.501-1.24209,6.32348-.93262,12.63293-2.03108,18.91893-3.17727l-.29351.12515c2.34435-1.66243,4.67953-3.35107,6.98219-5.07011,1.15068-.86057,2.29494-1.7291,3.4158-2.61727l.83379-.67087.41876-.33964.491-.35977a9.1755,9.1755,0,0,1,2.10482-1.0194,26.49875,26.49875,0,0,1,8.79029-1.07156l1.10245.03672a7.22932,7.22932,0,0,1,1.18173.16047,6.58332,6.58332,0,0,1,2.20588.92537,6.07066,6.07066,0,0,1,2.72043,3.91994l-.31631-.49262a12.7803,12.7803,0,0,1,1.38858.946,6.22154,6.22154,0,0,1,1.20741,1.26408,3.62857,3.62857,0,0,1,.695,1.7305,2.96093,2.96093,0,0,1-.44409,1.9298l-.06181-.75929c.616.63017,1.23384,1.23741,1.84793,1.88606a9.464,9.464,0,0,1,.85683,1.11086,3.29541,3.29541,0,0,1,.57356,1.469,1.45917,1.45917,0,0,1-.29743.99017,1.73382,1.73382,0,0,1-.77279.52724,4.38806,4.38806,0,0,1-1.47238.225,13.00109,13.00109,0,0,1-2.7185-.30713l.42613-.91789a7.12794,7.12794,0,0,1,1.86781,2.18992,2.72836,2.72836,0,0,1,.31556,1.57565,1.66277,1.66277,0,0,1-.37351.872,1.57025,1.57025,0,0,1-.42461.30666,2.47878,2.47878,0,0,1-.44263.12608,6.2092,6.2092,0,0,1-2.83551-.56888,21.077,21.077,0,0,1-2.46909-1.17448l.25929.05473-5.6208.49707.237-.1062a34.85747,34.85747,0,0,1-3.17055,2.73541,18.7242,18.7242,0,0,1-3.67,2.08044,38.13059,38.13059,0,0,1-8.02667,2.31458c-1.379.24725-2.697.52655-4.02614.8835-1.32221.3773-2.64184.76677-3.94574,1.22127-2.61885.86525-5.20946,1.83015-7.79773,2.79739-10.35348,3.87667-20.56937,8.14913-31.08016,11.65317a115.02046,115.02046,0,0,1-16.0492,4.36088,19.61247,19.61247,0,0,1-8.39509-.01123,13.97217,13.97217,0,0,1-7.21756-4.36087,21.8529,21.8529,0,0,1-4.1438-7.34751,42.33049,42.33049,0,0,1-1.88846-8.17369c-.17882-1.37846-.38262-2.7375-.5187-4.13982-.13445-1.38782-.23111-2.77283-.316-4.15761-.16643-2.77049-.28041-5.53559-.36093-8.30983l1.02121.52163a5.60975,5.60975,0,0,1-2.33453.8414,10.76788,10.76788,0,0,1-2.33389.08046,18.4,18.4,0,0,1-2.26476-.27578,22.04834,22.04834,0,0,1-2.22284-.51555l-.457-.13286-.0307-.46994a8.89593,8.89593,0,0,1,.55456-3.78685,11.44444,11.44444,0,0,1,2.04049-3.16066,16.28017,16.28017,0,0,1,2.78137-2.41377,19.47618,19.47618,0,0,1,3.19159-1.82781l.02585,1.42759a.90121.90121,0,0,1-.16678-.08749.72189.72189,0,0,1-.09567-.07485l-.0724-.07439a.93616.93616,0,0,1-.10877-.13941l-.107-.189c-.05293-.11252-.08088-.19836-.12024-.29965-.06087-.185-.10093-.34993-.14444-.52233-.0662-.32678-.12649-.65239-.1621-.9656-.08369-.63391-.13626-1.25542-.16819-1.87436-.07684-1.24-.08789-2.4671-.09228-3.69445.008-2.45213.08509-4.89491.20287-7.33324.11567-2.43833.26882-4.87245.43882-7.30446a24.74393,24.74393,0,0,1,1.48624-7.36832,17.39482,17.39482,0,0,1,1.76313-3.40182,15.80651,15.80651,0,0,1,5.72887-5.04976,18.4526,18.4526,0,0,1,3.5327-1.43086,27.2936,27.2936,0,0,1,7.44-1.07414,34.48937,34.48937,0,0,1,7.46943.68046l.55215.11462.124.56233c.90455,4.1031,1.64945,8.209,2.20061,12.37247q.42262,3.1175.58362,6.28857a25.00113,25.00113,0,0,1-.35672,6.45815l-.7097-1.068c4.943.88256,9.81385,1.97307,14.64518,3.33586,2.41424.67765,4.80526,1.46548,7.162,2.38336a24.59554,24.59554,0,0,1,6.77944,3.69679l-1.04075-.059c1.68893-1.12794,3.39774-2.145,5.14707-3.13118,1.7505-.97449,3.52428-1.91062,5.353-2.74429a51.33485,51.33485,0,0,1,5.6143-2.23225,28.73287,28.73287,0,0,1,5.96975-1.30642l-.61912.95508-8.04082-23.73886-.313-.924.9501.15345a104.83164,104.83164,0,0,1,13.35707,3.0554,57.36415,57.36415,0,0,1,6.45354,2.35739,24.79885,24.79885,0,0,1,5.95507,3.5361,19.03821,19.03821,0,0,1,5.69249,12.37807,30.41775,30.41775,0,0,1-2.34763,13.43631l-.10766-.25684a21.14759,21.14759,0,0,1,2.51547,1.41589,16.67314,16.67314,0,0,1,2.2816,1.76044,9.57814,9.57814,0,0,1,1.84694,2.21635,5.61611,5.61611,0,0,1,.81554,2.75856h-.17023a5.41728,5.41728,0,0,0-.84128-2.64067,9.32166,9.32166,0,0,0-1.84377-2.12137,19.41224,19.41224,0,0,0-4.76649-3.01914l-.17327-.07977.0655-.17731a29.88266,29.88266,0,0,0,2.04523-13.23093,20.05854,20.05854,0,0,0-1.7398-6.4233c-.238-.50222-.51414-.98619-.76847-1.48021l-.90039-1.40466c-.34117-.43766-.659-.90245-1.01777-1.31811-.388-.382-.75619-.78128-1.15519-1.152a23.97831,23.97831,0,0,0-5.76489-3.32931,56.4541,56.4541,0,0,0-6.36693-2.24652,103.79922,103.79922,0,0,0-13.23181-2.87528l.637-.77028,8.30012,23.6495.30087.85753-.9201.098a27.32433,27.32433,0,0,0-5.62367,1.301,49.85242,49.85242,0,0,0-5.42,2.225c-1.77489.83227-3.50475,1.76956-5.211,2.74405-1.69846.97964-3.389,2.01822-4.99251,3.10756l-.53221.36164-.50888-.42035a23.15652,23.15652,0,0,0-6.29425-3.38592c-2.28154-.88349-4.62432-1.65237-7.003-2.31482-4.75081-1.33168-9.60782-2.40932-14.46448-3.26686l-.90642-.16.1966-.90829a23.51109,23.51109,0,0,0,.30023-5.97489c-.10637-2.04161-.30046-4.09258-.58186-6.13723-.548-4.087-1.29829-8.17743-2.19313-12.20007l.67584.67672a30.50136,30.50136,0,0,0-14.00525.31134,16.73008,16.73008,0,0,0-3.22586,1.28723,14.09807,14.09807,0,0,0-5.135,4.47643,15.71614,15.71614,0,0,0-1.59968,3.0561,23.0915,23.0915,0,0,0-1.40975,6.87476c-.181,2.42126-.34514,4.84321-.47169,7.2647-.12877,2.42149-.21661,4.843-.2362,7.257-.00157,1.20512.00386,2.41236.07211,3.60135.02731.59555.07573,1.18805.14848,1.76021.0314.29169.08228.5642.1342.83414.03094.1221.06275.25356.09568.35742l.04655.12468a.016.016,0,0,1,.00356.01029c.00714.01567-.02064-.032-.04006-.04912l-.03508-.03111-.0745-.05638a.65008.65008,0,0,0-.14322-.07134l.02585,1.42782a18.82485,18.82485,0,0,0-2.92838,1.64769,14.809,14.809,0,0,0-2.55476,2.16723,10.02381,10.02381,0,0,0-1.79776,2.7085,7.49236,7.49236,0,0,0-.492,3.12206l-.48754-.60256a20.88454,20.88454,0,0,0,2.05945.4987,17.069,17.069,0,0,0,2.0998.27883,9.4693,9.4693,0,0,0,2.0578-.04632,4.35671,4.35671,0,0,0,1.78472-.60069l.9994-.66432.022,1.186c.05111,2.75482.136,5.51759.27245,8.2696.06982,1.37588.15146,2.75107.26935,4.1169.11608,1.35179.30742,2.73119.47,4.09655a41.2691,41.2691,0,0,0,1.75442,7.98469,20.874,20.874,0,0,0,3.87358,7.05464,13.07331,13.07331,0,0,0,6.71412,4.15713,18.81235,18.81235,0,0,0,8.06193.08749,108.01843,108.01843,0,0,0,15.97727-4.18661c5.246-1.72793,10.431-3.64744,15.598-5.61349l15.48278-5.96694c2.58657-.98268,5.17507-1.96325,7.803-2.84744,1.30571-.46316,2.63579-.86432,3.97106-1.25309,1.33723-.36818,2.72774-.669,4.06819-.91648a36.61453,36.61453,0,0,0,7.86679-2.32184,17.98985,17.98985,0,0,0,3.50334-2.04932,34.23492,34.23492,0,0,0,3.06745-2.72441l.09742-.09216.13994-.01451,5.61332-.575.132-.01357.12755.06831a20.18564,20.18564,0,0,0,2.36675,1.0856,5.56371,5.56371,0,0,0,2.3471.483c.52935.00444.54777-.81122.19011-1.47858a6.18909,6.18909,0,0,0-1.60606-1.81869l-1.64787-1.31974,2.07407.40186a12.04552,12.04552,0,0,0,2.47762.24772,3.391,3.391,0,0,0,1.10192-.171c.32245-.14363.35684-.21333.3542-.42877a4.42391,4.42391,0,0,0-1.16495-1.87623l-1.84091-1.82828-.32719-.32491.26538-.43485a1.8661,1.8661,0,0,0,.20953-1.10688,2.43476,2.43476,0,0,0-.50006-1.16256,5.01561,5.01561,0,0,0-.98741-1,11.62533,11.62533,0,0,0-1.23706-.81753l-.26122-.15508-.05527-.33778a3.97593,3.97593,0,0,0-.77028-1.618,5.881,5.881,0,0,0-1.41372-1.30758,5.24977,5.24977,0,0,0-1.77015-.71274,5.89956,5.89956,0,0,0-.96-.11719l-1.059-.02082a25.92171,25.92171,0,0,0-8.29451,1.043,7.76171,7.76171,0,0,0-1.77389.86244l-.38064.28-.41923.34315-.84794.68818c-1.135.90735-2.28383,1.78687-3.43826,2.658-2.31061,1.7401-4.64105,3.44066-6.99312,5.12344l-.13164.09427-.16222.03111c-6.30851,1.2049-12.63521,2.24161-18.99114,3.15013-3.17686.45614-6.36243.86455-9.56063,1.19882a96.43936,96.43936,0,0,1-9.6587.62455l-.31725.00047-.20356-.2421L257.9071,159.72931a9.74836,9.74836,0,0,0-3.70925-2.8409,11.08811,11.08811,0,0,0-2.2795-.69426c-.80712-.179-1.61641-.34456-2.42722-.49029a20.69941,20.69941,0,0,0-4.81981-.43391,2.29386,2.29386,0,0,0-.99654.26666c-.31567.15673-.52707.36889-.52859.52818a1.05423,1.05423,0,0,0,.325.73239,4.36275,4.36275,0,0,0,.82374.73052l2.49862,1.70781-2.90663-.825a8.641,8.641,0,0,0-3.09464-.37426,1.66158,1.66158,0,0,0-1.15273.51976,1.70005,1.70005,0,0,0-.17485,1.23975l.00713.0559.00112.02948a1.95575,1.95575,0,0,0,.11748.5642,1.77648,1.77648,0,0,0,.29029.51812,2.01142,2.01142,0,0,0,1.00156.65122l1.7601.5504-1.82249.28561a5.29129,5.29129,0,0,0-1.63419.51672c-.48374.26432-.85677.62806-.79876,1.06712a1.77552,1.77552,0,0,0,.07087.34573l.16053.35906a5.61213,5.61213,0,0,0,.51783.68279,12.02748,12.02748,0,0,0,1.33337,1.21613l.458.38221-.53661.243a4.15567,4.15567,0,0,0-1.66927,1.23344,1.35671,1.35671,0,0,0,.07988,1.73822,7.12027,7.12027,0,0,0,1.67232,1.39881,11.37178,11.37178,0,0,0,1.98488,1.03484,13.12748,13.12748,0,0,0,2.18927.57543,2.62572,2.62572,0,0,1,1.12338.53379c.31859.29614.55028.5628.82314.84233l3.16745,3.32487.193.20257-.26871.07111a16.63453,16.63453,0,0,0-3.2961,1.273,12.95735,12.95735,0,0,0-2.91446,2.00044Z"/><path d="M260.37063,168.05177a10.78516,10.78516,0,0,1-1.88114,3.20182,12.37306,12.37306,0,0,1-2.71476,2.5174,5.91108,5.91108,0,0,1,.68379-1.78782,10.594,10.594,0,0,1,1.043-1.53682,11.30814,11.30814,0,0,1,1.29109-1.327A6.87585,6.87585,0,0,1,260.37063,168.05177Z"/><path d="M240.35868,166.51658l5.24982,1.59764a8.74766,8.74766,0,0,1,2.46359,1.287l2.28967,1.51016-2.39985-1.32817a8.4206,8.4206,0,0,0-2.4647-1.05823l-5.35443-1.185Z"/><path d="M240.84388,161.60858l6.94049,1.58875a7.34246,7.34246,0,0,1,3.25,1.53214l2.79984,2.1988L250.908,164.9007a7.01309,7.01309,0,0,0-3.20621-1.28583l-7.02294-1.17145Z"/><path d="M244.11723,157.52419l3.48966.8435c1.16852.29684,2.31447.52677,3.50153.87882a7.19525,7.19525,0,0,1,1.64817.81262c.50361.3497.9694.70852,1.45594,1.06244l2.8899,2.13-3.011-1.9553c-.501-.32093-1.00548-.66268-1.50366-.9663a6.83862,6.83862,0,0,0-1.60571-.67718c-1.12437-.26246-2.34079-.43743-3.50668-.66058l-3.53346-.63508Z"/><path d="M249.746,178.47408l-.19836-.82712c.66619-.16,16.37311-3.8727,21.7831-3.48346l-.06363.84957C265.97126,174.58922,249.90692,178.43478,249.746,178.47408Z"/><path d="M327.57317,164.47708a38.8993,38.8993,0,0,1,5.37437-1.66945,19.995,19.995,0,0,1,2.80464-.46175,8.97972,8.97972,0,0,1,2.92078.14011l-.24134.81613a8.303,8.303,0,0,0-2.64722-.31882,19.49755,19.49755,0,0,0-2.75821.24257A38.70908,38.70908,0,0,0,327.57317,164.47708Z"/><path d="M329.71793,168.05177a48.25188,48.25188,0,0,1,5.75244-.88069,25.09227,25.09227,0,0,1,2.93119-.11041,10.91869,10.91869,0,0,1,2.97645.41216l-.28953.80045a10.24345,10.24345,0,0,0-2.72563-.57543,24.5711,24.5711,0,0,0-2.87078-.10175A48.06609,48.06609,0,0,0,329.71793,168.05177Z"/><path d="M331.14774,172.3413c1.44-.16,2.88932-.25778,4.34637-.27555a18.50919,18.50919,0,0,1,4.408.37917l-.24835.814a17.97162,17.97162,0,0,0-4.1755-.76795C334.04337,172.36773,332.59567,172.32282,331.14774,172.3413Z"/><path d="M323.69217,164.98771a3.56024,3.56024,0,0,1,1.95781,1.26174,2.81583,2.81583,0,0,1,.55578,1.18244,10.15269,10.15269,0,0,1,.098,1.15414,7.28217,7.28217,0,0,0,.20783,1.927,5.0614,5.0614,0,0,0,1.06157,1.73775,2.86074,2.86074,0,0,1-1.95886-1.30477,4.625,4.625,0,0,1-.58584-2.32067c-.00071-.35485.00245-.75625-.01544-1.01941a2.55036,2.55036,0,0,0-.2093-.83811A9.47047,9.47047,0,0,0,323.69217,164.98771Z"/><path d="M229.88193,156.55672a7.89307,7.89307,0,0,1,1.41237-.26082,7.34583,7.34583,0,0,1,1.3942-.015,3.76886,3.76886,0,0,1,2.45564,1.047,3.34756,3.34756,0,0,0-2.40149-.19766,6.31,6.31,0,0,0-1.13069.4021,6.39654,6.39654,0,0,0-1.01022.56677Z"/><path d="M230.65034,167.74534a8.79819,8.79819,0,0,1,2.19839-.87812,13.53775,13.53775,0,0,1,2.30336-.40748,11.94269,11.94269,0,0,1,2.35318.03485,6.59682,6.59682,0,0,1,2.2929.66105c-1.58115.27391-3.02891.43765-4.53907.57543A23.27789,23.27789,0,0,1,230.65034,167.74534Z"/><path d="M335.94791,175.37962a28.98,28.98,0,0,1,1.03612,5.73489,28.072,28.072,0,0,1-.07356,5.87127,12.93883,12.93883,0,0,1-1.9167,5.66144,5.5567,5.5567,0,0,1-2.331,1.99015,5.01607,5.01607,0,0,1-2.94488.27485,5.75262,5.75262,0,0,0,2.65377-.82993,5.39292,5.39292,0,0,0,1.78-1.96723,14.948,14.948,0,0,0,1.49343-5.29256,48.61515,48.61515,0,0,0,.34718-5.67126C336.01147,179.24109,335.97925,177.32252,335.94791,175.37962Z"/><path d="M313.58114,142.72322a29.3807,29.3807,0,0,1,2.97364,4.00158,37.69125,37.69125,0,0,1,2.38856,4.38147,26.53843,26.53843,0,0,1,1.69764,4.7204,12.16841,12.16841,0,0,1,.37023,4.99923,23.27926,23.27926,0,0,0-1.32174-4.70426q-.85761-2.27226-1.90552-4.48275C316.43934,148.66817,314.935,145.76622,313.58114,142.72322Z"/><path d="M252.915,137.92282a40.00274,40.00274,0,0,1,.49625,4.47666c.10182,1.49238.129,2.98452.1417,4.47667-.01111,1.49214-.0383,2.98452-.13982,4.47666a39.543,39.543,0,0,1-.49813,4.47667,39.54512,39.54512,0,0,1-.49806-4.47667c-.10152-1.49214-.12871-2.98452-.13988-4.47666.01275-1.49215.03994-2.98429.14175-4.47667A39.99318,39.99318,0,0,1,252.915,137.92282Z"/><path d="M257.72435,119.18319c-.71858,0-1.149-.03555-1.17051-.03742l.07673-.84771c.10853.00655,11.15774.90572,15.8744-6.981a13.85672,13.85672,0,0,0,1.84044-7.11944v-3.04182h.85145v3.04182a14.69832,14.69832,0,0,1-1.96207,7.55546C269.18525,118.52823,260.80735,119.18319,257.72435,119.18319Z"/><path d="M269.53693,118.90094a1.27741,1.27741,0,0,0,0-2.55329,1.27741,1.27741,0,0,0,0,2.55329Z"/><path d="M273.06046,122.57767a1.27741,1.27741,0,0,0,0-2.55329,1.27741,1.27741,0,0,0,0,2.55329Z"/><path d="M277.27339,126.17781a1.27741,1.27741,0,0,0,0-2.55329,1.27741,1.27741,0,0,0,0,2.55329Z"/><path d="M282.2523,130.92692a1.27741,1.27741,0,0,0,0-2.55329,1.27741,1.27741,0,0,0,0,2.55329Z"/><path d="M288.45679,134.37386a1.27741,1.27741,0,0,0,0-2.55329,1.27741,1.27741,0,0,0,0,2.55329Z"/><path d="M291.82713,130.16094a1.27741,1.27741,0,0,0,0-2.55329,1.27741,1.27741,0,0,0,0,2.55329Z"/><path d="M295.35066,124.87563a1.27741,1.27741,0,0,0,0-2.55329,1.27741,1.27741,0,0,0,0,2.55329Z"/><path d="M298.49121,118.97754a1.27741,1.27741,0,0,0,0-2.55329,1.27741,1.27741,0,0,0,0,2.55329Z"/><path d="M273.74987,80.78044a12.4138,12.4138,0,0,1,3.47217-.70151,5.12853,5.12853,0,0,1,3.60516.87086,6.50236,6.50236,0,0,1,1.41413,3.41165,8.98539,8.98539,0,0,1-.06561,3.54265,17.09983,17.09983,0,0,0-.58409-3.40487,12.45552,12.45552,0,0,0-.54186-1.596,8.17055,8.17055,0,0,0-.35918-.738l-.21444-.33848c-.07444-.10315-.156-.16421-.22737-.25333a5.28084,5.28084,0,0,0-3.02563-.833C276.08533,80.68641,274.92535,80.72617,273.74987,80.78044Z"/><path d="M281.71613,89.617a5.492,5.492,0,0,1,1.05882.97028l.4014.46128a4.35384,4.35384,0,0,0,.53133.48327.98643.98643,0,0,1-.86028.0938,1.63209,1.63209,0,0,1-.7104-.47578A1.74935,1.74935,0,0,1,281.71613,89.617Z"/><path d="M287.61418,89.436a1.62656,1.62656,0,0,1,.19965,1.19367,1.73281,1.73281,0,0,1-.744,1.09332,2.16127,2.16127,0,0,1-1.2356.30362,2.40846,2.40846,0,0,1-1.12618-.36935c.38877-.13263.73619-.20584,1.06309-.29169a3.59466,3.59466,0,0,0,.83653-.35672A2.71419,2.71419,0,0,0,287.61418,89.436Z"/><path d="M287.30781,81.01014a7.38012,7.38012,0,0,1,3.48124-.92981,5.72043,5.72043,0,0,1,3.48925.92981c-.61713-.03181-1.18484-.07391-1.75805-.08912-.57285-.00093-1.13864-.01286-1.70945.00959C289.66649,80.954,288.52791,81.03517,287.30781,81.01014Z"/><path d="M286.17069,83.76777a3.22385,3.22385,0,0,1,.44771,2.9106,2.241,2.241,0,0,1-.71291-1.381A2.29358,2.29358,0,0,1,286.17069,83.76777Z"/><path d="M277.35,85.96353a1.27741,1.27741,0,0,0,0-2.55329,1.27741,1.27741,0,0,0,0,2.55329Z"/><path d="M290.60155,85.81033a1.27741,1.27741,0,0,0,0-2.55329,1.27741,1.27741,0,0,0,0,2.55329Z"/><path d="M280.031,96.78958a14.183,14.183,0,0,0,2.3847,1.38314,6.84911,6.84911,0,0,0,2.53114.62385,5.0873,5.0873,0,0,0,2.50774-.523,8.31065,8.31065,0,0,0,1.17543-.65731c.38087-.25333.72537-.56186,1.129-.82665a10.04883,10.04883,0,0,1-.85794,1.14478,5.88148,5.88148,0,0,1-1.12923.92256,4.77453,4.77453,0,0,1-2.85645.7897,5.84157,5.84157,0,0,1-2.80856-.88865A6.64749,6.64749,0,0,1,280.031,96.78958Z"/><path d="M297.29136,83.31772c.00959.20116.00959.41192.00959.61309l-.20123-.62269S297.1668,83.30812,297.29136,83.31772Z" fill="#fff"/><path d="M273.06046,77.4813c.60683-.084,1.21536-.15181,1.81846-.24888.59461-.14246,1.20173-.23064,1.78348-.41707a16.41588,16.41588,0,0,0,3.37633-1.37168A13.60891,13.60891,0,0,0,282.9274,73.262a10.32338,10.32338,0,0,0,2.07869-2.89891l.19625-.4297.2186.41566a15.753,15.753,0,0,0,2.04628,2.96441,11.16031,11.16031,0,0,0,2.7126,2.31482,6.79488,6.79488,0,0,0,3.33533.93262,7.3997,7.3997,0,0,0,3.34674-.90572l.49187-.22269.03584.51345c.21234,3.04159.31819,6.079.294,9.12736a40.65157,40.65157,0,0,1-.89292,9.12689,22.8202,22.8202,0,0,1-3.6734,8.44269,11.378,11.378,0,0,1-3.47135,3.14546,8.88394,8.88394,0,0,1-4.56836,1.1001,12.86992,12.86992,0,0,1-4.54444-1.0311,11.19627,11.19627,0,0,1-3.87089-2.59248,16.7777,16.7777,0,0,1-4.00731-8.22655,36.216,36.216,0,0,1-.67818-9.10608,56.17939,56.17939,0,0,1,1.08373-9.04034,56.04141,56.04141,0,0,0-.78706,9.04666,39.21777,39.21777,0,0,0,.88876,8.98537,16.1892,16.1892,0,0,0,3.9886,7.85814,10.93649,10.93649,0,0,0,3.65837,2.39365,12.13176,12.13176,0,0,0,4.28339.94993,8.10312,8.10312,0,0,0,4.16673-1.02688,10.58272,10.58272,0,0,0,3.20223-2.945,23.04121,23.04121,0,0,0,3.52265-8.14516,39.85858,39.85858,0,0,0,.92542-8.9449c.0424-3.01914-.04509-6.05162-.23725-9.06421l.52754.29052a8.03254,8.03254,0,0,1-3.68931.92537,7.42149,7.42149,0,0,1-3.63077-1.08162,11.70707,11.70707,0,0,1-2.80779-2.48114,16.19367,16.19367,0,0,1-2.05968-3.10592l.41467-.0138a10.05637,10.05637,0,0,1-2.2505,2.98476,13.9016,13.9016,0,0,1-3.0251,2.13564,16.59241,16.59241,0,0,1-3.45832,1.27717c-.59092.16819-1.20472.23743-1.80453.3607C274.2805,77.369,273.66882,77.41721,273.06046,77.4813Z"/><path d="M301.26177,419.64062a71.814,71.814,0,0,1,2.57687,16.40609,54.85707,54.85707,0,0,1-.22082,8.36316,50.86509,50.86509,0,0,1-1.54846,8.274l.02281-.40093a12.56778,12.56778,0,0,0,1.81255,3.93819,11.46049,11.46049,0,0,0,3.055,3.06827,7.01786,7.01786,0,0,0,.92221.56443,5.78094,5.78094,0,0,0,.96606.48514l1.00128.41544,1.05121.29239.52327.15134.54321.08655,1.08542.174c.73163.07462,1.47723.07462,2.21383.11977l.32959.02011.221.124c1.605.901,3.15235,1.83062,4.68608,2.87856a19.11457,19.11457,0,0,1,2.27,1.77845l1.933,1.89518-.0845-.077,3.24106,2.61915c.53783.42572,1.09438.86665,1.6094,1.23975a9.68881,9.68881,0,0,0,1.63781.77145c2.55605,1.05636,5.16157,2.07763,7.75335,3.09235l.13081.05123.15731.10784a18.44962,18.44962,0,0,0,4.63251,2.29657,8.76222,8.76222,0,0,0,4.82514.31509,6.27515,6.27515,0,0,0,3.665-2.77423,15.05169,15.05169,0,0,0,1.95038-4.76392l.39649,1.20584-5.93-5.108.12789.0938-5.78892-3.7279-.056-.036-.03193-.026-7.5606-6.10143.05807.04163a30.31244,30.31244,0,0,1-4.35257-3.9155,31.49671,31.49671,0,0,1-3.52533-4.60812,24.84074,24.84074,0,0,1-2.52821-5.22169,24.00866,24.00866,0,0,1-1.19151-5.66518l-.00345-.02971.00094-.02409.29415-7.38937c.08678-2.46313.229-4.92579.3449-7.38868.05819,2.465.14275,4.93023.17181,7.39476l.121,7.39428-.00246-.05356a22.90451,22.90451,0,0,0,1.43659,5.32647,24.39259,24.39259,0,0,0,2.57622,4.86426,29.95978,29.95978,0,0,0,3.498,4.2617,28.82809,28.82809,0,0,0,4.17737,3.51691l.02638.018.032.0241,7.75884,5.8474-.08766-.06152,5.85378,3.62522.05918.03672.069.05731,6.0191,5.00274.56573.47017-.16912.73613a16.979,16.979,0,0,1-2.25424,5.57279,8.78078,8.78078,0,0,1-5.07859,3.824,11.23666,11.23666,0,0,1-6.22529-.31438,19.59556,19.59556,0,0,1-5.37841-2.67248l.28772.15883c-2.60237-1.03648-5.19087-2.068-7.7899-3.15973l-.98326-.42455c-.18661-.08865-.30918-.1345-.548-.25871a3.9369,3.9369,0,0,1-.58794-.37169c-.6128-.45-1.14683-.88163-1.70161-1.3249l-3.25487-2.67014-.04573-.03742-.039-.03953-1.88091-1.91015a17.08742,17.08742,0,0,0-1.94412-1.56887c-1.41414-1.00443-2.93219-1.95413-4.44369-2.83739l.55017.14409c-.82835-.05894-1.65723-.07766-2.48271-.1773l-1.23583-.219-.61666-.11275-.60537-.18292-1.20619-.37566-1.15752-.52374a7.35069,7.35069,0,0,1-1.114-.608,8.772,8.772,0,0,1-1.05905-.7008,13.397,13.397,0,0,1-3.42843-3.6844,14.16123,14.16123,0,0,1-1.9291-4.64836l-.041-.1883.0638-.21263a49.33576,49.33576,0,0,0,1.76711-7.94726,69.4366,69.4366,0,0,0,.59087-8.18024,77.30807,77.30807,0,0,0-.34947-8.23638A79.9218,79.9218,0,0,0,301.26177,419.64062Z"/><path d="M301.26175,452.43689s-4.573.91919-4.16966,2.45116-.51585,15.47292,3.46728,17.00489,8.88544.4596,11.643.91919a16.19569,16.19569,0,0,1,7.96626,3.67673c2.91075,2.298,14.24734,9.49823,24.35836,8.73224s16.8517-2.29795,17.46449-9.49822-5.8215-12.86857-15.01333-14.09415c0,0-.38821-7.47693-17.4288-11.09194,0,0-9.38072-1.62343-14.283,12.16432L322.007,467.297s2.60435-13.48136,13.941-10.57061l7.65986,5.97469a33.38458,33.38458,0,0,0-14.55374,10.57061l9.345,3.82993s4.11768-9.345,11.03021-10.72381l5.97469,5.05551s-2.0933,11.91154-12.61305,7.94733Z"/><path d="M258.73014,431.59958c.05081.00142,2.6573-27.78376,2.66191-27.73437.21694,2.325-2.09556,32.47265-1.71733,34.76711a42.56067,42.56067,0,0,0,1.54473,6.73072,13.30712,13.30712,0,0,0,.63725,1.54839c.11887.25216.252.47359.391.717.15007.26729.31538.52913.44854.80445a16.62178,16.62178,0,0,1,1.31254,3.40423,21.02391,21.02391,0,0,1,.70247,7.2218,14.70548,14.70548,0,0,1-.73508,3.63961,8.20048,8.20048,0,0,1-2.01146,3.31491,5.64593,5.64593,0,0,1-1.69562,1.15066,5.436,5.436,0,0,1-.97791.33321l-.89306.17559a16.73771,16.73771,0,0,0-3.13956,1.12277,25.8365,25.8365,0,0,1-7.028,1.52547c-2.35815.23419-4.71075.30273-7.05779.31171-4.694.00685-9.36915-.15267-14.04634-.29163q-3.50727-.1106-7.01183-.28736c-2.33865-.07634-4.67506-.19214-7.01265-.29919-9.3519-.41049-18.68382-1.15137-27.99744-2.03309l-.03745-.00354a.93447.93447,0,0,1-.84013-.82642,2.81975,2.81975,0,0,1,.00661-.7423,4.34857,4.34857,0,0,1,.11273-.5908,5.55021,5.55021,0,0,1,.39194-1.04975,5.99957,5.99957,0,0,1,.52771-.9304,6.90778,6.90778,0,0,1,.6161-.83564,14.93189,14.93189,0,0,1,2.93182-2.69291,35.98659,35.98659,0,0,1,6.73627-3.68238c1.17358-.47525,2.35213-.937,3.54166-1.35437,1.19142-.39041,2.39655-.81768,3.576-1.17642,2.36737-.74512,4.74053-1.4652,7.09017-2.24625a89.73205,89.73205,0,0,0,13.68583-5.54532,22.61294,22.61294,0,0,0,5.83056-4.33275c4.31235-3.20961,8.39688-31.40287,8.49472-33.88166a4.01407,4.01407,0,0,1,.86343-.10518c.05128.00213-6.35318,27.37239-6.35,27.42273a10.47259,10.47259,0,0,1-2.41853,7.06322,22.164,22.164,0,0,1-5.8197,4.86921,77.7372,77.7372,0,0,1-13.69752,6.19852c-2.34728.8536-4.6987,1.68663-7.065,2.46532-1.19426.38237-2.32613.80728-3.49179,1.20808-1.14924.42349-2.281.88787-3.40365,1.36217a34.77069,34.77069,0,0,0-6.33476,3.44417,13.88993,13.88993,0,0,0-2.58561,2.29092,5.12392,5.12392,0,0,0-.50289.653,4.13738,4.13738,0,0,0-.40589.68038,3.58348,3.58348,0,0,0-.27662.68628,2.44252,2.44252,0,0,0-.07007.32234c-.02.08248-.01465.24365-.02552.18693l-.87735-.82973q13.92771,1.54521,27.86971,2.94955c2.32589.20868,4.652.42633,6.98075.60428,2.32955.16543,4.66135.29162,6.99339.40577a131.89885,131.89885,0,0,0,13.99175-.00449c2.324-.13353,4.644-.33345,6.92462-.68014a25.5396,25.5396,0,0,0,6.559-1.75943,17.96811,17.96811,0,0,1,3.41889-1.31254l.47194-.09.354-.07657a3.66222,3.66222,0,0,0,.67588-.23491,3.877,3.877,0,0,0,1.18162-.81555,9.53592,9.53592,0,0,0,2.28-5.82962,20.60891,20.60891,0,0,0-.49-6.68251,18.10331,18.10331,0,0,0-1.08213-3.17216c-.10811-.2576-.24483-.497-.36748-.74631-.138-.27106-.28961-.56009-.40565-.84368a14.55024,14.55024,0,0,1-.60947-1.72539,36.754,36.754,0,0,1-1.1906-7.0032c-.18492-2.34551,2.47131-32.52015,2.52815-34.86684" fill="#020202"/><path d="M240.89558,471.05863c-4.11316,0-8.26936-.12538-12.2927-.247l-1.48957-.04491q-3.51153-.11088-7.02026-.28819c-1.92839-.06175-3.86334-.15251-5.79828-.24233l-1.21261-.05708c-8.30118-.363-17.20492-1.00957-28.01834-2.03412a1.37531,1.37531,0,0,1-1.25939-1.207,2.98318,2.98318,0,0,1-.00094-.76257,3.20965,3.20965,0,0,1,.08795-.53519l.03743-.16468a5.94689,5.94689,0,0,1,.43414-1.16677,6.23353,6.23353,0,0,1,.55111-.97028,6.684,6.684,0,0,1,.5904-.80654,15.544,15.544,0,0,1,3.06428-2.83037,35.92785,35.92785,0,0,1,6.81348-3.72486c.98151-.39765,2.26617-.90852,3.56954-1.36513.42479-.13941.844-.28069,1.26221-.422.78034-.26292,1.56068-.52584,2.32979-.75975l2.02945-.63438c1.68886-.52678,3.37492-1.05168,5.04975-1.60934a89.95077,89.95077,0,0,0,13.6204-5.51758,21.81231,21.81231,0,0,0,5.71875-4.24509c.98151-.73262,1.97144-2.89212,2.9099-5.78893,0-.15438-.00467-.30783-.014-.46128-.00561-.07672-.00561-.07672,1.84044-8.00082.713-3.06148,1.57378-6.75547,2.35132-10.10232.77191-4.55479,1.25284-8.216,1.294-9.25648.02059-.407.41544-.44444.79718-.48093.2386-.02246.48374-.03182.51275-.03182l.19742.0103.11883.15625c.117.15158.14128.18339-2.09775,9.8263a142.88389,142.88389,0,0,1-4.15059,18.527,11.08829,11.08829,0,0,1-2.52628,6.65815,22.60259,22.60259,0,0,1-5.92553,4.96181,78.28336,78.28336,0,0,1-13.77385,6.23711c-2.836,1.03109-5.01888,1.79272-7.08107,2.47107-.76256.24421-1.49612.50432-2.22968.76444-.4173.14877-.83461.2966-1.25659.44163-1.23694.4566-2.45517.96279-3.3768,1.352a33.71544,33.71544,0,0,0-6.253,3.39925,13.45594,13.45594,0,0,0-2.50944,2.21938l-.06362.07579a3.93714,3.93714,0,0,0-.39672.51929,4.10638,4.10638,0,0,0-.35836.58386c8.11123.89449,16.71837,1.803,26.24993,2.77142l1.222.10947c1.9153.1731,3.8306.3462,5.74776.4931,2.54687.18058,5.06941.31157,6.9819.40514a131.148,131.148,0,0,0,13.946-.00468c2.67038-.15252,4.858-.36772,6.88552-.67648a24.65192,24.65192,0,0,0,6.44951-1.7263c.25356-.1076.50432-.22268.76256-.34058a12.94831,12.94831,0,0,1,2.74242-1.00022l.82338-.16561a3.20417,3.20417,0,0,0,.57917-.2021,3.45322,3.45322,0,0,0,1.06946-.7373,9.06391,9.06391,0,0,0,2.15483-5.56437,20.32256,20.32256,0,0,0-.47906-6.544,17.79535,17.79535,0,0,0-1.0573-3.097c-.072-.17122-.15157-.32467-.2311-.47812l-.18246-.35836c-.12725-.24888-.26011-.50993-.36491-.76724a15.108,15.108,0,0,1-.625-1.76933,37.11141,37.11141,0,0,1-1.20513-7.08575c-.05052-.64093.09918-3.22429.349-6.74143a.51911.51911,0,0,1-.06643.00093l.00749-.42572-.41637-.08234c.07766-.48,1.3829-14.281,2.08465-21.69514.26573-2.8126.4145-4.38544.53145-5.2659.02059-.32561.03369-.5642.0365-.70174l.07953.00187c.0945-.4145.18806-.4173.34245-.4173h.3911l.03649.38642c.102,1.09005-.30783,7.65464-.78127,15.25594-.53333,8.5669-1.1387,18.27811-.94034,19.48137a42.18475,42.18475,0,0,0,1.527,6.66,12.96979,12.96979,0,0,0,.61753,1.5008c.09357.19836.19368.37146.29754.553l.218.37894c.11322.19462.22643.38923.32467.5904a17.10722,17.10722,0,0,1,1.34081,3.48159,21.42137,21.42137,0,0,1,.71484,7.36739,14.96288,14.96288,0,0,1-.756,3.74264,8.53622,8.53622,0,0,1-2.12114,3.48439,6.06825,6.06825,0,0,1-1.82173,1.23414,5.996,5.996,0,0,1-1.03952.35368l-.917.17964a10.70243,10.70243,0,0,0-2.2409.76163c-.26667.11228-.53988.22737-.82245.33965a26.136,26.136,0,0,1-7.14189,1.55319c-2.07436.20585-4.2638.30315-7.09979.31438Zm-1.18548-.85426c.48841.00281.98057.00375,1.4615.00281,2.80791-.01123,4.97209-.10666,7.01651-.3097a25.348,25.348,0,0,0,6.91172-1.49706c.27882-.1104.54736-.22362.80841-.33309a11.25507,11.25507,0,0,1,2.41774-.814l.8842-.17309a4.91774,4.91774,0,0,0,.87859-.30129,5.23122,5.23122,0,0,0,1.58033-1.07133,7.71477,7.71477,0,0,0,1.905-3.14943,14.13572,14.13572,0,0,0,.713-3.53305,20.62856,20.62856,0,0,0-.68864-7.07826,16.32141,16.32141,0,0,0-1.279-3.31785c-.0945-.19275-.19743-.36772-.29941-.54362l-.22175-.38549c-.11509-.20117-.2255-.39392-.32655-.60725a13.65081,13.65081,0,0,1-.655-1.59249,40.61975,40.61975,0,0,1-1.49518-6.41114,35.72768,35.72768,0,0,0,1.14244,6.5309,14.2406,14.2406,0,0,0,.59133,1.673c.09918.2414.22175.48093.33778.71017l.17964.35181c.09076.175.18058.349.25731.53239a18.56289,18.56289,0,0,1,1.10314,3.23551,21.16437,21.16437,0,0,1,.49964,6.8219,10.00645,10.00645,0,0,1-2.40371,6.09114,4.30142,4.30142,0,0,1-1.3146.90665,4.07564,4.07564,0,0,1-.73356.2545l-.85612.1731a12.13982,12.13982,0,0,0-2.55529.9394c-.26573.12164-.524.23953-.77566.34713a25.44485,25.44485,0,0,1-6.6619,1.78711c-2.05471.31345-4.26754.53052-6.96412.68491Q240.44647,470.1707,239.7101,470.20437Zm-54.97937-4.41631-.01029.04866a1.96113,1.96113,0,0,0-.06176.34151,2.46711,2.46711,0,0,0-.00842.66526.51074.51074,0,0,0,.4566.451c10.83588,1.02549,19.72558,1.67109,28.01366,2.03506l1.21355.05614c1.18267.05521,2.36535.11041,3.548.15906q-1.75857-.15017-3.51527-.31157l-1.22759-.11041c-9.62513-.97776-18.30525-1.89377-26.48385-2.79668a.47808.47808,0,0,0-.01965.08046l-.03836.53239-.37988.07673-.37426.02526-.04866-.24608Zm.14877-.51461.47531.05239q.35649.0393.71485.07954a2.44592,2.44592,0,0,1,.11976-.23673,4.28154,4.28154,0,0,1,.42853-.71484,4.58324,4.58324,0,0,1,.45848-.60256l.06362-.07579a14.349,14.349,0,0,1,2.66663-2.36442,34.55355,34.55355,0,0,1,6.41021-3.48626c.93379-.39485,2.16418-.90572,3.42638-1.37168.4276-.1469.8421-.2938,1.25753-.44163.741-.26292,1.483-.52678,2.25213-.77192,2.0491-.67461,4.22451-1.43343,7.04926-2.45985a77.627,77.627,0,0,0,13.6204-6.16226,23.8668,23.8668,0,0,0,5.02075-3.96252,24.01547,24.01547,0,0,1-5.19571,3.66311,90.7665,90.7665,0,0,1-13.7542,5.5756c-1.68138.55952-3.37306,1.0863-5.06754,1.614l-2.03038.63531c-.76537.23205-1.53729.4931-2.30921.75321-.421.14222-.84209.28351-1.26127.42105-1.27811.44818-2.5506.95437-3.51527,1.34548a34.99591,34.99591,0,0,0-6.6488,3.6341,14.56667,14.56667,0,0,0-2.85189,2.617,6.57053,6.57053,0,0,0-.5773.78128,5.72611,5.72611,0,0,0-.50526.88794A3.92,3.92,0,0,0,184.8795,465.27345Z"/><path d="M251.87417,444.59192a5.36123,5.36123,0,0,1,.58762,2.45209,5.605,5.605,0,0,1-.56411,2.53456,4.96828,4.96828,0,0,1-1.71275,1.9681,5.34088,5.34088,0,0,1-2.3585.90252,15.17431,15.17431,0,0,0,1.86719-1.50065,6.17769,6.17769,0,0,0,1.31454-1.80787A10.126,10.126,0,0,0,251.87417,444.59192Z" fill="#020202"/><path d="M246.23445,453.11923l1.80863-1.36045a9.9779,9.9779,0,0,0,1.34267-1.10408,5.78044,5.78044,0,0,0,1.23882-1.69916,9.53486,9.53486,0,0,0,.82431-4.36672l.00936-1.673.79157,1.4746a5.75925,5.75925,0,0,1,.63812,2.646,6.05831,6.05831,0,0,1-.60631,2.72745,5.37565,5.37565,0,0,1-1.86851,2.14173,5.71058,5.71058,0,0,1-2.52348.96466Zm5.78986-5.61115a7.60683,7.60683,0,0,1-.63624,1.82453,6.59511,6.59511,0,0,1-1.08537,1.60372,4.72352,4.72352,0,0,0,1.21542-1.54945A5.23143,5.23143,0,0,0,252.02431,447.50808Z"/><path d="M261.51418,465.01568s5.63846,1.95772,2.52314,12.19605c0,0,.45619,3.80962-13.11556,3.09532l-68.33495.08921s-5.05823-11.18029,5.44726-13.373L205.189,468.611s-4.26844-10.20924-3.07794-13.54265a15.8108,15.8108,0,0,1,18.07059-6.8659s-.70526,16.3817,11.9221,21.98119C232.10377,470.18364,250.67753,469.24858,261.51418,465.01568Z" fill="#020202"/><path d="M182.313,480.82224l-.11321-.25075c-.10386-.22831-2.50851-5.64578-.392-9.81227,1.08256-2.1305,3.14756-3.52837,6.13886-4.15246l.06269-.0131.06363.00562,16.45919,1.52325c-.931-2.341-3.88767-10.21272-2.821-13.19748a16.33187,16.33187,0,0,1,18.58033-7.1344l.33029.08795-.015.34151c-.00655.16094-.53707,16.07838,11.57692,21.53328,1.49331-.08328,18.93869-1.13589,29.17574-5.134l.146-.05707.14783.05146c.24608.08514,5.96577,2.20348,2.81072,12.65573a2.02766,2.02766,0,0,1-.61847,1.32957c-1.14431,1.22385-4.31526,2.589-12.94579,2.13237Zm5.74589-13.36964c-2.69189.57543-4.53982,1.817-5.49232,3.69211-1.69168,3.32908-.13006,7.737.30409,8.82608l68.05053-.08982c8.63427.45286,11.37762-.93753,12.24779-1.80676a1.21084,1.21084,0,0,0,.44444-.82525l-.00375-.07486.02059-.08608c2.7106-8.90654-1.295-11.23727-2.12114-11.61341-10.79845,4.15621-29.1982,5.12461-29.38346,5.134l-.10105.00561-.09263-.04117c-11.71633-5.19571-12.187-19.617-12.18042-22.04227A15.462,15.462,0,0,0,202.483,455.275c-1.09285,3.07738,3.0568,13.07116,3.09891,13.17222l.27227.65309Z"/><path d="M225.84932,444.59192s-1.53112,17.8363,12.35877,26.04113l10.02245-.31192s-13.29452-7.9824-17.37785-29.55522C230.85269,440.76591,228.04429,444.8664,225.84932,444.59192Z" fill="#020202"/><path d="M238.098,471.06237l-.10572-.06268c-13.95911-8.246-12.58276-26.263-12.56685-26.44456l.03743-.44069.43976.0552c1.59342.18526,3.85959-2.56277,4.5997-3.64439l.57824-.8449.19087,1.00583c3.9962,21.115,17.04679,29.19165,17.17778,29.27025l1.23694.74478ZM226.25157,445.023c-.11135,2.64418-.18526,17.8552,12.0672,25.18048l8.6193-.2676c-3.2168-2.41774-12.76427-10.87143-16.316-28.14465C229.71725,442.93738,227.94417,444.88449,226.25157,445.023Z"/><path d="M300.5202,387.05q.81921,16.51311,1.79168,33.02622a23.68038,23.68038,0,0,1-6.09361-3.33422l-3.58334-126.01139.42157,1.6767c.28743,1.34151.58444,2.68278.80479,4.04322.45988,2.71155.824,5.44227,1.13057,8.17276.64192,5.46121,1.13057,10.95119,1.58091,16.44118.85274,10.9802,1.55214,21.96976,2.16535,32.96891C299.38,365.03247,299.93577,376.04121,300.5202,387.05Z"/><path d="M292.59657,258.327c-.00959,1.66734-.07667,3.33422-.09579,5.00157.0383,3.34358-.3066,6.66844-.36409,10.02185,0,0,0,6.35219-.2683,15.1095-.34491,11.47821-1.14969,27.10513-2.9989,37.99878-3.27674,19.20067-3.67914,89.87129-3.67914,89.87129-32.68131,10.62535-58.41633,2.86476-58.41633,2.86476,1.21682-16.34551,10.41471-125.62823,10.41471-125.62823-1.93536-29.51,2.9223-59.92036,6.2757-76.56294a32.67968,32.67968,0,0,0,6.57266-2.38569,44.52284,44.52284,0,0,0,6.0553-3.5258,37.39612,37.39612,0,0,0,5.31753-4.599,22.98293,22.98293,0,0,0,3.99532-5.77746c-1.65752,1.65752-3.28633,3.21914-5.02051,4.68531-1.7629,1.42735-3.53545,2.82616-5.40379,4.11971-3.7079,2.61564-7.57867,4.99175-11.51651,7.48294,1.61922-8.00971,2.88394-12.8293,2.88394-12.8293a139.76052,139.76052,0,0,0,22.86062-4.69467,138.89134,138.89134,0,0,0,16.71913-6.11266c.43111.0669.86227.14362,1.29343.20116.49824,3.31505,1.0252,6.61091,1.43718,9.93554.45028,3.30545.84314,6.62073,1.24554,9.92618.757,6.63009,1.38928,13.27,1.83956,19.91926.16292,2.10781.28748,4.22521.39286,6.333a.71243.71243,0,0,1-.07666-.02854,8.39069,8.39069,0,0,0-1.85875-.4697,19.292,19.292,0,0,0-3.62165-.21076,31.06807,31.06807,0,0,0-3.53545.29707,28.41119,28.41119,0,0,0-3.46837.68023c2.34734.14385,4.67561.22993,6.95587.45028a28.20832,28.20832,0,0,1,3.33428.49824,6.27685,6.27685,0,0,1,2.37611.95812q.24429,5.73431.32579,11.46861Z"/><path d="M320.54478,200.90722a29.09849,29.09849,0,0,1-3.69831-4.9342,68.79746,68.79746,0,0,0,12.86749-1.06361,47.59612,47.59612,0,0,1,5.81577,13.7011c-.69941-.14386-1.38928-.2683-2.06951-.44069l-1.48506-.41193c-.24912-.07672-.49824-.11508-.73777-.20117l-.709-.25871c-.47906-.18221-.95811-.33543-1.42758-.49823l-1.36057-.63251a9.66645,9.66645,0,0,1-1.33173-.68022,12.05109,12.05109,0,0,1-1.27431-.757A22.69668,22.69668,0,0,1,320.54478,200.90722Z"/><path d="M351.36741,417.55644c-25.24639,8.86257-41.1319,5.71992-49.05553,2.52932v-.00959q.15806-16.55626-.30661-33.08376c-.27783-11.02792-.7473-22.04625-1.35092-33.06458-.33537-5.50916-.68987-11.00874-1.10185-16.5179-.45029-5.49958-.90063-10.99915-1.49466-16.48914-.58444-5.49-1.26472-10.97037-2.13658-16.43158-.45034-2.72114-.95812-5.44227-1.56173-8.1344a49.01893,49.01893,0,0,0-1.74378-6.16061l-.47906-16.84375a148.83925,148.83925,0,0,0,1.92582-20.01517c.09579-1.6767.0862-3.3534.0862-5.0301-.00959-1.67671.03836-3.35341-.02871-5.03011l-.0479-1.30291a30.53235,30.53235,0,0,1,2.92225-1.89705,32.17885,32.17885,0,0,1,3.51626-1.71506,22.91839,22.91839,0,0,1,7.71282-1.7822,13.42848,13.42848,0,0,0-4.11029-.41192,17.76936,17.76936,0,0,0-4.11989.71858,22.58189,22.58189,0,0,0-3.87082,1.57144c-.72818.39275-1.43718.79508-2.127,1.24537l-.0479-1.45636c-.07666-1.6767-.19163-3.3534-.297-5.03011-.47906-6.68762-1.20723-13.36566-2.27073-19.98616a181.039,181.039,0,0,0-4.15825-19.66055,178.07513,178.07513,0,0,0,29.62492,2.40488,14.21743,14.21743,0,0,0,2.539,5.87314,16.8597,16.8597,0,0,0,4.71391,4.49374,17.23561,17.23561,0,0,0,6.03612,2.40464,18.08307,18.08307,0,0,0,3.20013.35462,16.76673,16.76673,0,0,0,2.29945-.14362c7.60744,27.47869,6.88885,75.56645,7.55954,97.89059C344.01862,333.8074,351.36741,417.55644,351.36741,417.55644Z"/><path d="M336.5262,208.85963c-.297.03836-.594.07673-.89109.09591-.03831-.11509-.067-.23018-.10538-.33544C335.85551,208.68724,336.19083,208.76373,336.5262,208.85963Z" fill="#fff"/><path d="M292.63493,290.73056l-.08626-.32584-.68028-1.94477a18.49253,18.49253,0,0,1,.74736,1.73425Z" fill="#fff"/><path d="M284.0281,80.27228a1.2774,1.2774,0,0,0,0-2.55328,1.2774,1.2774,0,0,0,0,2.55328Z" fill="#b21919"/><path d="M519.06068,259.86806H375.33679V69.8103H519.06068Zm-140.8589-2.865H516.19569V72.67529H378.20178Z"/><path d="M440.09567,140.02688H390.88652V86.41826h49.20915Zm-46.2375-2.97165H437.124V89.38991H393.85817Z"/><path d="M406.14286,111.28514a2.686,2.686,0,0,0-.68026.02874" fill="none"/><path d="M426.66568,106.22618l1.62881,5.05887a.32555.32555,0,0,0-.09579-.00959,2.72813,2.72813,0,0,0-1.83963.65169c.048-.30666.07667-.60373.10544-.872C426.61778,109.53186,426.66568,107.82639,426.66568,106.22618Z"/><path d="M428.946,111.37137a2.37936,2.37936,0,0,0-.65152-.08623" fill="none"/><path d="M437.85646,134.72076l-8.63257-1.83974s-4.75228-2.90312-5.50917-13.14532v-.27789a16.77689,16.77689,0,0,0,1.897-4.2348,2.6089,2.6089,0,0,0,2.58693,1.782c3.42048,0,3.66954-4.92462.7473-5.63361,2.75938-5.03011-1.43718-5.54753-2.28032-5.59548-.01912-2.99879-.20117-5.49-.20117-5.49-5.44209,2.89352-8.83385-4.13913-8.83385-4.13913s-1.90665,4.72368-9.09251,5.26964v-.4407a39.814,39.814,0,0,0-.49824,11.277,2.587,2.587,0,0,0-1.89705-.96771l1.78208-5.51875s-5.44209.03836-2.46236,5.54753c-3.23844.42151-3.10429,5.69115.43116,5.69115a2.60988,2.60988,0,0,0,2.64441-1.98314,14.65462,14.65462,0,0,0,1.27431,3.33423v3.04674a10.67159,10.67159,0,0,1-1.418,5.49c-3.67913,6.15127-12.17762,5.37514-12.17762,5.37514l-4.51274-.49824s11.06622-30.14228,12.86748-33.0454,11.60283-11.689,22.10374-3.363C426.67527,95.36129,431.82994,99.27984,437.85646,134.72076Z"/><path d="M397.06,132.61178c-.53707,0-.85894-.02713-.87578-.02807l.058-.63438c.07766.00655,8.347.67929,11.87633-5.22378a10.36547,10.36547,0,0,0,1.37729-5.32578v-2.27552h.63625v2.27552A11.005,11.005,0,0,1,408.665,127.053C405.63439,132.1215,399.3664,132.61178,397.06,132.61178Z"/><path d="M405.89808,132.40011a.95565.95565,0,0,0,0-1.91016.95565.95565,0,0,0,0,1.91016Z"/><path d="M408.5341,135.15074a.95565.95565,0,0,0,0-1.91016.95565.95565,0,0,0,0,1.91016Z"/><path d="M411.68587,137.84407a.95565.95565,0,0,0,0-1.91016.95565.95565,0,0,0,0,1.91016Z"/><path d="M425.20981,136.86989a.95565.95565,0,0,0,0-1.91016.95565.95565,0,0,0,0,1.91016Z"/><path d="M427.55931,132.45742a.95565.95565,0,0,0,0-1.91016.95565.95565,0,0,0,0,1.91016Z"/><path d="M409.04984,103.88141a9.4271,9.4271,0,0,1,2.59762-.52467,3.83538,3.83538,0,0,1,2.697.65145,4.86387,4.86387,0,0,1,1.058,2.55225,6.79231,6.79231,0,0,1-.04912,2.65026,12.5255,12.5255,0,0,0-.437-2.5471,9.319,9.319,0,0,0-.40537-1.19414,3.0428,3.0428,0,0,0-.59923-.99461,3.95189,3.95189,0,0,0-2.26354-.62338C410.79782,103.81592,409.928,103.83229,409.04984,103.88141Z"/><path d="M415.00952,110.49232a4.11515,4.11515,0,0,1,.79215.72583,4.34888,4.34888,0,0,0,.69783.70666.75012.75012,0,0,1-.64362.07018,1.22109,1.22109,0,0,1-.53145-.356A1.30937,1.30937,0,0,1,415.00952,110.49232Z"/><path d="M419.422,110.35688a1.23484,1.23484,0,0,1,.1493.89285,1.29639,1.29639,0,0,1-.5566.818,1.61881,1.61881,0,0,1-.92437.22737,1.84766,1.84766,0,0,1-.84251-.27649,5.95975,5.95975,0,0,0,1.42115-.48514A2.02913,2.02913,0,0,0,419.422,110.35688Z"/><path d="M419.1928,104.05334a5.52438,5.52438,0,0,1,2.60441-.69566,4.27975,4.27975,0,0,1,2.61031.69566,24.87425,24.87425,0,0,0-2.59406-.05941C420.95745,104.0117,420.10548,104.07135,419.1928,104.05334Z"/><path d="M418.34211,106.11624a2.41259,2.41259,0,0,1,.335,2.17774,1.67779,1.67779,0,0,1-.53338-1.03343A1.71789,1.71789,0,0,1,418.34211,106.11624Z"/><path d="M411.74317,107.759a.95565.95565,0,0,0,0-1.91016.95565.95565,0,0,0,0,1.91016Z"/><path d="M421.65691,107.64442a.95565.95565,0,0,0,0-1.91016.95565.95565,0,0,0,0,1.91016Z"/><path d="M413.74884,115.85809a10.31478,10.31478,0,0,0,1.78407,1.03484,5.125,5.125,0,0,0,1.89354.46666,3.80327,3.80327,0,0,0,1.87611-.39134,8.91281,8.91281,0,0,0,1.724-1.11016,8.83185,8.83185,0,0,1-.642.85636,4.38354,4.38354,0,0,1-.84461.69052,3.57256,3.57256,0,0,1-2.137.59064A4.81924,4.81924,0,0,1,413.74884,115.85809Z"/><path d="M406.14286,111.28514a2.686,2.686,0,0,0-.68026.02874" fill="none"/><path d="M426.522,105.7663s.04789,0,.14368.00959v.44093Z" fill="#fff"/><path d="M428.946,111.37137a2.37936,2.37936,0,0,0-.65152-.08623" fill="none"/><path d="M408.53411,101.41338l1.36039-.1862c.44485-.10667.89906-.17263,1.33425-.312a12.2861,12.2861,0,0,0,2.52588-1.02619,10.18159,10.18159,0,0,0,2.16108-1.63226,7.72186,7.72186,0,0,0,1.55512-2.16886l.14684-.3214.16357.31111a11.78421,11.78421,0,0,0,1.53085,2.21775,8.344,8.344,0,0,0,2.02933,1.73167,5.08369,5.08369,0,0,0,2.49517.69754,5.53428,5.53428,0,0,0,2.50377-.67742l.368-.16655.02678.38409c.15883,2.27506.238,4.54684.22,6.827a30.22185,30.22185,0,0,1-.67087,6.82587,17.14455,17.14455,0,0,1-2.74973,6.3129,9.05473,9.05473,0,0,1-2.59183,2.359,7.12027,7.12027,0,0,1-1.66261.61964c-.29076.05638-.57906.14012-.87192.17146l-.88607.01193-.44274.00445-.43321-.07416-.86561-.15251a15.927,15.927,0,0,1-1.657-.53917,8.12718,8.12718,0,0,1-2.898-1.93191,12.55579,12.55579,0,0,1-2.99546-6.15383,27.09691,27.09691,0,0,1-.50678-6.81114,42.0382,42.0382,0,0,1,.81075-6.762,41.92119,41.92119,0,0,0-.58882,6.76669,29.34046,29.34046,0,0,0,.66432,6.72061,12.11507,12.11507,0,0,0,2.9816,5.87875,7.91135,7.91135,0,0,0,2.73815,1.78267,15.46235,15.46235,0,0,0,1.57763.50338l.81151.13755.4055.06877.40818-.00866.81572-.01427c.26824-.03041.52917-.11134.79414-.163a6.53616,6.53616,0,0,0,1.51138-.571,8.4631,8.4631,0,0,0,2.39085-2.20956,13.44206,13.44206,0,0,0,1.60225-2.90523,20.6776,20.6776,0,0,0,1.03432-3.18451,29.62639,29.62639,0,0,0,.69519-6.69c.0317-2.25822-.03374-4.52649-.17748-6.77979l.39467.21754a6.00862,6.00862,0,0,1-2.76008.69215,5.54986,5.54986,0,0,1-2.71622-.80911,8.75321,8.75321,0,0,1-2.10055-1.85635,12.11247,12.11247,0,0,1-1.54092-2.32347l.31029-.0103a7.52649,7.52649,0,0,1-1.68366,2.233,10.406,10.406,0,0,1-2.26313,1.59787,12.42616,12.42616,0,0,1-2.58727.95531c-.4421.12584-.90128.17754-1.35.26994Z"/><path d="M406.14286,111.28514a2.686,2.686,0,0,0-.68026.02874" fill="none"/><path d="M408.53815,115.02179a22.01821,22.01821,0,0,1-.49822-2.769Z" fill="#fff"/><path d="M428.946,111.37137a2.37936,2.37936,0,0,0-.65152-.08623" fill="none"/><path d="M416.73919,103.5013a.95565.95565,0,0,0,0-1.91016.95565.95565,0,0,0,0,1.91016Z" fill="#b21919"/><rect x="453.81806" y="120.21522" width="48.56168" height="2.90055"/><rect x="453.78531" y="104.17521" width="48.56168" height="2.90055"/><rect x="453.81806" y="137.03371" width="48.56168" height="2.90055"/><rect x="453.7563" y="88.34385" width="48.62343" height="2.90055"/><rect x="444.80672" y="242.06339" width="57.57115" height="2.90055"/><rect x="444.77397" y="226.02337" width="57.57208" height="2.90055"/><rect x="444.74496" y="210.19107" width="57.6329" height="2.90055"/><path d="M411.53536,203.93666a20.14511,20.14511,0,0,0-8.15094,1.7291,21.14821,21.14821,0,0,0-6.74026,4.78683,22.31636,22.31636,0,0,0-6.03337,14.89126,20.9374,20.9374,0,0,0,5.89226,15.03231,20.57645,20.57645,0,0,0,15.03254,6.07968,21.44316,21.44316,0,0,0,14.74553-6.36669,21.15864,21.15864,0,0,0,6.02454-14.74553,21.76964,21.76964,0,0,0-5.89319-14.87723,21.01053,21.01053,0,0,0-6.73026-4.79081A20.22713,20.22713,0,0,0,411.53536,203.93666Zm0-.1317a22.60789,22.60789,0,0,1,15.49014,6.04834,20.98661,20.98661,0,0,1,4.93285,7.03032,21.62021,21.62021,0,0,1,.04831,16.93965,22.19577,22.19577,0,0,1-4.84941,7.14189,21.62643,21.62643,0,0,1-15.6216,6.21184,22.52864,22.52864,0,0,1-15.33464-6.49886,22.76053,22.76053,0,0,1-4.84134-6.977,21.84511,21.84511,0,0,1-1.8453-8.35731,20.889,20.889,0,0,1,6.54512-15.47605A22.60581,22.60581,0,0,1,411.53536,203.805Z"/><path d="M411.53536,236.95492a12.67736,12.67736,0,0,1-8.45614-3.15528,10.98634,10.98634,0,0,1-3.63744-8.45626,11.8652,11.8652,0,0,1,1.089-4.5583,12.83367,12.83367,0,0,1,2.6899-3.75644,12.59881,12.59881,0,0,1,8.31492-3.59106,11.67973,11.67973,0,0,1,8.60193,3.304,11.95871,11.95871,0,0,1,3.64562,8.60222,11.4143,11.4143,0,0,1-3.77737,8.47029A12.67944,12.67944,0,0,1,411.53536,236.95492Zm0-.13169a10.58,10.58,0,0,0,7.85743-3.62218,11.84519,11.84519,0,0,0,2.98546-7.8572,11.20882,11.20882,0,0,0-3.11686-7.726,11.49456,11.49456,0,0,0-7.7258-3.4589,10.64271,10.64271,0,0,0-8.01287,3.17189,10.98327,10.98327,0,0,0-2.98452,8.01276,12.44382,12.44382,0,0,0,3.12569,7.87147A10.58622,10.58622,0,0,0,411.53536,236.82323Z"/><path d="M410.99732,236.87611a11.49239,11.49239,0,0,1-6.76125-2.58765l-6.27654,7.69119c.04549.03718.09147.07376.13727.11055q.43254.34714.88125.67188l.00085.0006a21.464,21.464,0,0,0,10.61774,3.96567c.04581.00412.09156.0084.13745.0122q.14181.01192.28381.02178.13239.00927.26524.01681c.06665.00389.13325.00808.2.01133l.05137.002Z"/><path d="M399.99,225.34366a11.49044,11.49044,0,0,1,1.585-5.84038l-8.56306-5.02089a21.47434,21.47434,0,0,0-2.89808,9.38783l-.0072.11359q-.01713.26982-.027.54042c-.002.05436-.00458.10856-.0062.163-.00659.21543-.01067.431-.01077.647l-.00012.00946.00019.01551q.00023.298.009.59535c.0014.05038.004.10045.00572.15077.00568.16012.01245.32011.0217.47989.00244.0426.00541.08506.00807.12757.01145.17922.02458.35822.0405.53689l.00473.05336a21.47432,21.47432,0,0,0,2.33944,7.96186l8.80292-4.58608A11.49392,11.49392,0,0,1,399.99,225.34366Z"/><path d="M433.00652,225.21515c-.001-.173-.0037-.34568-.00889-.518-.00226-.0765-.00563-.1527-.00871-.229q-.01-.24577-.02526-.49061c-.0033-.05243-.0063-.105-.01-.15728a21.51265,21.51265,0,0,0-7.57872-14.89329l-.03184-.02693a21.4119,21.4119,0,0,0-3.59871-2.44746l-4.71887,8.73214a11.54988,11.54988,0,0,1,4.122,16.55584l8.26427,5.5a21.47573,21.47573,0,0,0,3.46267-9.502l.00453-.03977c.01162-.10519.02208-.21052.03214-.31595q.00981-.10418.01853-.20871c.00654-.07641.01333-.15279.01906-.2293q.01709-.23175.02945-.46485c.00172-.0323.00292-.06469.00449-.097q.0105-.22081.01681-.44264l.002-.07129q.00632-.26191.00665-.52526C433.00815,225.30069,433.00676,225.25806,433.00652,225.21515Z"/><rect x="409.58081" y="151.18599" width="92.79881" height="3.65576"/><rect x="409.58081" y="161.46629" width="55.98736" height="3.65576"/><rect x="409.58081" y="171.74658" width="79.12419" height="3.65576"/><rect x="409.58081" y="182.02688" width="45.55063" height="3.65576"/><rect x="409.58081" y="192.30718" width="70.57362" height="3.65576"/><path d="M401.21924,154.88586c-1.2594.16328-2.67716.27626-4.12562.33053a31.53415,31.53415,0,0,1-4.39385-.1855l-.18719-.01544.01041-.1614a25.09632,25.09632,0,0,0-.07-3.68018l-.01824-.22129.265-.02549c1.4146-.13638,2.8292-.17146,4.24374-.2131q2.1219-.06491,4.24374.07322l.39982.02619-.0131.36047C401.526,152.49689,401.34637,153.78225,401.21924,154.88586Zm-.06374-.06362c-.12713-1.34969-.30672-2.51786-.35473-3.64837l.38648.38666q-2.12181.13859-4.24374.07321c-1.41454-.04163-2.82914-.07695-4.24374-.21333l.24654-.24654a25.113,25.113,0,0,0-.06994,3.68018l-.1766-.1766a27.639,27.639,0,0,1,4.09374-.18573C398.17425,154.546,399.58564,154.659,401.1555,154.82224Z"/><path d="M401.21924,165.16619c-1.2594.163-2.67716.27625-4.12562.33029a31.49734,31.49734,0,0,1-4.39385-.1855l-.18719-.0152.01041-.16164a25.09692,25.09692,0,0,0-.07-3.68018l-.01824-.221.265-.02573c1.4146-.13614,2.8292-.17146,4.24374-.2131q2.1219-.06491,4.24374.07322l.39982.0262-.0131.36046C401.526,162.777,401.34637,164.06235,401.21924,165.16619Zm-.06374-.06386c-.12713-1.34969-.30672-2.51786-.35473-3.64837l.38648.38666q-2.12181.1386-4.24374.07322c-1.41454-.04164-2.82914-.077-4.24374-.21333l.24654-.24655a25.11359,25.11359,0,0,0-.06994,3.68018l-.1766-.1766a27.60746,27.60746,0,0,1,4.09374-.1855C398.17425,164.82608,399.58564,164.93929,401.1555,165.10233Z"/><path d="M401.21924,175.44652c-1.2594.163-2.67716.27625-4.12562.33029a31.49734,31.49734,0,0,1-4.39385-.1855l-.18719-.0152.01041-.16164a25.09692,25.09692,0,0,0-.07-3.68018l-.01824-.221.265-.0255c1.4146-.13637,2.8292-.17169,4.24374-.21333q2.1219-.0649,4.24374.07322l.39982.0262-.0131.36046C401.526,173.05755,401.34637,174.34267,401.21924,175.44652Zm-.06374-.06386c-.12713-1.34969-.30672-2.51786-.35473-3.64837l.38648.38666q-2.12181.13895-4.24374.07322c-1.41454-.04164-2.82914-.077-4.24374-.2131l.24654-.24678a25.11359,25.11359,0,0,0-.06994,3.68018l-.1766-.1766a27.60746,27.60746,0,0,1,4.09374-.1855C398.17425,175.10641,399.58564,175.21962,401.1555,175.38266Z"/><path d="M401.21924,185.72685c-1.2594.163-2.67716.27625-4.12562.33028a31.49581,31.49581,0,0,1-4.39385-.18549l-.18719-.0152.01041-.16164a25.09318,25.09318,0,0,0-.07-3.67995l-.01824-.22128.265-.0255c1.4146-.13637,2.8292-.17169,4.24374-.21333q2.1219-.06491,4.24374.07322l.39982.02619-.0131.3607C401.526,183.33787,401.34637,184.623,401.21924,185.72685Zm-.06374-.06386c-.12713-1.34969-.30672-2.51786-.35473-3.64814l.38648.38643q-2.12181.13894-4.24374.07321c-1.41454-.04163-2.82914-.07672-4.24374-.21309l.24654-.24655a25.10985,25.10985,0,0,0-.06994,3.67995l-.1766-.17661a27.6088,27.6088,0,0,1,4.09374-.18549C398.17425,185.38673,399.58564,185.5,401.1555,185.663Z"/><path d="M401.21924,196.00717c-1.2594.16328-2.67716.27626-4.12562.33029a31.49887,31.49887,0,0,1-4.39385-.18549l-.18719-.01521.01041-.16163a25.09318,25.09318,0,0,0-.07-3.68l-.01824-.22129.265-.02549c1.4146-.13637,2.8292-.1717,4.24374-.21333q2.1219-.06492,4.24374.07321l.39982.0262-.0131.3607C401.526,193.6182,401.34637,194.90333,401.21924,196.00717Zm-.06374-.06362c-.12713-1.34992-.30672-2.51809-.35473-3.64837l.38648.38643q-2.12181.13894-4.24374.07321c-1.41454-.04164-2.82914-.07672-4.24374-.2131l.24654-.24654a25.10985,25.10985,0,0,0-.06994,3.68l-.1766-.17661a27.64,27.64,0,0,1,4.09374-.18549C398.17425,195.6673,399.58564,195.78028,401.1555,195.94355Z"/><path d="M502.41143,165.15379l-23.05255.23158c-7.71452.061-15.432.16257-23.20185.16351l-11.64007.03134-11.655-.03181-23.281-.14971-.27906-.00163.00222-.27509.03012-3.65562.002-.24748.24467.0007c7.73323.02713,15.46646.12889,23.19969.09473,7.73322-.00865,15.46639-.14035,23.19962-.20724l11.59984-.04562,11.59979.04795,11.59984.08819q5.79992.04421,11.59984.16117l.10994.00187-.00222.10573Zm-.06362-.06362-.07579-3.62381.10748.1076q-5.79991.10877-11.59984.16093l-11.59984.08842-11.59979.048-11.59984-.04585c-7.73323-.06667-15.4664-.19836-23.19962-.207-7.73323-.03438-15.46646.06737-23.19969.0945l.24655-.24654.03011,3.65562-.27666-.27672,23.11834-.14971,11.5447-.03181,11.55955.03158c7.69668.00094,15.44558.10222,23.19752.16351Z"/><path d="M502.41143,175.43412l-23.05255.23158c-7.71452.06105-15.432.16257-23.20185.1635l-11.64007.03135-11.655-.03181-23.281-.14971-.27906-.00164.00222-.27508.03012-3.65562.002-.24772.24467.00094c7.73323.02713,15.46646.12888,23.19969.09473,7.73322-.00889,15.46639-.14035,23.19962-.20725l11.59984-.04584,11.59979.04818,11.59984.08819q5.79992.0442,11.59984.16093l.10994.00211-.00222.10573Zm-.06362-.06362-.07579-3.62381.10748.1076q-5.79991.10877-11.59984.16093l-11.59984.08842-11.59979.04795-11.59984-.04584c-7.73323-.0669-15.4664-.19836-23.19962-.20725-7.73323-.03415-15.46646.0676-23.19969.09473l.24655-.24654.03011,3.65562-.27666-.27672,23.11834-.14971,11.5447-.03181,11.55955.03158c7.69668.00093,15.44558.10222,23.19752.1635Z"/><path d="M502.41143,185.71445l-23.05255.23134c-7.71452.06129-15.432.16257-23.20185.16351l-11.64007.03158-11.655-.03182-23.281-.1497-.27906-.00187.00222-.27485.03012-3.65563.002-.24771.24467.00093c7.73323.02714,15.46646.12889,23.19969.09474,7.73322-.00889,15.46639-.14035,23.19962-.20725l11.59984-.04585,11.59979.048,11.59984.08842q5.79992.04421,11.59984.16093l.10994.0021-.00222.10573Zm-.06362-.06363L502.272,182.027l.10748.1076q-5.79991.10878-11.59984.16094l-11.59984.08818-11.59979.048-11.59984-.04562c-7.73323-.0669-15.4664-.19836-23.19962-.20725-7.73323-.03415-15.46646.06761-23.19969.09474l.24655-.24655.03011,3.65563-.27666-.27672,23.11834-.14971,11.5447-.03181,11.55955.03158c7.69668.00093,15.44558.10222,23.19752.1635Z"/><path d="M502.41143,195.99478l-23.05255.23134c-7.71452.06128-15.432.16257-23.20185.16351l-11.64007.03157-11.655-.03181-23.281-.1497-.27906-.00188.00222-.27508.03012-3.65539.002-.24771.24467.00093c7.73323.02714,15.46646.12889,23.19969.0945,7.73322-.00865,15.46639-.14035,23.19962-.207L467.58,191.9022l11.59979.048,11.59984.08842q5.79992.04422,11.59984.16094l.10994.0021-.00222.10573Zm-.06362-.06363-.07579-3.62381.10748.10737q-5.79991.10912-11.59984.16117l-11.59984.08818L467.58,192.712l-11.59984-.04561c-7.73323-.0669-15.4664-.19859-23.19962-.20725-7.73323-.03415-15.46646.0676-23.19969.09474l.24655-.24655.03011,3.65539-.27666-.27649,23.11834-.1497,11.5447-.03181,11.55955.03157c7.69668.00071,15.44558.10222,23.19752.16351Z"/></svg>