<svg id="Layer_1" data-name="Layer 1" xmlns="http://www.w3.org/2000/svg" viewBox="0 0 700 550"><title>stopping alarm clock</title><path d="M523.0966,435.22551s-54.168-13.1532-65.77421-8.51233c-11.60621,4.649-60.55822-15.47779-60.55822-15.47779-.85847-7.54847-1.50645-15.21044-1.95195-22.929,14.99175-4.7948,23.8604-10.74774,23.8604-17.18671V363.8628c0-6.56039-9.17633-12.60241-24.6379-17.43775,1.35251-77.13735,16.46587-147.99781,16.46587-147.99781s43.46059,2.57556,58.5253-19.21149a181.811,181.811,0,0,1-8.804,18.63642c-7.54037,14.117-9.28173,16.8303-9.28173,16.8303s-12.96693,4.44649-15.28331,11.21746c-1.83044,5.32933-5.45079,6.22834-8.32607,8.34223a6.76854,6.76854,0,0,0-2.82664,4.77859c-.14583,1.64413.41307,3.29641,3.60424,2.55124,5.80711-1.35256,6.77087-7.92916,8.318-5.80716,1.54689,2.13011,3.28825,5.224,0,9.67863-3.28835,4.44649-10.82882,5.79906-10.64255,8.51234.19438,2.70513,1.74146,5.99343,6.39043,3.2883,0,0-3.87147,5.99343,2.51066,9.47615,0,0,3.28835,5.80716,8.51233,2.51886,0,0,10.83692-10.83682,12.77256-13.93075s4.25212-.97192,4.05774,1.15819-3.28835,3.2883-3.28835,6.771v.10529a2.89525,2.89525,0,0,0,5.07826,1.75758c1.69281-1.92763,4.27643-5.58852,4.0173-9.792-.38885-6.18785-.38885-17.60779.96386-19.54353,1.36063-1.93574,29.40839-40.6907,29.40839-40.6907,5.80721,5.3536,9.09546,13.41238,9.09546,76.87011S523.0966,435.22551,523.0966,435.22551Z"/><path d="M389.26612,128.19816a20.43318,20.43318,0,0,0,5.31923,2.341,13.55163,13.55163,0,0,0,5.74168.23953,13.89259,13.89259,0,0,0,5.30144-2.20769,23.04413,23.04413,0,0,0,4.32439-3.83948,43.62968,43.62968,0,0,0,6.31173-9.74255,69.31568,69.31568,0,0,0,4.25842-10.83307l.06386-.21427.20444-.08a69.66411,69.66411,0,0,1,15.23254-4.18286,40.4045,40.4045,0,0,1,15.826.53473,31.31577,31.31577,0,0,1,13.91186,7.60738,45.12879,45.12879,0,0,1,9.28128,12.86392c.60513,1.17144,1.16326,2.36488,1.77518,3.48205a34.6567,34.6567,0,0,0,2.05541,3.25657,51.6895,51.6895,0,0,0,5.00484,5.94284,24.25722,24.25722,0,0,1,6.42869,14.543,12.20638,12.20638,0,0,1-.02527,2.10243,6.52532,6.52532,0,0,1-.68373,2.08605,15.2262,15.2262,0,0,1-2.425,3.32206,47.57235,47.57235,0,0,1-5.97722,5.27665,123.49916,123.49916,0,0,1-13.22789,8.653l.101-.06971a82.43926,82.43926,0,0,1-14.87723,9.62373l-1.97307,1.01191c-.65613.34058-1.35647.58666-2.03225.8842l-4.0893,1.71132c-2.80745.91929-5.57279,1.97284-8.452,2.64465a92.72348,92.72348,0,0,1-17.429,2.91411,88.64672,88.64672,0,0,1-17.66174-.42292l.211-.0407a1.49761,1.49761,0,0,1-.88981.11041,5.73463,5.73463,0,0,1-.73964-.13427c-.47649-.11509-.93519-.262-1.38969-.4173-.90736-.313-1.79132-.67087-2.66874-1.04139-1.753-.74619-3.472-1.55133-5.17794-2.39716l.41543-.29193.13334,1.55928.03321,1.56676a18.42887,18.42887,0,0,1-.30923,3.12557,12.65,12.65,0,0,1-.94362,3.01,7.64538,7.64538,0,0,1-1.883,2.59084l-.28327.23906-.12047-.37005a13.47244,13.47244,0,0,0-5.74121-7.19195,26.45128,26.45128,0,0,0-8.8083-3.34545,52.49873,52.49873,0,0,0-9.44923-1.00724,68.54722,68.54722,0,0,0-9.50022.44163l-.39368.04725.02059-.385a20.67157,20.67157,0,0,1,.40841-3.40721,17.99637,17.99637,0,0,1,1.00326-3.286,17.38566,17.38566,0,0,1,1.61168-3.039,14.13728,14.13728,0,0,1,2.22734-2.66242l-.13076.29708a134.37047,134.37047,0,0,1,.43695-17.88421c.13731-1.48676.298-2.96884.50713-4.45514.29941-1.5153.67671-2.94358,1.11133-4.38871a33.30788,33.30788,0,0,1,3.68931-8.23521,21.12322,21.12322,0,0,1,6.32833-6.49629,19.73608,19.73608,0,0,1,8.58819-2.98054,30.61644,30.61644,0,0,1,9.01672.50713c.0807.01076.16678.01965.20795.02058l.01216.00047a.314.314,0,0,0-.06292.00936l-.03322.01122-.08865.04071a.51425.51425,0,0,0-.16538.14455.38386.38386,0,0,0-.06526.124l.03836-.0655.08538-.12865a1.52766,1.52766,0,0,1,.29239-.30549,3.05679,3.05679,0,0,1,.24351-.20211c.31578-.24654.62642-.46128.94057-.67507.62642-.42573,1.258-.82666,1.89214-1.22431,1.269-.79391,2.54523-1.56069,3.83433-2.31951l-.265.79719a2.19533,2.19533,0,0,0-.96888-.62736,10.56282,10.56282,0,0,0-1.49823-.44678,25.07553,25.07553,0,0,0-3.19668-.49075l.39064-.08889a14.79034,14.79034,0,0,1-4.9225,1.9036,11.07,11.07,0,0,1-5.33327-.32982c-3.46778-1.10642-6.12857-3.6589-8.22749-6.36763a35.90736,35.90736,0,0,1-2.83341-4.31948,38.64764,38.64764,0,0,1-2.26149-4.64274,29.24123,29.24123,0,0,1-2.0374-10.1753l.06106.31953a20.34523,20.34523,0,0,1-1.08116-3.39458,17.20489,17.20489,0,0,1-.41988-3.55223,16.44131,16.44131,0,0,1,.33848-3.57095,13.35687,13.35687,0,0,1,1.17963-3.46474l.52795-1.02829.78712.9146a40.37327,40.37327,0,0,0,4.89795,4.76672,29.158,29.158,0,0,0,5.67664,3.71925,13.99733,13.99733,0,0,0,6.35313,1.54571,9.79673,9.79673,0,0,0,3.134-.61192,11.58917,11.58917,0,0,0,2.76931-1.64068l-.3104.5773a21.92839,21.92839,0,0,1,.67976-3.4713,11.72515,11.72515,0,0,1,1.46828-3.34451,4.75114,4.75114,0,0,1,1.46665-1.42922,3.3548,3.3548,0,0,1,2.17728-.43555,4.741,4.741,0,0,1,1.89915.72981,9.31676,9.31676,0,0,1,1.476,1.149,8.26065,8.26065,0,0,1,2.07576,3.11575,8.13594,8.13594,0,0,1,.42385,3.723,9.892,9.892,0,0,1-1.10992,3.51808,7.95634,7.95634,0,0,1-1.08069,1.55787,4.214,4.214,0,0,1-.7911.6966,2.16444,2.16444,0,0,1-.59157.29006,1.50277,1.50277,0,0,1-.96093-.00187l.94455-1.32677a42.23459,42.23459,0,0,1,4.7969,7.18072,41.64455,41.64455,0,0,1,3.22217,8.013,42.78834,42.78834,0,0,1,1.25239,17.12866l-1.018-.89543a29.73471,29.73471,0,0,0,8.0965-3.38241,30.81966,30.81966,0,0,0,6.72856-5.64156,33.257,33.257,0,0,0,4.93958-7.3061,41.7785,41.7785,0,0,0,3.08885-8.31942l.11883.59134q-7.97463-10.71495-16.80024-20.76557c-2.95131-3.33048-5.93185-6.65909-9.06889-9.78887a39.04,39.04,0,0,0-5.0142-4.28438,17.55646,17.55646,0,0,0-5.89185-2.69049,21.50086,21.50086,0,0,0-12.85924,1.15928,27.87,27.87,0,0,0-5.803,3.1368,42.34317,42.34317,0,0,0-5.27922,3.99854A24.17623,24.17623,0,0,0,360.15962,86.725a21.541,21.541,0,0,0-.72022,3.22616,23.46526,23.46526,0,0,0-.11954,3.30849,18.434,18.434,0,0,0,1.38174,6.4481l-.08234-.066,5.19011,1.29214-.0379.1572-5.21022-1.20747-.05895-.01357-.02362-.0524a18.7019,18.7019,0,0,1-1.51507-6.54073,23.83465,23.83465,0,0,1,.0676-3.374,21.96472,21.96472,0,0,1,.68187-3.30755,24.75025,24.75025,0,0,1,7.16785-11.28313,39.99661,39.99661,0,0,1,5.32344-4.13655,28.63623,28.63623,0,0,1,5.918-3.26217,22.37967,22.37967,0,0,1,13.37876-1.30946,18.69323,18.69323,0,0,1,3.25446,1.098,21.29886,21.29886,0,0,1,2.984,1.68278,40.05508,40.05508,0,0,1,5.18917,4.35316c3.20791,3.14662,6.21255,6.44576,9.20736,9.76641q8.94619,9.99,17.04632,20.701l.20046.26432-.0814.32748a43.20645,43.20645,0,0,1-3.12323,8.63661,34.76854,34.76854,0,0,1-5.09864,7.68036,30.2295,30.2295,0,0,1-15.5764,9.57274l-1.171.305.15275-1.20045a41.133,41.133,0,0,0-1.22665-16.4634,39.97254,39.97254,0,0,0-3.10382-7.68691,40.57448,40.57448,0,0,0-4.61631-6.88833l.94478-1.32723c-.24865-.05567-.1083.00374.03181-.1179a2.55686,2.55686,0,0,0,.472-.42478,6.31419,6.31419,0,0,0,.84023-1.22291,8.20229,8.20229,0,0,0,.91367-2.90616,6.29971,6.29971,0,0,0-1.99155-5.41466,4.98436,4.98436,0,0,0-2.4236-1.418,2.08073,2.08073,0,0,0-2.006,1.14338A14.94622,14.94622,0,0,0,390.46,93.0763l-.04936.37427-.26128.2035a13.25,13.25,0,0,1-3.23856,1.898,11.48092,11.48092,0,0,1-3.70193.712,15.64739,15.64739,0,0,1-7.11616-1.73706,30.76346,30.76346,0,0,1-5.992-3.95269,41.90519,41.90519,0,0,1-5.09911-5.00531l1.31507-.11369a12.01354,12.01354,0,0,0-1.01683,2.99739,14.85921,14.85921,0,0,0-.31836,3.23037,15.62929,15.62929,0,0,0,.371,3.235,18.76316,18.76316,0,0,0,.98127,3.12323l.05895.15111.00211.16936a27.83852,27.83852,0,0,0,1.89471,9.5877,38.64325,38.64325,0,0,0,4.85631,8.61836c1.98874,2.58617,4.45444,4.93935,7.48738,5.92507a11.10992,11.10992,0,0,0,9.15683-1.374l.18409-.10947.20678.02058a26.28938,26.28938,0,0,1,3.38078.54737,11.75722,11.75722,0,0,1,1.68629.52116,4.992,4.992,0,0,1,.85145.44257,2.203,2.203,0,0,1,.79929.8725l.25309.49824-.51812.29894c-1.28092.73964-2.56113,1.49472-3.82076,2.268-.629.38736-1.25683.77894-1.8636,1.18408-.30246.2021-.60514.40888-.87742.618a2.06625,2.06625,0,0,0-.18713.15158c-.04819.03883-.14643.13005-.10175.08608a.03192.03192,0,0,0,.00023-.01825l-.00444-.01029a1.07024,1.07024,0,0,1-.09053.14737.68939.68939,0,0,1-.19181.16748.42468.42468,0,0,1-.12.05333l-.06737.01825a1.07639,1.07639,0,0,1-.13146.02152l-.12725.0014a3.25392,3.25392,0,0,1-.34689-.03368,29.53572,29.53572,0,0,0-8.73275-.5759,18.648,18.648,0,0,0-8.14609,2.7485,20.11757,20.11757,0,0,0-6.075,6.14261,32.3858,32.3858,0,0,0-3.64837,7.97416c-.437,1.39787-.82058,2.85048-1.10923,4.25023-.2138,1.45823-.38268,2.93376-.52748,4.40789a133.58708,133.58708,0,0,0-.53777,17.7738l.00655.17356-.13754.124a13.51663,13.51663,0,0,0-2.10523,2.4968,16.66653,16.66653,0,0,0-1.56443,2.90944,17.3079,17.3079,0,0,0-.98384,3.15738,20.02834,20.02834,0,0,0-.4138,3.28838l-.37309-.33731a69.23862,69.23862,0,0,1,9.60314-.39157,53.04429,53.04429,0,0,1,9.54724,1.07507,26.95581,26.95581,0,0,1,8.96105,3.46709,14.08357,14.08357,0,0,1,5.97278,7.44551l-.4035-.13052a7.231,7.231,0,0,0,1.70641-2.39623,12.1016,12.1016,0,0,0,.88934-2.88557,17.84061,17.84061,0,0,0,.28608-3.02873l-.03906-1.52793-.13708-1.52466-.04655-.51836.46222.2269c1.69471.83087,3.41446,1.62758,5.15385,2.3588.8704.3635,1.74687.71344,2.63341,1.01472.443.14924.88911.28959,1.33449.39532a5.177,5.177,0,0,0,.6587.117,1.08778,1.08778,0,0,0,.505-.02714l.08842-.05754.123.01684a70.32575,70.32575,0,0,0,8.73626.57543c1.462.02012,2.92464-.03555,4.38637-.0538l4.37842-.26619a91.86893,91.86893,0,0,0,17.23368-3.07552c2.84043-.69473,5.56227-1.76606,8.32457-2.70172l4.01772-1.7319c.66362-.30082,1.3518-.55017,1.99506-.89309l1.93448-1.01893a82.7002,82.7002,0,0,0,14.55-9.6125l.055-.043.04631-.02667a122.29762,122.29762,0,0,0,13.03608-8.58936,46.32716,46.32716,0,0,0,5.77864-5.13069,13.89253,13.89253,0,0,0,2.19178-3.00768,5.08922,5.08922,0,0,0,.5359-1.628,11.03671,11.03671,0,0,0,.00936-1.82267,23.10426,23.10426,0,0,0-6.02963-13.69244,52.94485,52.94485,0,0,1-5.08391-6.09349,36.1636,36.1636,0,0,1-2.123-3.39551c-.64116-1.18454-1.18759-2.36909-1.78033-3.52743a43.83439,43.83439,0,0,0-8.9573-12.54018,30.07248,30.07248,0,0,0-13.34017-7.36692,39.289,39.289,0,0,0-15.37944-.6676,68.69852,68.69852,0,0,0-15.05968,3.97375l.26807-.29426a69.93638,69.93638,0,0,1-4.42684,10.936,44.29055,44.29055,0,0,1-6.57909,9.77811,23.55508,23.55508,0,0,1-4.4907,3.8493,14.30705,14.30705,0,0,1-5.49162,2.17635,13.86967,13.86967,0,0,1-5.87267-.34386,20.65615,20.65615,0,0,1-5.33841-2.45891Z"/><path d="M389.26612,128.19816a20.40623,20.40623,0,0,0,5.32976,2.30173,13.49647,13.49647,0,0,0,5.71711.19882,13.798,13.798,0,0,0,5.24905-2.23014,23.73245,23.73245,0,0,0,4.2886-3.82966,43.49118,43.49118,0,0,0,6.28436-9.715,72.02853,72.02853,0,0,0,4.22052-10.81529l.09053-.299.2828-.10994a69.82536,69.82536,0,0,1,15.27371-4.1721,40.14721,40.14721,0,0,1,15.87651.57169,31.39885,31.39885,0,0,1,13.90765,7.69439,44.42014,44.42014,0,0,1,9.1421,12.94907c.59087,1.17706,1.13425,2.37517,1.73681,3.50779a34.9816,34.9816,0,0,0,2.02781,3.30007,51.80367,51.80367,0,0,0,4.95151,6.02658,24.327,24.327,0,0,1,6.22776,14.36,11.84171,11.84171,0,0,1-.0269,2.01728,6.08812,6.08812,0,0,1-.64421,1.94337,14.8175,14.8175,0,0,1-2.3623,3.21586,50.386,50.386,0,0,1-5.91174,5.23268,123.157,123.157,0,0,1-13.13993,8.68152l.04538-.03135a83.17264,83.17264,0,0,1-14.70694,9.77765l-1.9574,1.03624c-.65122.34853-1.34665.60257-2.018.90853l-4.065,1.76184c-2.79294.95438-5.54776,2.04348-8.41953,2.75271a92.95148,92.95148,0,0,1-17.4262,3.14429l-4.428.27368c-1.479.01591-2.95832.06877-4.43806.04538a74.25058,74.25058,0,0,1-8.89392-.59181l.52444-.10058a1.90224,1.90224,0,0,1-1.17589.17824,6.2343,6.2343,0,0,1-.80186-.14081c-.50128-.11836-.971-.2662-1.43577-.42245-.92677-.31345-1.81986-.66994-2.7064-1.03859-1.7712-.74244-3.497-1.53916-5.22145-2.38219l1.17683-.82618.14479,1.59015.04281,1.60419a18.969,18.969,0,0,1-.30175,3.22428,13.20667,13.20667,0,0,1-.97075,3.15084,10.40248,10.40248,0,0,1-.83858,1.46992,6.24259,6.24259,0,0,1-1.21683,1.35717l-.93379.76771-.39321-1.19764a12.926,12.926,0,0,0-5.49747-6.86915,25.892,25.892,0,0,0-8.59918-3.30241,51.98431,51.98431,0,0,0-9.34584-1.03577,68.13317,68.13317,0,0,0-9.42326.39718l-.97425.11228.05707-.94174a21.0734,21.0734,0,0,1,.44795-3.48486,18.43393,18.43393,0,0,1,1.05659-3.35388,17.77735,17.77735,0,0,1,1.67553-3.09422,14.46988,14.46988,0,0,1,2.32021-2.72043l-.25825.58572a136.57783,136.57783,0,0,1,.403-15.79675c.11392-1.31226.23672-2.62359.39485-3.933l.25894-1.96255c.05287-.335.084-.63718.16281-1.00209l.23415-.97776a41.4684,41.4684,0,0,1,2.59739-7.52037,26.40358,26.40358,0,0,1,4.345-6.68014,18.90071,18.90071,0,0,1,6.44155-4.66754,20.54208,20.54208,0,0,1,7.73673-1.665,26.68678,26.68678,0,0,1,3.94919.19462c.654.07813,1.30431.17965,1.95108.29473l.96771.17965.4814.08561c.07953.01217.16046.02573.23789.03181.065.02293.19041-.02058.15415.0234l.15041.05988c-.16351.15017-.2262.0683-.31743.08561-.08608-.00468-.16725-.01637-.25-.0262l-.48888-.072-.97052-.15111c-.64677-.09591-1.29495-.17778-1.945-.23626a26.40711,26.40711,0,0,0-3.90357-.07859,20.03979,20.03979,0,0,0-7.49581,1.839,18.84391,18.84391,0,0,0-6.09208,4.64555,25.51707,25.51707,0,0,0-4.06614,6.53886,40.43756,40.43756,0,0,0-2.38149,7.37487l-.20561.93846c-.05684.276-.09006.62783-.13286.94081l-.21638,1.941c-.13684,1.29588-.2449,2.59645-.341,3.897a135.2294,135.2294,0,0,0-.20608,15.63908l.015.334-.27321.25216a13.25922,13.25922,0,0,0-2.01261,2.43833,16.26894,16.26894,0,0,0-1.50056,2.85517,16.87392,16.87392,0,0,0-.93052,3.08908,19.63249,19.63249,0,0,0-.37426,3.21072l-.917-.829a69.59708,69.59708,0,0,1,9.67987-.436,53.63263,53.63263,0,0,1,9.65063,1.04606,27.53006,27.53006,0,0,1,9.1704,3.5106,14.62864,14.62864,0,0,1,6.21652,7.76831l-1.32676-.42946a4.97908,4.97908,0,0,0,.83274-.94876,8.6614,8.6614,0,0,0,.701-1.21075,11.52818,11.52818,0,0,0,.86221-2.74522,17.31249,17.31249,0,0,0,.29356-2.93l-.02947-1.49051-.12561-1.49378-.124-1.47366,1.3008.64747c1.67647.83415,3.38967,1.63881,5.11058,2.37424.86127.36538,1.7284.71718,2.59575,1.01753.43274.14877.86783.28772,1.28841.39017a4.82106,4.82106,0,0,0,.59648.11088c.16491.04117.38783-.02761.21918.04023l.52467-.10105a87.55481,87.55481,0,0,0,17.403.40608A91.64245,91.64245,0,0,0,436.36817,184.13c2.84768-.6573,5.58028-1.6926,8.35685-2.59364l4.04228-1.68139c.66806-.29239,1.36092-.53332,2.00933-.86829l1.95015-.99507a81.94818,81.94818,0,0,0,14.72-9.45859l.0276-.02105.01825-.01029a122.647,122.647,0,0,0,13.124-8.56082,43.90572,43.90572,0,0,0,5.84413-5.17467,14.30908,14.30908,0,0,0,2.25448-3.1134,5.53144,5.53144,0,0,0,.57543-1.77121,11.37844,11.37844,0,0,0,.00772-1.90734,22.02949,22.02949,0,0,0-1.93167-7.46563,24.543,24.543,0,0,0-4.29889-6.41021,52.64052,52.64052,0,0,1-5.137-6.00974,35.81226,35.81226,0,0,1-2.15108-3.352c-.65028-1.16911-1.21145-2.349-1.81846-3.50171a53.99239,53.99239,0,0,0-4.01865-6.65067,39.79559,39.79559,0,0,0-5.07806-5.80436,29.98908,29.98908,0,0,0-13.34415-7.28037,39.5758,39.5758,0,0,0-15.32891-.63017,68.551,68.551,0,0,0-15.01875,3.98451l.3731-.40841a67.44417,67.44417,0,0,1-4.4645,10.9533,44.43745,44.43745,0,0,1-6.60646,9.80571,22.92245,22.92245,0,0,1-4.52649,3.85913,14.42032,14.42032,0,0,1-5.544,2.15436,13.9363,13.9363,0,0,1-5.89723-.385,20.663,20.663,0,0,1-5.32788-2.49821Z"/><path d="M365.62014,98.344c-3.22428-7.60957,0-13.28454,0-13.28454s13.54254,16.44441,23.98953,7.932c0,0,1.16071-11.60785,7.15824-6.77122,5.99733,4.83657.96732,12.57512-.58056,11.99476a41.12869,41.12869,0,0,1,6.8737,11.85368,41.65338,41.65338,0,0,1,2.23541,19.827,30.07789,30.07789,0,0,0,9.55915-4.29176c5.13006-3.53636,10.96169-9.85378,13.76677-20.978a322.55109,322.55109,0,0,0-21.47927-25.75566c-6.91423-7.45761-10.8907-11.022-16.88151-12.03906-7.33264-1.24479-13.47689,1.93831-16.12912,3.52495-21.66791,12.96208-13.54235,29.4065-13.54235,29.4065q2.6.62494,5.20026,1.24989"/><path d="M396.76783,100.27864c4.14949,0,4.15636-6.44879,0-6.44879-4.14949,0-4.15636,6.44879,0,6.44879Z" fill="#b21919"/><path d="M379.35608,155.09324a36.69852,36.69852,0,0,1,3.85492,6.94306,23.22626,23.22626,0,0,1,1.22314,3.81656,30.29938,30.29938,0,0,1,.44795,3.97561,26.1005,26.1005,0,0,0,1.6739,7.56341,9.40092,9.40092,0,0,0,4.81022,5.34028l-.67578,1.47179a9.53873,9.53873,0,0,1-3.30685-2.70593,13.04768,13.04768,0,0,1-1.96091-3.66825,27.08,27.08,0,0,1-1.34876-7.94656,29.70273,29.70273,0,0,0-.23672-3.91807,22.75383,22.75383,0,0,0-1.0042-3.78381A36.51172,36.51172,0,0,0,379.35608,155.09324Z"/><path d="M439.13632,130.73427c1.87272,3.85071,3.67457,7.73837,5.25771,11.728.39087.99881.76139,2.01167,1.08139,3.04089a17.858,17.858,0,0,0,1.01987,2.97353,11.86462,11.86462,0,0,0,2.01611,2.36675c.76256.74151,1.54688,1.46524,2.33073,2.1974a50.47369,50.47369,0,0,1,4.54333,4.6259,13.3307,13.3307,0,0,1,1.792,2.80745,16.24967,16.24967,0,0,1,1.05589,3.14381,9.86164,9.86164,0,0,0,.996,2.82055,3.33876,3.33876,0,0,0,2.20208,1.41986,20.85782,20.85782,0,0,0,6.14518.09871l.12678,1.61495a22.03967,22.03967,0,0,1-6.6364-.34385,4.71587,4.71587,0,0,1-2.95739-2.09775,10.87629,10.87629,0,0,1-1.0587-3.23317,12.65721,12.65721,0,0,0-2.46219-5.606,49.75636,49.75636,0,0,0-4.30894-4.66754c-.75719-.7532-1.523-1.50641-2.27179-2.28114a12.41346,12.41346,0,0,1-2.04792-2.57821,17.98837,17.98837,0,0,1-.97028-3.11855c-.28374-1.025-.6173-2.03506-.97519-3.04183C442.56481,138.58492,440.88624,134.64065,439.13632,130.73427Z"/><path d="M496.20829,195.07585a13.87532,13.87532,0,0,0,3.65282-5.46753,20.42878,20.42878,0,0,0,1.29051-6.39664,32.83265,32.83265,0,0,0-.3462-6.54774c-.21052-1.08022-.40865-2.16325-.64046-3.23879l-.84607-3.20276-.0145-.05521-.00281-.01169a37.78005,37.78005,0,0,0-1.59249-4.97865,40.05041,40.05041,0,0,0-2.28254-4.75081,31.42174,31.42174,0,0,0-2.97844-4.36485,27.49052,27.49052,0,0,0-3.7665-3.78194,22.13421,22.13421,0,0,1,4.29234,3.30148,25.351,25.351,0,0,1,3.45633,4.22684,32.15575,32.15575,0,0,1,2.62172,4.80508,30.46339,30.46339,0,0,1,1.80138,5.21209l-.01731-.0669.898,3.30382c.22783,1.12045.421,2.25073.62385,3.37632a29.66268,29.66268,0,0,1,.13286,6.88553,19.37238,19.37238,0,0,1-1.8498,6.63242,15.14973,15.14973,0,0,1-1.89307,2.87014A9.87623,9.87623,0,0,1,496.20829,195.07585Z"/><path d="M403.92417,187.614a33.35878,33.35878,0,0,1,3.74872,5.12882,32.98014,32.98014,0,0,1,2.83084,5.68647,33.00292,33.00292,0,0,1-3.74872-5.12835A33.35839,33.35839,0,0,1,403.92417,187.614Z"/><path d="M468.65826,168.222q1.02911,3.7382,1.996,7.49l.0262.10059-.03368.09918c-.58666,1.72489-1.13215,3.48252-1.79179,5.17466-.63952,1.70524-1.3546,3.37867-2.07436,5.04882q-2.17575,5.00485-4.61935,9.88525c-1.62033,3.26171-3.33352,6.44529-5.02239,9.66069-1.70992,3.22054-3.40276,6.36576-5.29911,9.57834l-.17122.29006-.38175.14409a44.99537,44.99537,0,0,0-9.46958,4.79151,17.878,17.878,0,0,0-3.83948,3.41376,8.63308,8.63308,0,0,0-1.251,2.0767,6.40225,6.40225,0,0,0-.262.61613l-.27625.67882a14.0775,14.0775,0,0,1-.68818,1.309,11.98837,11.98837,0,0,1-4.13819,4.11784,28.72143,28.72143,0,0,0-4.43643,2.89212,5.58342,5.58342,0,0,0-1.76793,4.33772,1.25018,1.25018,0,0,0,1.2463,1.22431,6.13418,6.13418,0,0,0,2.443-.35087,9.0886,9.0886,0,0,0,4.141-3.03341c.57917-.68257,1.06478-1.42454,1.7036-2.16184a2.45029,2.45029,0,0,1,.63321-.52818.94413.94413,0,0,1,1.06572.08046,2.62663,2.62663,0,0,1,.52186.61192c.13591.18807.26152.3869.39087.58152a8.94705,8.94705,0,0,1,1.16584,2.59739,6.42245,6.42245,0,0,1,.06409,2.87481,8.6405,8.6405,0,0,1-1.0304,2.65026A10.782,10.782,0,0,1,435.822,246.743a19.846,19.846,0,0,1-4.50988,3.26312l-2.38827,1.33a10.25109,10.25109,0,0,0-2.13635,1.48957,1.64456,1.64456,0,0,0-.512.90571,2.7199,2.7199,0,0,0,.03977.55766c.02573.21193.07205.421.11228.6297a4.24913,4.24913,0,0,0,1.07764,2.1333,2.26961,2.26961,0,0,0,2.04887.5642,6.97927,6.97927,0,0,0,2.29891-.92443l2.05237-1.18127-1.1946,2.08a7.88476,7.88476,0,0,0-.8711,2.38126,5.50681,5.50681,0,0,0,.06152,2.45,4.5433,4.5433,0,0,0,1.178,2.07015,6.618,6.618,0,0,0,.92724.8187c.34386.24093.72537.443,1.08256.66947l.20678.131.123.19368a8.0557,8.0557,0,0,0,1.462,1.67951,5.68806,5.68806,0,0,0,1.83647,1.09285,3.63207,3.63207,0,0,0,1.9988.13427,5.75834,5.75834,0,0,0,1.95436-.80935l-.17216.13754c3.47714-3.60837,6.96528-7.2537,10.23705-10.99868a28.9804,28.9804,0,0,0,2.22523-2.82195,5.13147,5.13147,0,0,1,1.71086-1.75529,2.73866,2.73866,0,0,1,3.03434.13146,3.77252,3.77252,0,0,1,1.45495,2.30453,4.02256,4.02256,0,0,1,.04819,1.34641,3.84566,3.84566,0,0,1-.41731,1.28513,10.2154,10.2154,0,0,1-1.24115,1.74547,9.90883,9.90883,0,0,0-.98548,1.36232,4.10728,4.10728,0,0,0-.49356,1.35671,4.69334,4.69334,0,0,0-.06456.71952,1.7935,1.7935,0,0,0,.08163.54035,1.614,1.614,0,0,0,1.63554,1.03717,1.50529,1.50529,0,0,0,.94642-.37707l.20327-.2021.28725-.33637c.18713-.22783.37239-.45707.54923-.69239a16.10163,16.10163,0,0,0,1.81167-2.97961,10.74441,10.74441,0,0,0,.95414-3.22147,9.63656,9.63656,0,0,0,.065-1.64162l-.087-1.90921c-.09661-2.54266-.11438-5.07829-.06924-7.62095a57.97707,57.97707,0,0,1,.54783-7.68832c.05076-.32607.10386-.65355.18667-.99413l.11321-.50526.17193-.53941a4.13213,4.13213,0,0,1,.571-1.12279l.5628-.75835,2.25073-3.03341,9.01462-12.12475,9.09952-12.06159c3.06382-3.9976,6.10542-8.01112,9.20572-11.98112l.19673.14269c-2.79669,4.189-5.65209,8.33485-8.485,12.4962l-8.591,12.41574-8.67614,12.353-2.17166,3.0858-.54292.77145a.86385.86385,0,0,0-.15509.28117.95259.95259,0,0,1-.05263.09871l-.051.18058-.1069.3621-.08093.41871c-.06082.27228-.10082.567-.13918.86362a66.80153,66.80153,0,0,0-.3897,7.373c-.01568,2.49026.03064,4.98988.15391,7.47593l.1062,1.861a11.32324,11.32324,0,0,1-.0648,2.12489,13.34621,13.34621,0,0,1-1.1801,3.98778,18.6623,18.6623,0,0,1-2.10617,3.45633c-.20187.26713-.41216.52724-.62478.785l-.32655.38082c-.12842.14128-.30923.313-.46666.46221a4.09993,4.09993,0,0,1-2.49494.99321,4.30665,4.30665,0,0,1-2.5609-.69052,3.9432,3.9432,0,0,1-1.63764-2.16137,4.45291,4.45291,0,0,1-.18572-1.31928,7.15908,7.15908,0,0,1,.11812-1.15648,6.62848,6.62848,0,0,1,.81824-2.16c.7525-1.28326,1.81962-2.21237,2.21681-2.981a1.43062,1.43062,0,0,0,.17824-.494,1.61014,1.61014,0,0,0-.00982-.52912,1.42949,1.42949,0,0,0-.47134-.83975c-.19976-.12164-.24187-.14175-.51438-.01216a2.93655,2.93655,0,0,0-.87812.93519,30.23347,30.23347,0,0,1-2.4802,3.076c-3.39129,3.80252-6.954,7.351-10.55611,10.8981l-.098.09637-.07462.04117a7.68041,7.68041,0,0,1-2.68487,1.02408,5.52368,5.52368,0,0,1-2.94148-.27509,7.2029,7.2029,0,0,1-2.41-1.51951,9.6144,9.6144,0,0,1-1.73635-2.16979l.32982.32467c-.42105-.28117-.85449-.5366-1.25846-.84443a8.241,8.241,0,0,1-1.12046-1.06619,6.08078,6.08078,0,0,1-1.43764-2.77984,6.936,6.936,0,0,1,.03018-3.07785,9.28745,9.28745,0,0,1,1.14291-2.79435l.858.8987a8.14253,8.14253,0,0,1-2.78429.99835,3.42622,3.42622,0,0,1-2.97938-.96046,5.26557,5.26557,0,0,1-1.294-2.70826c-.03929-.24-.08327-.47906-.10479-.72a3.41609,3.41609,0,0,1-.01567-.80467,2.56493,2.56493,0,0,1,.81753-1.42782,11.6235,11.6235,0,0,1,2.35552-1.60512l2.40722-1.30291a19.08714,19.08714,0,0,0,4.36532-3.0713,10.03239,10.03239,0,0,0,1.58922-2.09541,7.27972,7.27972,0,0,0,.95812-2.41681,6.49436,6.49436,0,0,0-1.16513-4.908c-.12445-.18386-.24374-.36959-.37661-.55017a2.07358,2.07358,0,0,0-.35391-.43087c-.11181-.06924-.08655-.05287-.21146-.00234a1.743,1.743,0,0,0-.39531.3621c-.54152.65356-1.0456,1.45167-1.62782,2.17541a10.458,10.458,0,0,1-4.4769,3.47083,7.15526,7.15526,0,0,1-2.91668.517,2.6761,2.6761,0,0,1-1.60372-.63672,2.639,2.639,0,0,1-.79134-1.56161,6.92574,6.92574,0,0,1,1.9574-5.5742,28.62616,28.62616,0,0,1,4.56766-3.27574,10.13514,10.13514,0,0,0,3.41165-3.6458,12.2709,12.2709,0,0,0,.54058-1.13262l.218-.59648c.0676-.18947.14806-.39766.25847-.64794a10.64587,10.64587,0,0,1,1.49753-2.62593,18.52121,18.52121,0,0,1,4.23783-3.905,43.03162,43.03162,0,0,1,10.013-5.04227l-.55275.43368c1.82665-3.00581,3.57305-6.24366,5.345-9.37812l5.24788-9.503q2.59857-4.75292,4.95128-9.63449c1.55974-3.25656,3.03715-6.55476,4.3307-9.90536l-.00725.19976q-.76911-3.79783-1.48676-7.60738Z"/><path d="M359.51682,183.37776q-4.65749,10.54373-8.26609,21.48743c-2.301,7.3061-4.31783,14.72728-4.84531,22.34917a200.1,200.1,0,0,1-2.91013,22.94472,42.6228,42.6228,0,0,1-3.57633,11.11,15.29269,15.29269,0,0,1-1.63857,2.5057,10.62524,10.62524,0,0,1-1.0697,1.09378c-.40163.33544-.82665.63157-1.19484.887a48.28915,48.28915,0,0,0-4.36882,3.664,96.846,96.846,0,0,0-7.93487,8.30164c-1.23366,1.46525-2.42359,2.96792-3.5389,4.52158a28.89619,28.89619,0,0,0-2.937,4.88648,5.1964,5.1964,0,0,0-.58339,2.64043,4.03457,4.03457,0,0,0,1.40536,2.21471,2.57027,2.57027,0,0,0,2.50827.109,8.43207,8.43207,0,0,0,2.34313-1.49425,26.55252,26.55252,0,0,0,3.8348-4.20579,34.63756,34.63756,0,0,1,3.86872-4.34193A26.16905,26.16905,0,0,1,335.254,278.503a15.16424,15.16424,0,0,1,5.54238-2.05,9.38526,9.38526,0,0,1,5.87852,1.09285,11.93571,11.93571,0,0,1,4.55479,3.89515,12.54135,12.54135,0,0,1,1.81729,5.7108,5.3869,5.3869,0,0,0,.27368,1.27764,12.5055,12.5055,0,0,0,.5242,1.25706,20.55587,20.55587,0,0,0,1.37963,2.41587,12.5441,12.5441,0,0,0,3.74077,3.86241,3.15941,3.15941,0,0,0,2.22968.45192,3.602,3.602,0,0,0,1.8898-1.34922l.2566-.20725c-.04421.01778.07064-.05193.112-.11321a1.87231,1.87231,0,0,0,.171-.21848,2.834,2.834,0,0,0,.26058-.57824,4.98266,4.98266,0,0,0,.1745-1.42407,11.26582,11.26582,0,0,0-.57122-3.09049,24.02741,24.02741,0,0,0-1.18408-3.04557,13.04224,13.04224,0,0,1-1.13074-3.38989,10.94693,10.94693,0,0,1,.364-5.41373c.19064-.596.4414-1.09753.66221-1.6477a11.573,11.573,0,0,0,.6311-6.18143,27.757,27.757,0,0,0-.56163-3.22569q-.18386-.8007-.41613-1.59016a15.04015,15.04015,0,0,1-.436-1.72161,11.2179,11.2179,0,0,1-.04795-3.63176,14.27972,14.27972,0,0,1,1.0187-3.403l4.92976-12.5776c3.33492-8.36621,6.61371-16.7544,9.99518-25.10282q5.01924-12.543,10.17624-25.03217l.15087.05848q-4.6273,12.69456-9.34934,25.35263c-3.12674,8.44714-6.35664,16.854-9.52993,25.28293l-4.83315,12.615a12.61943,12.61943,0,0,0-.91344,3.04978,9.5502,9.5502,0,0,0,.051,3.091c.17544.967.60491,2.09588.84537,3.22335a29.43369,29.43369,0,0,1,.60771,3.42217,19.82439,19.82439,0,0,1,.11485,3.52463,11.64465,11.64465,0,0,1-.25894,1.80442,8.708,8.708,0,0,1-.258.90759l-.349.84444c-.20187.49262-.45777,1.00162-.61169,1.47834a9.25757,9.25757,0,0,0-.34619,4.58848,11.34425,11.34425,0,0,0,.98034,3.003,25.68262,25.68262,0,0,1,1.23062,3.25656,12.77322,12.77322,0,0,1,.60842,3.53586,6.48508,6.48508,0,0,1-.26316,1.91108,4.31721,4.31721,0,0,1-.44561.95017,3.28831,3.28831,0,0,1-.35274.44163,2.09068,2.09068,0,0,1-.53707.422l.25637-.20725a5.09858,5.09858,0,0,1-2.76347,1.86477,4.649,4.649,0,0,1-3.29516-.63859,13.55648,13.55648,0,0,1-4.189-4.37608,21.91476,21.91476,0,0,1-1.43647-2.611,13.85073,13.85073,0,0,1-.56163-1.41191,6.80051,6.80051,0,0,1-.3097-1.53822,11.28263,11.28263,0,0,0-1.53659-5.2018,10.99954,10.99954,0,0,0-4.05024-3.59387,8.31654,8.31654,0,0,0-5.2315-1.10268,14.12444,14.12444,0,0,0-5.239,1.81378,25.406,25.406,0,0,0-4.56882,3.34826,33.70457,33.70457,0,0,0-3.88065,4.18053,27.13284,27.13284,0,0,1-3.95457,4.26754,8.94987,8.94987,0,0,1-2.50967,1.56676,3.09517,3.09517,0,0,1-2.99294-.18526,2.49475,2.49475,0,0,1-.57754-.5249,2.87065,2.87065,0,0,1-.44491-.62175,3.54455,3.54455,0,0,1-.3373-.67227,2.65854,2.65854,0,0,1-.24187-.7387,5.86343,5.86343,0,0,1,.60865-2.923,29.38577,29.38577,0,0,1,2.94031-5.01279c1.11063-1.58127,2.294-3.10639,3.52089-4.59456a112.28823,112.28823,0,0,1,7.80527-8.54164,48.90724,48.90724,0,0,1,4.36672-3.85492c.414-.30175.77122-.56794,1.09987-.85612a9.54263,9.54263,0,0,0,.91929-.989,14.18217,14.18217,0,0,0,1.45191-2.35037,30.13343,30.13343,0,0,0,1.95506-5.29116c.517-1.8236.9511-3.679,1.31577-5.55174.73543-3.745,1.24536-7.54235,1.70033-11.34721.47134-3.80439.8594-7.62329,1.22524-11.44733a72.8812,72.8812,0,0,1,1.90267-11.45482c.941-3.75246,2.09143-7.44083,3.36-11.08148a184.83646,184.83646,0,0,1,9.034-21.25024Z"/><path d="M431.93759,256.46683a22.66766,22.66766,0,0,0,4.232-1.73144,23.154,23.154,0,0,0,3.86661-2.56558,18.2743,18.2743,0,0,0,3.21937-3.374,17.7228,17.7228,0,0,0,2.26524-4.1286,17.94109,17.94109,0,0,1-1.92933,4.355,18.90318,18.90318,0,0,1-3.01376,3.75012,24.18012,24.18012,0,0,1-3.79527,3.01189,23.91358,23.91358,0,0,1-4.37679,2.23342Z"/><path d="M434.3413,265.9895a51.08541,51.08541,0,0,0,4.89818-2.52675,44.1845,44.1845,0,0,0,4.62029-3.05633,28.14411,28.14411,0,0,0,4.10754-3.71316,15.6856,15.6856,0,0,0,2.97025-4.67456,15.87926,15.87926,0,0,1-2.65867,4.9328,28.72533,28.72533,0,0,1-3.90708,4.08275,45.22127,45.22127,0,0,1-4.483,3.45539,52.389,52.389,0,0,1-4.85678,2.96511Z"/><path d="M325.69693,288.24932a22.2378,22.2378,0,0,0,1.25753,2.88043c.46993.86829,1.14454,1.67249,1.76535,1.687a3.66234,3.66234,0,0,0,2.19366-1.16349,16.17183,16.17183,0,0,0,2.13494-2.27085l.30994-.39672.22058.4028a4.422,4.422,0,0,0,1.63132,1.68653,2.46284,2.46284,0,0,0,2.16816.1628,4.52565,4.52565,0,0,0,1.7174-1.41144c.21965-.32795.47041-.61613.6821-.94829l.62011-1.01238.38011-.62081.68818.3766a4.24131,4.24131,0,0,0,1.32653.44771,2.5198,2.5198,0,0,0,1.2222-.10245,3.15967,3.15967,0,0,0,1.59834-2.00933,19.75807,19.75807,0,0,1,1.3787-3.21025,8.64069,8.64069,0,0,1,1.03554-1.46665,3.39681,3.39681,0,0,1,1.47881-1.04747l.04842.15439a6.2901,6.2901,0,0,0-1.58688,2.8037c-.35812,1.061-.56654,2.08325-.85987,3.243a4.50377,4.50377,0,0,1-.3097.90806,4.19278,4.19278,0,0,1-.48514.8856,4.01939,4.01939,0,0,1-.709.80747,3.81953,3.81953,0,0,1-.98759.55064,3.69516,3.69516,0,0,1-2.14055.101,5.715,5.715,0,0,1-1.84161-.78736l1.06782-.24421-.77707,1.06666a12.79513,12.79513,0,0,1-.912.9815,5.42086,5.42086,0,0,1-2.41167,1.31882,3.668,3.668,0,0,1-2.64838-.509,7.54239,7.54239,0,0,1-1.90851-1.80068l.53028.00655a18.09382,18.09382,0,0,1-1.74664,2.81633,5.2681,5.2681,0,0,1-1.31156,1.19858,2.86569,2.86569,0,0,1-1.98033.48281,2.63536,2.63536,0,0,1-1.734-1.08958,5.32984,5.32984,0,0,1-.81168-1.57752,9.21793,9.21793,0,0,1-.45426-3.27855Z"/><path d="M340.09767,277.05134a24.558,24.558,0,0,0-2.47833,2.69236,22.81707,22.81707,0,0,0-2.04137,3.00815,16.39792,16.39792,0,0,0-1.3911,3.30147,10.72826,10.72826,0,0,0-.3387,3.46569l-1.073.06315a11.65428,11.65428,0,0,1,.643-3.77164,17.03221,17.03221,0,0,1,1.70079-3.338,23.18418,23.18418,0,0,1,2.29658-2.90382A24.67426,24.67426,0,0,1,340.09767,277.05134Z"/><path d="M340.51614,288.31856a8.74173,8.74173,0,0,1,.68888-3.05493,19.22776,19.22776,0,0,1,1.29776-2.68956c.48514-.86268,1.0325-1.68372,1.5932-2.49026.57262-.79952,1.17449-1.57378,1.79085-2.33447-.54455.8145-1.07133,1.63788-1.56489,2.4795-.48093.84865-.945,1.70524-1.34057,2.58991a18.53072,18.53072,0,0,0-1.01168,2.69984,8.217,8.217,0,0,0-.38526,2.68348Z"/><polygon points="469.868 175.454 473.766 171.538 470.7 176.134 469.868 175.454"/><path d="M415.00332,418.11234a29.35072,29.35072,0,0,1-1.37379,4.18006,9.888,9.888,0,0,1-2.43224,3.80767c-1.273.88373-2.50617,1.57144-3.781,2.32137-1.26712.73122-2.53915,1.45168-3.82826,2.13892-5.14987,2.76254-10.35471,5.4039-15.71814,7.75475-1.3511.59414-2.72254,1.0849-4.02755,1.67717a36.71755,36.71755,0,0,0-3.83972,1.96161,14.2576,14.2576,0,0,0-3.34475,2.60207,3.79111,3.79111,0,0,0-.9284,1.76653,2.23462,2.23462,0,0,0,.51157,1.8264,7.92711,7.92711,0,0,0,3.52252,2.247,18.357,18.357,0,0,0,4.21281.8697,38.18373,38.18373,0,0,0,8.64433-.35462c5.737-.79344,11.24522-2.6816,16.93731-4.07714,2.835-.71671,5.68179-1.40583,8.598-1.91342a28.34535,28.34535,0,0,1,4.47784-.45988,10.7608,10.7608,0,0,1,2.36792.20819l.61426.16935.48327.14737c.32116.09122.66081.17122,1.00162.247a34.19728,34.19728,0,0,0,8.46983.66666,18.16841,18.16841,0,0,0,4.14263-.63625,7.31716,7.31716,0,0,0,3.44042-1.94149,4.49423,4.49423,0,0,0,.92209-1.6594,8.13725,8.13725,0,0,0,.23041-1.00723c.0683-.35134.14128-.70222.18877-1.05823a37.23306,37.23306,0,0,0,.43087-4.29843,56.00679,56.00679,0,0,0-.25894-8.69321l.15953-.02807a46.40086,46.40086,0,0,1,.91881,8.73766,38.20463,38.20463,0,0,1-.19976,4.42006c-.029.36911-.084.73589-.135,1.10361a9.1441,9.1441,0,0,1-.19672,1.135,5.43654,5.43654,0,0,1-1.09963,2.174,8.60638,8.60638,0,0,1-3.9817,2.46593,19.62226,19.62226,0,0,1-4.457.8435,33.55987,33.55987,0,0,1-8.93181-.5338c-.37239-.07438-.74315-.15953-1.12256-.26994-.17964-.04538-.4028-.13-.56163-.17356L424.62,446.358a9.12569,9.12569,0,0,0-1.978-.17076,31.79049,31.79049,0,0,0-4.217.39953c-2.83855.43882-5.67688,1.06806-8.50678,1.7277l-8.50094,2.03365a63.86161,63.86161,0,0,1-8.69157,1.44372,43.08994,43.08994,0,0,1-8.80737.02059,20.64527,20.64527,0,0,1-4.31971-.95157,8.67672,8.67672,0,0,1-3.7693-2.38593,2.85586,2.85586,0,0,1-.68023-2.24,4.515,4.515,0,0,1,.99391-2.10149,14.97117,14.97117,0,0,1,3.37633-2.94078,55.35141,55.35141,0,0,1,7.79521-4.10661q7.86165-3.75223,15.69406-7.63966c2.5747-1.31039,5.26566-2.5857,7.678-4.02521a10.25869,10.25869,0,0,0,2.44324-3.35995,38.65536,38.65536,0,0,0,1.71811-3.9948Z"/><path d="M474.20485,426.23574a19.40436,19.40436,0,0,1-.0945,4.31994,13.00182,13.00182,0,0,1-1.19531,4.21749,7.8485,7.8485,0,0,1-.56467.97309l-.32.46923-.37778.43087c-.50853.575-1.01028,1.02689-1.51343,1.54992l-3.01539,3.04136-12.04826,12.16358c-2.01307,2.01962-4.02451,4.043-5.955,6.13606-.9684,1.04372-1.91646,2.1057-2.8175,3.20136-.45122.54689-.87765,1.113-1.27741,1.6912a6.52084,6.52084,0,0,0-.96046,1.7946c-.13847.5235.34971,1.14384.81964,1.60512a10.3635,10.3635,0,0,0,1.64887,1.28466,26.50465,26.50465,0,0,0,3.75924,1.96582,42.11236,42.11236,0,0,0,8.09744,2.55342,26.4868,26.4868,0,0,0,4.16672.54268,11.94558,11.94558,0,0,0,2.04419-.06643,7.83345,7.83345,0,0,0,1.902-.52771,16.84288,16.84288,0,0,0,3.5644-2.04676,41.8152,41.8152,0,0,0,3.28276-2.63014c2.12114-1.85728,4.11059-3.88111,6.05535-5.95407.98923-1.04653,1.89659-2.06734,2.99926-3.14615a14.75657,14.75657,0,0,1,3.92767-2.28535c1.331-.57684,2.67271-1.08256,3.9141-1.66829a16.20831,16.20831,0,0,0,3.23644-2.399,23.277,23.277,0,0,0,5.133-6.48131,10.695,10.695,0,0,0,1.17075-3.85071l-.00983-.99414-.0835-1.076c-.04936-.72092-.08492-1.44232-.10035-2.16324a44.3944,44.3944,0,0,1,.65051-8.58749l.16023.02386a53.49079,53.49079,0,0,0,.00749,8.52246c.055.70642.12959,1.41.21707,2.11131l.14152,1.055.07556,1.14712a11.01988,11.01988,0,0,1-1.08607,4.3569,24.63262,24.63262,0,0,1-5.20742,7.07359,15.85729,15.85729,0,0,1-3.578,2.75411c-1.334.654-2.66218,1.17566-3.9438,1.75624a13.81644,13.81644,0,0,0-3.46475,1.98406c-.94057.91929-1.94126,2.02851-2.94031,3.03388-2.00442,2.05611-4.06521,4.07526-6.28109,5.94237a38.268,38.268,0,0,1-3.464,2.65073,18.15173,18.15173,0,0,1-3.92416,2.07389,9.10309,9.10309,0,0,1-2.23459.53239,12.8487,12.8487,0,0,1-2.23646-.0379,27.55092,27.55092,0,0,1-4.29351-.78127,48.20335,48.20335,0,0,1-8.12387-2.91645,30.90936,30.90936,0,0,1-3.803-2.05424,12.57957,12.57957,0,0,1-1.73027-1.34034,4.68452,4.68452,0,0,1-.72608-.86969,1.64675,1.64675,0,0,1-.2559-1.207,7.3562,7.3562,0,0,1,.98338-2.00372c.39017-.61286.81379-1.19671,1.24092-1.77588.85215-1.16116,1.74875-2.28348,2.665-3.38709,1.83015-2.2105,3.73024-4.35643,5.65957-6.47383,3.89422-4.20158,7.98633-8.20574,12.147-12.13223,1.03508-.98712,2.09354-1.94992,3.15154-2.91365.51251-.48093,1.09683-.96326,1.5574-1.43857l.34877-.35649.30386-.40187a6.96066,6.96066,0,0,0,.55438-.85145,18.09969,18.09969,0,0,0,1.879-8.13041Z"/><path d="M363.68542,103.632a11.24918,11.24918,0,0,1,4.62918-.98057,3.06456,3.06456,0,0,1,1.30407.34385,2.13492,2.13492,0,0,1,.87718,1.18923,9.7174,9.7174,0,0,1,.29918,2.43645c.00444.7883-.01965,1.564-.03345,2.327a8.33533,8.33533,0,0,0,.12444,2.1333c.03018.197.31883.41216.6173.5731a5.68424,5.68424,0,0,0,1.02245.39438,16.55045,16.55045,0,0,0,2.25166.49449,10.63811,10.63811,0,0,1-2.35739.022,5.97144,5.97144,0,0,1-1.19788-.26479,1.82944,1.82944,0,0,1-1.10852-.89168,7.30409,7.30409,0,0,1-.36982-2.45752l-.02269-2.31248a9.67624,9.67624,0,0,0-.19766-2.16418,1.18,1.18,0,0,0-.39929-.68069,2.699,2.699,0,0,0-.90292-.312A18.784,18.784,0,0,0,363.68542,103.632Z"/><path d="M377.87287,104.59933a1.61317,1.61317,0,0,0,0-3.2244,1.61317,1.61317,0,0,0,0,3.2244Z"/><path d="M367.68378,108.33963a1.61317,1.61317,0,0,0,0-3.2244,1.61317,1.61317,0,0,0,0,3.2244Z"/><path d="M373.75873,101.28952a4.96449,4.96449,0,0,1,1.49963-2.02991,8.13046,8.13046,0,0,1,2.18149-1.31273,9.334,9.334,0,0,1,2.45471-.59976,8.09742,8.09742,0,0,1,2.50031.11322c-.39859.15438-.79391.25309-1.18337.36537l-1.1525.34386c-.75555.2428-1.501.47438-2.21752.77332A15.47,15.47,0,0,0,373.75873,101.28952Z"/><path d="M375.55333,116.21377a3.51091,3.51091,0,0,1,1.407-1.44139,5.74241,5.74241,0,0,1,1.9064-.70361,6.59482,6.59482,0,0,1,2.0091-.02667,5.56007,5.56007,0,0,1,1.89377.61052c-.66876.11929-1.29542.16187-1.91248.22783-.61427.07813-1.21589.13053-1.80372.24655A12.98945,12.98945,0,0,0,375.55333,116.21377Z"/><path d="M268.4142,336.12282c-4.79151.47063-9.58653.85051-14.36471,1.403-4.77842.53379-9.5449,1.16911-14.30039,1.85073a276.80636,276.80636,0,0,0-28.23962,5.52975,138.50091,138.50091,0,0,0-13.70157,4.19878,57.94513,57.94513,0,0,0-12.67491,6.25909,18.426,18.426,0,0,0-4.85163,4.69374,8.13963,8.13963,0,0,0-1.17,2.90663,6.03739,6.03739,0,0,0,.30479,3.03341,12.611,12.611,0,0,0,4.05444,5.169,34.74151,34.74151,0,0,0,5.8839,3.78989,86.29744,86.29744,0,0,0,13.18438,5.431c4.54286,1.49471,9.17578,2.74429,13.84519,3.846,4.66965,1.10455,9.3814,2.04723,14.11326,2.88324,4.73584.814,9.49625,1.49051,14.26718,2.08325,9.53975,1.21682,19.13938,1.93775,28.746,2.38219q7.20481.35228,14.41945.40982c4.80812.05,9.61648.04257,14.42273-.06316a468.0952,468.0952,0,0,0,57.41886-4.494,241.765,241.765,0,0,0,28.14418-5.69629,128.46994,128.46994,0,0,0,13.56894-4.43737c4.36485-1.78383,8.70374-3.8624,12.15469-6.83874a10.56895,10.56895,0,0,0,3.60416-5.22612,5.5471,5.5471,0,0,0-.04772-2.95295,7.805,7.805,0,0,0-.54479-1.43717,12.58436,12.58436,0,0,0-.86712-1.34875,20.25934,20.25934,0,0,0-5.05958-4.4776,47.18232,47.18232,0,0,0-6.16085-3.38849c-8.61836-3.94849-17.94455-6.44155-27.28875-8.49954-9.3711-2.02523-18.85986-3.58124-28.39891-4.75408q-14.30858-1.77192-28.728-2.68488l.01076-.2428c19.24582.523,38.52883,2.08979,57.50494,5.82214,9.46116,1.93728,18.9029,4.28906,27.87495,8.23053a46.113,46.113,0,0,1,6.52178,3.48159,22.58436,22.58436,0,0,1,5.69442,5.04367,14.911,14.911,0,0,1,1.08326,1.68232,10.24661,10.24661,0,0,1,.74175,1.92606,8.57863,8.57863,0,0,1,.32,2.0795,9.26066,9.26066,0,0,1-.062,1.05683l-.05123.52724-.12772.50853a12.95541,12.95541,0,0,1-4.35924,6.53091c-3.8603,3.33609-8.35474,5.4591-12.85783,7.32855a113.47681,113.47681,0,0,1-13.86765,4.516,244.08371,244.08371,0,0,1-28.47938,5.51338,413.4595,413.4595,0,0,1-57.73138,3.56206,530.7153,530.7153,0,0,1-57.69816-3.22429c-4.7887-.53987-9.56431-1.19577-14.32916-1.9326-4.767-.72233-9.521-1.55273-14.24635-2.54874-4.72555-.9918-9.42491-2.14079-14.0625-3.54615a83.52042,83.52042,0,0,1-13.60216-5.26589,36.67921,36.67921,0,0,1-6.2612-3.97328,14.60452,14.60452,0,0,1-4.7445-6.05466,9.01366,9.01366,0,0,1-.47905-1.99763,9.99214,9.99214,0,0,1,.04655-2.07342,10.28308,10.28308,0,0,1,1.4622-3.759,19.68418,19.68418,0,0,1,5.46729-5.272,59.8857,59.8857,0,0,1,13.20427-6.38354,140.29833,140.29833,0,0,1,13.93642-4.13047,251.34959,251.34959,0,0,1,28.52335-4.98473c9.5732-1.18407,19.1981-1.83716,28.81949-2.23342Z"/><path d="M177.96251,363.86284v7.25694c0,15.88266,53.88442,28.76049,120.35509,28.76049,39.50012,0,74.54565-4.54369,96.49466-11.57385,14.99174-4.79476,23.86043-10.74773,23.86043-17.18664v-7.25694c0,6.49561-9.01448,12.48906-24.2249,17.30813-21.96521,6.95727-56.84875,11.45236-96.13019,11.45236C231.84693,392.62333,177.96251,379.7455,177.96251,363.86284Z"/><rect x="179.31647" y="373.3588" width="4.85982" height="84.00728"/><rect x="295.88564" y="399.88288" width="4.85982" height="84.00728"/><rect x="411.55658" y="378.30657" width="4.85982" height="84.00728"/><rect x="318.69328" y="399.36546" width="4.85982" height="31.99395"/><path d="M220.9601,358.46654l-18.37324,6.13185a.80993.80993,0,0,0-.24945,1.4008l22.31,17.84195a.8099.8099,0,0,0,.84056.105l21.92475-9.95024a.80993.80993,0,0,0,.05137-1.44952l-25.86154-14.02355A.80992.80992,0,0,0,220.9601,358.46654Zm-11.1457,7.18936,10.65279-3.33032a.81.81,0,0,1,.611.05224l19.29007,9.88529a.80992.80992,0,0,1-.06067,1.46958l-14.81911,6.10945a.80992.80992,0,0,1-.82869-.12783l-15.12374-12.66442A.80992.80992,0,0,1,209.8144,365.6559Z"/><path d="M231.18279,376.652a1.61316,1.61316,0,0,0,0-3.22439,1.61316,1.61316,0,0,0,0,3.22439Z"/><path d="M320.35993,338.26641a30.068,30.068,0,0,1-7.05254,19.5464,25.1229,25.1229,0,0,1-8.50865,6.478,24.50617,24.50617,0,0,1-10.49857,2.23763,24.84117,24.84117,0,0,1-10.39051-2.47575,27.88661,27.88661,0,0,1-8.44854-6.39383,29.96,29.96,0,0,1-5.51969-9.00152,30.8081,30.8081,0,0,1-2.06359-10.391,28.64642,28.64642,0,0,1,7.228-19.71762,26.89414,26.89414,0,0,1,8.64128-6.42705,24.86151,24.86151,0,0,1,21.076.06643,25.71013,25.71013,0,0,1,8.50258,6.515A30.07122,30.07122,0,0,1,320.35993,338.26641Zm-.16211,0a27.20319,27.20319,0,0,0-7.65907-18.84372,25.29335,25.29335,0,0,0-18.23858-7.88387,24.70546,24.70546,0,0,0-18.0697,8.03826,28.56036,28.56036,0,0,0-7.46563,18.68933,27.16658,27.16658,0,0,0,7.11031,19.014,24.41779,24.41779,0,0,0,18.425,7.90586A25.938,25.938,0,0,0,312.557,357.127a27.14942,27.14942,0,0,0,7.64083-18.86057Z"/><path d="M314.036,337.92116a23.20542,23.20542,0,0,1-5.25631,14.89523,18.80617,18.80617,0,0,1-6.45675,4.99128,18.055,18.055,0,0,1-8.02281,1.70992,18.90247,18.90247,0,0,1-7.91475-1.94758,21.18713,21.18713,0,0,1-6.38331-4.91876,23.18221,23.18221,0,0,1-5.80038-14.73009,21.761,21.761,0,0,1,5.43127-15.066,20.54942,20.54942,0,0,1,6.58938-4.94075,18.885,18.885,0,0,1,16.12867.05848,19.154,19.154,0,0,1,6.44693,5.03619A23.20635,23.20635,0,0,1,314.036,337.92116Zm-.16211,0a20.3284,20.3284,0,0,0-5.864-14.194,19.22311,19.22311,0,0,0-13.70975-5.86425,18.55131,18.55131,0,0,0-13.54087,6.01816,21.68521,21.68521,0,0,0-5.67057,14.04005,21.184,21.184,0,0,0,1.23858,7.69814,19.76416,19.76416,0,0,0,4.0631,6.67827,18.3616,18.3616,0,0,0,13.90976,5.87173,19.83837,19.83837,0,0,0,13.728-6.03734A20.335,20.335,0,0,0,313.87393,337.92116Z"/><path d="M265.34945,326.49488a.70225.70225,0,0,1-.182-.14924l-.10736-.12023-.214-.24234-.404-.50291c-.24888-.349-.51578-.69052-.74572-1.05543a11.30454,11.30454,0,0,1-.67812-1.10548,12.86746,12.86746,0,0,1-.59882-1.15648,16.33952,16.33952,0,0,1-1.46267-5.047,12.58959,12.58959,0,0,1,.62058-5.30565,11.01641,11.01641,0,0,1,1.27787-2.35506c.26456-.35742.49473-.73917.786-1.069l.91648-.94736a13.44273,13.44273,0,0,1,4.26169-2.96183,9.41953,9.41953,0,0,1,5.14871-.64607,12.79767,12.79767,0,0,1,4.89162,1.92325,17.99487,17.99487,0,0,1,3.96814,3.49375l.47906.57122-.61169.50245c-1.52022,1.24864-2.99224,2.581-4.49865,3.85726l-4.47082,3.88813c-1.48981,1.29776-2.92862,2.64277-4.36251,3.99574-.72.67648-1.38829,1.39413-2.07085,2.10757l-.9766,1.10782Zm-.01357-.1614c.24514-.48046.38643-.90385.62105-1.30431l.80326-1.28139c.58011-.821,1.1918-1.622,1.83155-2.39529a55.87445,55.87445,0,0,1,4.06919-4.42333c1.429-1.39928,2.88253-2.7733,4.40859-4.06076,1.50829-1.3118,3.086-2.52628,4.67222-3.75481l-.13286,1.07367a19.77865,19.77865,0,0,0-3.4589-3.42077,11.638,11.638,0,0,0-4.32205-2.22593,7.30587,7.30587,0,0,0-4.814.39157,9.65709,9.65709,0,0,0-3.80416,3.098l-.74923.97636c-.23391.33356-.40186.7097-.60514,1.0587a14.78712,14.78712,0,0,0-.95343,2.204,14.36181,14.36181,0,0,0-.57146,4.73163A24.072,24.072,0,0,0,265.33588,326.33348Z"/><path d="M263.67726,309.19669s-5.27643-2.23183-3.72051-4.26651,3.47092.23937,5.38591,2.274"/><path d="M319.38427,318.73873a24.07023,24.07023,0,0,0,.03041-9.80431,14.35875,14.35875,0,0,0-1.981-4.33492,14.80294,14.80294,0,0,0-1.57752-1.811c-.29965-.2704-.57379-.57777-.89823-.82431l-1.01-.70315a9.6544,9.6544,0,0,0-4.56508-1.79647,7.30383,7.30383,0,0,0-4.70567,1.08771,11.64634,11.64634,0,0,0-3.44253,3.4334,19.78125,19.78125,0,0,0-2.257,4.30918l-.45239-.98244c1.88418.68865,3.7562,1.36747,5.5915,2.159,1.84489.7635,3.6472,1.63133,5.43338,2.5305a55.93043,55.93043,0,0,1,5.22,2.9796c.8442.54222,1.67016,1.12,2.472,1.72583l1.1546.9773C318.7417,317.99488,319.00486,318.35557,319.38427,318.73873Zm.03626.15766-1.29028-.86549-1.26665-.75929c-.86689-.47251-1.72161-.95344-2.61283-1.37916-1.77728-.85379-3.55644-1.69869-5.36975-2.48277l-5.44039-2.34757c-1.82267-.75836-3.6299-1.58127-5.45724-2.30921l-.73519-.29333.2828-.68958a17.993,17.993,0,0,1,2.7202-4.53374,12.80806,12.80806,0,0,1,4.0769-3.31738,9.41878,9.41878,0,0,1,5.10192-.94736,13.439,13.439,0,0,1,4.95946,1.52793l1.16092.62456c.37778.226.713.51975,1.07344.77987a11.02822,11.02822,0,0,1,1.93284,1.85635,12.58849,12.58849,0,0,1,2.20184,4.86683,16.34207,16.34207,0,0,1,.13848,5.2528,12.802,12.802,0,0,1-.21942,1.28325,11.34738,11.34738,0,0,1-.31063,1.2594c-.10807.41731-.25871.82385-.39017,1.2318l-.23205.60209-.13052.29567-.06573.14737A.69427.69427,0,0,1,319.42053,318.89639Z"/><path d="M315.76217,301.90735s4.34985-3.72837,2.24965-5.19465-3.23443,1.28181-4.44133,3.80182"/><polyline points="288.806 311.295 287.724 305.888 284.133 305.888 283.535 301.459 294.3 299.903 294.311 303.814 291.445 304.455 292.033 310.675"/><path d="M275.99128,357.83953s-2.39023,7.89155-1.55242,9.44747,3.79033.47459,6.26373-5.50767"/><path d="M311.99835,357.9244s6.66685,4.85209,8.41174,4.57246.41126-4.73286-4.42512-9.03572"/><path d="M249.06523,341.91362a24.76951,24.76951,0,0,1,.84911,3.68228c.109.56982.20561,1.12935.35789,1.67063a7.76666,7.76666,0,0,0,.70806,1.70851,2.65258,2.65258,0,0,1-1.82641-1.119,4.46209,4.46209,0,0,1-.83227-1.96769,5.63117,5.63117,0,0,1-.00374-2.05331A4.604,4.604,0,0,1,249.06523,341.91362Z"/><path d="M253.80154,336.767c.28093,2.21751.33449,4.297.61285,6.33348a22.00043,22.00043,0,0,0,.56327,2.98616,13.02052,13.02052,0,0,0,1.21753,2.88838,5.50377,5.50377,0,0,1-2.3864-2.40745,9.158,9.158,0,0,1-1.00092-3.26265,11.97848,11.97848,0,0,1,.04046-3.34779A10.04153,10.04153,0,0,1,253.80154,336.767Z"/><path d="M259.837,332.9369a35.4064,35.4064,0,0,0,.56818,8.74841,21.71816,21.71816,0,0,0,1.21893,4.12159,38.51,38.51,0,0,0,1.92325,4.006,11.5882,11.5882,0,0,1-3.05633-3.446,14.36238,14.36238,0,0,1-1.03461-2.102,18.93475,18.93475,0,0,1-.63765-2.25681,15.51565,15.51565,0,0,1-.2269-4.64555A12.433,12.433,0,0,1,259.837,332.9369Z"/><path d="M336.87549,329.641a4.60432,4.60432,0,0,1,1.3663,1.54384,5.62988,5.62988,0,0,1,.70736,1.92793,4.456,4.456,0,0,1-.09988,2.13377,2.652,2.652,0,0,1-1.32583,1.68232,7.75484,7.75484,0,0,0,.07274-1.84793c-.04444-.56046-.14736-1.11905-.24233-1.69121A24.75944,24.75944,0,0,1,336.87549,329.641Z"/><path d="M330.45874,326.92575a10.04494,10.04494,0,0,1,1.99857,2.66289,11.97658,11.97658,0,0,1,1.19694,3.127,9.15268,9.15268,0,0,1,.19041,3.40721,5.5041,5.5041,0,0,1-1.4056,3.08487,13.001,13.001,0,0,0,.14246-3.13166,21.97279,21.97279,0,0,0-.50526-2.99645C331.63229,331.07306,330.96282,329.1035,330.45874,326.92575Z"/><path d="M324.75379,324.94823a12.43171,12.43171,0,0,1,2.70031,3.72112,15.52143,15.52143,0,0,1,1.3953,4.4369,18.90978,18.90978,0,0,1,.18292,2.33775,14.36685,14.36685,0,0,1-.243,2.33026,11.58419,11.58419,0,0,1-1.6746,4.29093,38.39532,38.39532,0,0,0,.41754-4.42426,21.71413,21.71413,0,0,0-.28281-4.28813A35.41259,35.41259,0,0,0,324.75379,324.94823Z"/><path d="M303.283,342.18542a.8199.8199,0,0,1-.26479-.04491l-8.98327-3.10919a.80835.80835,0,0,1-.53988-.67649l-1.4222-12.86906a.80956.80956,0,1,1,1.60933-.17778l1.36607,12.36007,8.49953,2.94171a.81013.81013,0,0,1-.26479,1.57565Z"/><path d="M244.99581,317.01852a9.95605,9.95605,0,0,1,3.53024-.96327,9.83654,9.83654,0,0,1,3.65095.24515,9.84482,9.84482,0,0,1-3.53.96326A9.95683,9.95683,0,0,1,244.99581,317.01852Z"/><path d="M247.74875,301.10014a8.15514,8.15514,0,0,1,3.156.98057,8.06466,8.06466,0,0,1,2.589,2.05377,8.07094,8.07094,0,0,1-3.156-.9801A8.15622,8.15622,0,0,1,247.74875,301.10014Z"/><path d="M254.82749,286.37893a9.09414,9.09414,0,0,1,3.06428,1.68092,8.98931,8.98931,0,0,1,2.3043,2.6278,8.99914,8.99914,0,0,1-3.06429-1.68092A9.1072,9.1072,0,0,1,254.82749,286.37893Z"/><path d="M271.32691,277.40221a9.75849,9.75849,0,0,1,2.374,2.73681,9.645,9.645,0,0,1,1.33636,3.36744,9.65285,9.65285,0,0,1-2.374-2.73681A9.76978,9.76978,0,0,1,271.32691,277.40221Z"/><path d="M291.31471,274.52974a6.86336,6.86336,0,0,1,.607,2.9623,6.78911,6.78911,0,0,1-.607,2.9623,6.78568,6.78568,0,0,1-.607-2.9623A6.86336,6.86336,0,0,1,291.31471,274.52974Z"/><path d="M306.99356,283.50646a7.56511,7.56511,0,0,1,1.16349-2.959,7.48022,7.48022,0,0,1,2.18781-2.30733,7.48071,7.48071,0,0,1-1.16349,2.959A7.56654,7.56654,0,0,1,306.99356,283.50646Z"/><path d="M322.79241,286.37893a8.29724,8.29724,0,0,1-1.63834,2.90289,8.20566,8.20566,0,0,1-2.56932,2.124,8.20106,8.20106,0,0,1,1.63834-2.90336A8.288,8.288,0,0,1,322.79241,286.37893Z"/><path d="M333.22759,304.93026a8.76359,8.76359,0,0,1-3.2968.93847,8.659,8.659,0,0,1-3.41726-.26947,8.65938,8.65938,0,0,1,3.2968-.93847A8.75452,8.75452,0,0,1,333.22759,304.93026Z"/><path d="M369.71294,100.44361a1.31833,1.31833,0,0,0,0-2.63508,1.31833,1.31833,0,0,0,0,2.63508Z" fill="#b21919"/><path d="M364.93944,251.84233a14.47507,14.47507,0,0,1,3.13446.42759,7.161,7.161,0,0,1,1.55881.56748,3.41824,3.41824,0,0,1,.77472.52912,1.62214,1.62214,0,0,1,.55157,1.10267,1.683,1.683,0,0,1-.455,1.19157,3.37854,3.37854,0,0,1-.74525.632,8.50028,8.50028,0,0,1-1.53542.73777,14.87312,14.87312,0,0,1-3.11388.77192c-2.09541.30222-4.19549.24935-6.26588.34994-2.07272.08421-4.13725.25543-6.21652.39531a43.46571,43.46571,0,0,1-6.25956.06269,35.745,35.745,0,0,1-6.26565-.82572,14.59522,14.59522,0,0,1-3.098-1.106,3.88648,3.88648,0,0,1-1.51086-1.26314,1.59738,1.59738,0,0,1-.1511-1.39694,2.03975,2.03975,0,0,1,.72-.9001,5.4091,5.4091,0,0,1,1.57354-.757,11.394,11.394,0,0,1,1.56559-.38736,20.85268,20.85268,0,0,1,3.134-.31392l.029.1731c-.9911.31812-1.97354.63531-2.91879,1.00537a8.42121,8.42121,0,0,0-2.49517,1.3408c-.131.12771-.22619.27227-.20912.313.0145.03977.01053-.00842.06971.07486a2.69069,2.69069,0,0,0,.93519.57917,15.77627,15.77627,0,0,0,2.78289.81356c1.94851.42432,3.95924.76162,5.984,1.00443,2.02781.218,4.06708.43742,6.12015.62128a33.22371,33.22371,0,0,0,6.16927-.00188,41.67445,41.67445,0,0,0,6.02284-1.21589c.97987-.24748,1.95179-.502,2.87482-.80232a7.12869,7.12869,0,0,0,1.279-.545,1.45345,1.45345,0,0,0,.61918-.51133c.06713-.02948-.19322-.42433-.57192-.65964a9.02147,9.02147,0,0,0-1.26361-.69847c-.9097-.41918-1.88255-.764-2.857-1.13683Z"/><path d="M367.46525,245.35119a8.482,8.482,0,0,1,1.51928.34526,3.38258,3.38258,0,0,1,1.46407.86829,1.35474,1.35474,0,0,1,.33918,1.09706,1.80622,1.80622,0,0,1-.52514.94923,4.90293,4.90293,0,0,1-1.42945.96466,14.9328,14.9328,0,0,1-2.99365,1.00677,20.16213,20.16213,0,0,1-3.04908.49309c-2.04722.1731-4.09515.05381-6.11992.08842-2.0264.01825-4.04672.14082-6.082.23252a40.36881,40.36881,0,0,1-6.12249-.09872,27.27848,27.27848,0,0,1-6.12436-1.11437,10.82208,10.82208,0,0,1-1.52208-.65777,3.34459,3.34459,0,0,1-1.49355-1.37308,1.62967,1.62967,0,0,1,.01848-1.45495,2.36768,2.36768,0,0,1,.74876-.83928,5.92391,5.92391,0,0,1,1.55437-.73356,20.24864,20.24864,0,0,1,6.13605-.79812l.02363.1745a39.32244,39.32244,0,0,0-5.64273,1.90688,4.70876,4.70876,0,0,0-1.10876.68724c-.12772.11836-.23625.24935-.23017.29473-.00468.05754.00257-.04023.02222-.00093a2.62567,2.62567,0,0,0,.79812.5366,9.03394,9.03394,0,0,0,1.28138.47812,41.00937,41.00937,0,0,0,5.73583,1.25331c1.96933.27556,3.95457.54409,5.95478.778a33.28012,33.28012,0,0,0,6.028.15953,49.652,49.652,0,0,0,5.94261-.967,43.77672,43.77672,0,0,0,5.70963-1.30384,4.80981,4.80981,0,0,0,1.16069-.57637.92017.92017,0,0,0,.27789-.30315.30971.30971,0,0,0-.03649-.31906,3.08491,3.08491,0,0,0-.97987-.87344c-.41122-.262-.85519-.50058-1.30782-.73309Z"/></svg>