<svg id="Layer_1" data-name="Layer 1" xmlns="http://www.w3.org/2000/svg" viewBox="0 0 700 550"><title>working- conference meeting</title><path d="M277.70705,367.53074a.31331.31331,0,0,1-.314-.31347v-29.7168a.314.314,0,0,1,.62793,0v29.7168A.31331.31331,0,0,1,277.70705,367.53074Z"/><path d="M308.99807,313.93479a18.84441,18.84441,0,0,1-2.37354,3.20289c-.866,1.01074-1.81543,1.9392-2.74829,2.886-1.92383,1.83008-3.89941,3.61133-5.97729,5.26734a105.02655,105.02655,0,0,1-13.13819,9.01782,79.18872,79.18872,0,0,1-14.50146,6.668,54.76864,54.76864,0,0,1-7.75562,2.01977c-1.33252.15991-2.6604.42066-3.99829.49488-1.33911.03833-2.67993.0996-4.01929.11694a74.836,74.836,0,0,1-15.82617-2.24194,131.44739,131.44739,0,0,1-15.24267-4.6836c-4.98584-1.833-9.8816-3.89282-14.75293-5.97363-1.21827-.51367-2.4397-1.03784-3.66675-1.48584-.60059-.21094-1.2478-.43066-1.89063-.69629-.2976-.17407-.60962-.32593-.89331-.51978a8.53978,8.53978,0,0,1-.79858-.65258,8.736,8.736,0,0,1-2.12036-3.4502,13.56334,13.56334,0,0,1-.71192-3.97168l.00342.03906a513.85453,513.85453,0,0,0-12.27783-51.88769c-2.42749-8.55164-5.13892-17.01892-7.92481-25.45679q-4.18651-12.65534-8.92578-25.11645c-1.59424-4.14624-3.1914-8.29139-4.86572-12.40454-.8103-2.06311-1.7605-4.06812-2.46167-6.25171a30.909,30.909,0,0,1-1.354-6.66236,24.14138,24.14138,0,0,1-.09717-3.45251,5.9942,5.9942,0,0,1,4.62671-5.23511,20.86567,20.86567,0,0,1,3.37915-.557,16.99519,16.99519,0,0,1,6.79053.93042l6.33862,2.08,25.35522,8.32031a21.399,21.399,0,0,1,3.16675,1.186,11.19354,11.19354,0,0,1,2.78076,1.98474,10.42374,10.42374,0,0,1,3.07617,5.97705l1.88135,13.21228a.06275.06275,0,0,1-.124.01917l-2.21484-13.15613a10.14228,10.14228,0,0,0-3.03663-5.61792,10.56419,10.56419,0,0,0-2.65234-1.83948,20.81934,20.81934,0,0,0-3.08887-1.10559L181.49221,186.963l-6.36646-1.99377a15.78525,15.78525,0,0,0-6.34741-.7887,21.98537,21.98537,0,0,0-3.19189.55249,4.72723,4.72723,0,0,0-3.63819,4.13294,23.69661,23.69661,0,0,0,.10571,3.20862,29.62022,29.62022,0,0,0,1.3125,6.38293c.66114,2.054,1.62085,4.08,2.4419,6.15259q2.52868,6.184,4.87183,12.43908,9.3706,25.01788,16.418,50.81287c2.34693,8.58557,4.53638,17.21436,6.47754,25.89917,2.04932,8.66065,3.73194,17.40015,5.44214,26.13233l.00269.02246.00073.01684a10.41079,10.41079,0,0,0,2.73193,7.06348,8.03461,8.03461,0,0,0,.74219.59839c.262.17846.55444.30932.8291.46728.58423.22779,1.19654.42822,1.84986.64307,1.269.43872,2.4934.94067,3.72485,1.43481,4.91113,1.99829,9.82373,3.96631,14.81714,5.71a152.55129,152.55129,0,0,0,15.189,4.4751,79.19592,79.19592,0,0,0,15.60181,2.18335c1.30884-.00928,2.61719-.06128,3.92651-.08887,1.30591-.06347,2.59156-.31079,3.88941-.45581a53.76635,53.76635,0,0,0,7.623-1.9331,84.44576,84.44576,0,0,0,14.406-6.44019,107.907,107.907,0,0,0,13.20288-8.73486c2.11133-1.59131,4.12293-3.30908,6.087-5.07861.952-.91553,1.923-1.815,2.80932-2.79468a18.71208,18.71208,0,0,0,2.43506-3.105l.004-.00635a.06262.06262,0,0,1,.10767.064Z"/><path d="M165.82717,189.24253l9.61743,3.37549,9.59351,3.439,9.582,3.4707,9.56494,3.51575a.52477.52477,0,0,1,.32959.37011l.00195.00916q2.86926,12.27393,5.51441,24.59888c1.77954,8.21289,3.48584,16.4425,5.335,24.63965,3.64111,16.40722,7.6184,32.73815,11.46118,49.09973a32.74532,32.74532,0,0,0,4.9353,11.27954,28.02646,28.02646,0,0,0,8.96216,8.31323,24.39474,24.39474,0,0,0,11.71387,3.188,59.907,59.907,0,0,0,6.21167-.36377c2.07714-.22315,4.15332-.45581,6.2102-.79761a67.17632,67.17632,0,0,0,12.10327-3.01929,83.96073,83.96073,0,0,0,11.39771-5.16821c3.6969-1.96631,7.30676-4.11133,10.883-6.31055,3.594-2.17211,7.15442-4.40454,10.71827-6.63061a.06281.06281,0,0,1,.0686.10522c-6.9679,4.697-13.90173,9.45948-21.246,13.60938a80.4178,80.4178,0,0,1-11.44715,5.42383,65.42583,65.42583,0,0,1-12.27465,3.23559c-2.08789.35376-4.18726.59595-6.28663.82837a61.04525,61.04525,0,0,1-6.3623.39014,25.12107,25.12107,0,0,1-12.34326-3.35547,31.11167,31.11167,0,0,1-14.27759-20.49341c-3.594-16.418-7.05347-32.86633-10.84912-49.23852-1.86914-8.19263-3.8811-16.35279-5.82007-24.52954q-2.91944-12.26277-5.64087-24.5702l.33155.37891-9.53248-3.60339-9.51562-3.64844-9.50366-3.68018-9.48023-3.74377a.06282.06282,0,0,1,.04395-.11768Z"/><path d="M276.9116,140.78781c-2.63431-1.59964-3.29869-6.41933-1.26754-9.64528,2.5614-4.0681,5.42414,3.31476,5.42414,3.31476,4.67079,6.93084,14.163-11.60164,14.163-11.60164s-7.53353-9.49225-24.71-3.16408-5.42414,27.87406-5.42414,27.87406-17.92981,8.43755-11.903,30.88747c0,0,16.022-3.72832,15.06706-30.46842,0,0,6.70484-2.64144,8.6504-7.19687"/><path d="M278.78933,141.26573a3.8018,3.8018,0,0,1-2.82325-.40454.31651.31651,0,0,1,.32886-.5409.37555.37555,0,0,1,.063.05042A3.49188,3.49188,0,0,0,278.78933,141.26573Z"/><path d="M294.74257,123.82493a21.72992,21.72992,0,0,1,2.38025,5.25269,15.11262,15.11262,0,0,1,.66187,5.80456l-.12036-.356c.573.60217,1.13171,1.21789,1.68347,1.84033l1.65344,1.90185a1.76861,1.76861,0,0,1-.428,2.5343,6.91154,6.91154,0,0,1-1.08459.681,1.55642,1.55642,0,0,1-1.3335.15148l.21851-.13171a42.41077,42.41077,0,0,1-.85047,8.07068,9.53032,9.53032,0,0,1-1.72192,3.82349,3.33134,3.33134,0,0,1-1.98145,1.18481,3.80986,3.80986,0,0,1-1.17773-.04749l-.96692-.16638a10.76071,10.76071,0,0,0-3.80676.00122,7.01086,7.01086,0,0,0-3.31421,1.69776,19.34756,19.34756,0,0,0-4.11646,6.69372.05037.05037,0,0,1-.06494.02869.05149.05149,0,0,1-.03-.05994,21.69966,21.69966,0,0,1,1.33643-3.83447,11.83854,11.83854,0,0,1,2.283-3.445,7.47232,7.47232,0,0,1,3.68066-2.0896,10.63576,10.63576,0,0,1,4.20154-.04064l1.01318.206a2.81206,2.81206,0,0,0,.825.0647,2.36515,2.36515,0,0,0,1.415-.81629,9.42683,9.42683,0,0,0,1.697-3.40307,30.2204,30.2204,0,0,0,1.27832-7.87281.15261.15261,0,0,1,.15808-.14685.1652.1652,0,0,1,.06067.015,1.28673,1.28673,0,0,0,1.05236-.17261,5.65,5.65,0,0,0,.9928-.69067,1.277,1.277,0,0,0,.20825-1.86792l-1.774-1.72083c-.594-.58215-1.18116-1.1709-1.75391-1.77331a.44534.44534,0,0,1-.12183-.339l.00135-.01721a15.5249,15.5249,0,0,0-.007-2.76124,22.84881,22.84881,0,0,0-.459-2.76306,33.55838,33.55838,0,0,0-1.77551-5.38794.05015.05015,0,0,1,.02368-.06689A.05253.05253,0,0,1,294.74257,123.82493Z"/><path d="M292.02944,131.21788a3.25178,3.25178,0,0,1,2.12927-.95716,3.76948,3.76948,0,0,1,2.27783.50513c-.79272.06067-1.50561.05542-2.22363.12A17.49181,17.49181,0,0,0,292.02944,131.21788Z"/><path d="M293.95054,135.09764a.94226.94226,0,0,0,0-1.88339.94226.94226,0,0,0,0,1.88339Z"/><path d="M281.74611,145.90831c.87818,1.06726,1.67749,2.1466,2.53174,3.182a22.88177,22.88177,0,0,0,2.77954,2.92005,7.97944,7.97944,0,0,1-3.26465-2.522A11.98915,11.98915,0,0,1,281.74611,145.90831Z"/><path d="M217.28444,212.563c.62354-2.89649,1.38111-5.70874,2.199-8.53284.82788-2.81384,1.69262-5.62134,2.6936-8.38269a128.31819,128.31819,0,0,1,6.96094-16.20886,79.92329,79.92329,0,0,1,4.53906-7.61182,50.40577,50.40577,0,0,1,5.55029-6.97241,30.50435,30.50435,0,0,1,7.03248-5.61719,19.93637,19.93637,0,0,1,8.70971-2.63073l.0083-.00037a.84765.84765,0,0,1,.156.0072c2.96728.43262,5.907.94336,8.84228,1.52222,2.93457.57239,5.86158,1.19165,8.77076,1.91052a48.20353,48.20353,0,0,1,8.60205,2.78125c1.37426.68176,2.62085,1.40283,3.97485,2.04822l4.0354,1.93066a34.54649,34.54649,0,0,1,3.94592,2.19324,11.56747,11.56747,0,0,1,3.31116,3.14026c1.73657,2.37414,3.77612,4.58057,5.72766,6.82007q5.92218,6.69085,12.07385,13.18152a.47046.47046,0,0,1,.06751.55468l-.004.00684c-1.52075,2.67883-3.16186,5.25952-4.88574,7.80066-1.72681,2.536-3.55982,5.00513-5.52673,7.37683a57.08336,57.08336,0,0,1-6.46705,6.65051,23.36466,23.36466,0,0,1-8.14941,4.801l.402-.23865c-2.17945,2.21558-4.40869,4.343-6.759,6.38306-1.17773,1.01574-2.38281,2.00634-3.67187,2.92932a20.00283,20.00283,0,0,1-2.041,1.30408,5.48829,5.48829,0,0,1-2.70947.83044l1.05542-1.22693c.49951,2.19165,1.0188,4.3877,1.563,6.56787l.84058,3.25586c.14184.53967.29174,1.07593.448,1.59985a13.17577,13.17577,0,0,0,.49219,1.431l.02271.05065a1.04621,1.04621,0,0,1-.52906,1.382,1.0735,1.0735,0,0,1-.32861.08618c-6.99976.65723-13.98828,1.106-21.00562,1.35071a165.62407,165.62407,0,0,1-21.08032-.48364c-1.75683-.18311-3.51343-.40454-5.26245-.74109a25.12391,25.12391,0,0,1-5.189-1.475,9.57806,9.57806,0,0,1-2.42969-1.443,4.70923,4.70923,0,0,1-.98193-1.16638c-.25074-.44275-.38892-.82959-.58814-1.24683a34.22547,34.22547,0,0,1-1.72607-5.04614,75.439,75.439,0,0,1-1.89185-10.3772C217.6736,219.56663,217.40358,216.09275,217.28444,212.563Zm.199.0188a108.62094,108.62094,0,0,0,3.54419,20.55444,33.04377,33.04377,0,0,0,1.82007,4.81482c.18823.36536.37011.79822.5625,1.10779a3.39726,3.39726,0,0,0,.729.80444,8.27093,8.27093,0,0,0,2.10742,1.14942,38.8123,38.8123,0,0,0,10.05664,1.88171,184.32786,184.32786,0,0,0,20.8562.12671c6.96216-.272,13.93848-.75025,20.86353-1.43006l-.835,1.51868a13.69757,13.69757,0,0,1-.63135-1.76172c-.16895-.55725-.325-1.10827-.47266-1.65991-.3042-1.10181-.56567-2.2063-.83129-3.30945-.52515-2.208-1.021-4.41321-1.50074-6.63073a1.01421,1.01421,0,0,1,.77686-1.20606,1.06547,1.06547,0,0,1,.27856-.021,4.06481,4.06481,0,0,0,1.62769-.57067,18.12924,18.12924,0,0,0,1.85156-1.15686c1.219-.8523,2.40137-1.80042,3.56006-2.7782,2.31226-1.96167,4.55517-4.05518,6.70764-6.1958l.00708-.00708a.93135.93135,0,0,1,.39526-.23182,22.14977,22.14977,0,0,0,7.58057-4.32116,56.77284,56.77284,0,0,0,6.41162-6.33826c1.99756-2.26977,3.87879-4.6532,5.66016-7.11145,1.77991-2.45605,3.48132-4.9895,5.03979-7.58118l.06348.56116c-3.95959-4.46228-7.93384-8.90613-11.86267-13.39563-1.95-2.26452-3.91223-4.4895-5.75134-6.88745-1.67054-2.39575-4.42188-3.744-7.064-5.02759-2.67615-1.25219-5.45007-2.48181-8.0946-3.79236a47.4465,47.4465,0,0,0-8.47168-2.4375c-5.79785-1.25341-11.70093-2.09668-17.56885-2.96276l.16382.00683a18.20568,18.20568,0,0,0-7.93238,2.49024,31.77415,31.77415,0,0,0-6.66381,5.272,48.7418,48.7418,0,0,0-5.45362,6.68762,78.36122,78.36122,0,0,0-4.541,7.41235A134.27412,134.27412,0,0,0,223.137,196.0056C221.00319,201.43223,219.09938,206.989,217.48342,212.58177Z"/><path d="M289.20437,218.45616c-.71375-1.62525-1.38428-3.26355-2.06275-4.89783-.68091-1.63293-1.322-3.281-2.02808-4.90088-.65576-1.64075-1.35961-3.261-2.09057-4.865q-.53064-1.21215-1.15625-2.37488a10.60151,10.60151,0,0,0-.65479-1.14294,6.21357,6.21357,0,0,0-.37329-.54212l-.44848-.48693a13.627,13.627,0,0,1,3.06689,4.33483c.82813,1.57569,1.53149,3.20752,2.23535,4.83606.66065,1.6471,1.3125,3.29651,1.89844,4.97034C288.17678,215.06028,288.73452,216.74388,289.20437,218.45616Z"/><path d="M279.26027,249.73387a.31527.31527,0,0,1-.28418-.18067l-3.10644-6.59375a.3141.3141,0,1,1,.56836-.26757l3.10644,6.59375a.31479.31479,0,0,1-.28418.44824Z"/><path d="M222.878,239.70066l3.7919,13.95585C224.686,246.65667,223.27973,241.25129,222.878,239.70066Z"/><path d="M356.77957,327.39513c-2.12,3.73-1.14,11.3999-1.58,14.01a25.444,25.444,0,0,1-4.1101,10.29c-.57-4.39013-1.24-8.77-1.92994-13.15014-.68994-4.36988-1.47-8.73-2.18994-13.09986-.81006-4.35009-1.57007-8.72-2.42-13.06005l-1.28992-6.52c-.47009-2.16993-.90014-4.34009-1.40014-6.5.28,2.2.6101,4.38989.92,6.59008l1.01,6.56006c.69006,4.37989,1.46008,8.73975,2.19006,13.09986.80994,4.3601,1.57,8.72,2.41992,13.07006.8501,4.33985,1.71,8.69,2.69,13.01-4.74,6.95-12.72,11.33985-21.61988,14.68995a126.32679,126.32679,0,0,1-20.53,5.76c-5.12-44.98,2.87-76.62012,2.87-76.62012s-.91-1.12988-4.07-1.12988c-3.17,0-11.98,5.2-11.98,5.2-33.45019,20.34008-43.8501,9.04-51.76.45-5.19018-5.63989-12.74-30.13989-17.3-46.26,30.74,11.3,47.81006-4.36987,51.01-4.36987,1.01,0,5.96-.52,12.86-1.18018a8.44225,8.44225,0,0,1,2.4,6.31006c2.86,4.06006,6.33-2.72,4.82-5.12988a7.19633,7.19633,0,0,1-.77991-1.77c1.36988-.12012,2.78992-.25,4.24-.37012,2.40991,3.3,5.2,8.18017,7.68994,10.58008,4.37,4.22,5.13-2.56006,5.13-2.56006,5.42,3.91992,5.42-3.01,5.42-3.01,4.82,2.86011,3.15991-4.05,3.15991-4.05a2.36683,2.36683,0,0,0,.74-2.36987,144.97333,144.97333,0,0,1,18.47.26c18.76,1.8999,36.62011,56.62988,36.62011,56.62988C379.15957,312.4752,364.45962,313.83507,356.77957,327.39513Z"/><path d="M249.46926,342.73021c.69946,4.36254,1.13061,8.74584,1.58545,13.12719.42285,4.384.624,8.78516.897,13.18067l.83447,13.18554.772,13.19019a.06282.06282,0,0,1-.12524.00976l-1.27246-13.15136-1.21021-13.1565c-.4082-4.385-.88842-8.7644-1.14721-13.16113-.22656-4.39917-.477-8.79639-.459-13.2146a.063.063,0,0,1,.12525-.00976Z"/><path d="M263.20119,342.38157c.44141,4.41309.61353,8.83106.80982,13.24854.16381,4.41821.10546,8.84033.11914,13.26147l.05664,13.26245-.00635,13.26368a.06276.06276,0,0,1-.12549.00219l-.49585-13.25439-.4331-13.25537c-.14942-4.41846-.3711-8.8357-.37037-13.25684.03272-4.42187.04175-8.843.32007-13.26953a.063.063,0,0,1,.12549-.0022Z"/><ellipse cx="258.64933" cy="393.45437" rx="30.96281" ry="12.54333"/><path d="M274.74,229.53038a4.86508,4.86508,0,0,1-2.21558.86206,3.52381,3.52381,0,0,1-1.23291-.04578,1.111,1.111,0,0,1-.9209-.81628,1.30428,1.30428,0,0,0,.98853.33105,9.18164,9.18164,0,0,0,1.08569-.09143A21.939,21.939,0,0,1,274.74,229.53038Z"/><path d="M288.52517,219.12071c3.30529,2.14233,6.60046,4.30127,9.93408,6.37671.83581.51294,1.67468,1.02466,2.52539,1.49646.42175.24743.85473.45666,1.27612.67944.20093.0835.4375.20691.60755.26a1.8709,1.8709,0,0,1,.22314.06653c.16711.03125.337.07043.50269.11682a20.65715,20.65715,0,0,1,2.71814,1.3894q1.28758.75221,2.53649,1.55469a72.188,72.188,0,0,1,9.50928,7.12036,22.98757,22.98757,0,0,1,3.99768,4.4939l.38184.67956.30676.66639a10.79427,10.79427,0,0,1,.58618,1.41565,3.203,3.203,0,0,1,.06592,1.62109,2.64125,2.64125,0,0,1-.85889,1.384l.0824-.267a13.25636,13.25636,0,0,1,.23792,1.93652,5.18585,5.18585,0,0,1-.23487,1.97265,1.48671,1.48671,0,0,1-.24646.46961l-.16394.21887-.22973.16626a1.10813,1.10813,0,0,1-.51282.20545,1.27446,1.27446,0,0,1-.53088.016,3.57877,3.57877,0,0,1-.97986-.25721l-.87049-.452.29712-.16907a8.85872,8.85872,0,0,1-.33947,2.17432,3.37932,3.37932,0,0,1-1.22168,1.87634,2.55779,2.55779,0,0,1-2.24549.19214,9.659,9.659,0,0,1-1.02112-.45032l-.93127-.58777.3728-.16528a7.04863,7.04863,0,0,1-1.14734,3.31641,2.19013,2.19013,0,0,1-1.66418.91137l-.49573-.03845c-.15478-.038-.30041-.09839-.45105-.14856a3.62052,3.62052,0,0,1-.81775-.42236,12.70345,12.70345,0,0,1-2.53576-2.40857c-.73633-.88294-1.42542-1.79541-2.0824-2.72547-1.31653-1.85717-2.55115-3.75964-3.8645-5.57849a25.35581,25.35581,0,0,0-2.06653-2.58813,5.27574,5.27574,0,0,0-1.16162-.9668,1.04508,1.04508,0,0,0-.51416-.1687.50041.50041,0,0,0-.34449.14465l.19092-.35559a8.17139,8.17139,0,0,0,.40906,3.56726,6.44485,6.44485,0,0,0,.363.81641c.06958.13074.144.259.22265.3833.09131.17688.18494.38159.26917.57483a4.86828,4.86828,0,0,1,.12781,2.27527,6.73762,6.73762,0,0,1-2.01624,3.823,2.67883,2.67883,0,0,1-2.40893.65759,3.61975,3.61975,0,0,1-1.88013-1.46863.52351.52351,0,0,1-.12146-.35913l.00342-.07629a8.16536,8.16536,0,0,0-1.00977-4.29456,7.43536,7.43536,0,0,0-.62549-.91846c-.24-.30346-.46838-.51855-.78528-.86767a8.57093,8.57093,0,0,1-1.45642-2.15283,14.29187,14.29187,0,0,1-1.207-4.88416,28.64711,28.64711,0,0,1,.042-4.93457l.02808.18189a6.09751,6.09751,0,0,0-2.15918-2.33228,10.976,10.976,0,0,0-3.05493-1.39832,18.65408,18.65408,0,0,0-3.34912-.6925c-.57154-.04358-1.144-.10278-1.71851-.13391l-1.729-.04236a.06314.06314,0,0,1-.06519-.06055.0669.0669,0,0,1,.05982-.06494l1.73852-.08276c.58032-.00464,1.16162.02283,1.74439.033a19.11187,19.11187,0,0,1,3.46924.50976,11.431,11.431,0,0,1,3.2871,1.3385,8.18094,8.18094,0,0,1,1.4358,1.1045,5.21,5.21,0,0,1,1.1372,1.51257.29859.29859,0,0,1,.02979.1394l-.00147.043a32.45876,32.45876,0,0,0,.11548,4.77942,13.24624,13.24624,0,0,0,1.22107,4.47888,7.39377,7.39377,0,0,0,1.30408,1.82556c.23047.24781.59973.5857.868.913a7.68,7.68,0,0,1,.7627,1.07336,9.38772,9.38772,0,0,1,1.23339,5.03809l-.11779-.43518c.35449.41772.73925.86963,1.14038.92846a1.35005,1.35005,0,0,0,1.20215-.38232,5.47617,5.47617,0,0,0,1.56713-3.02356,3.79639,3.79639,0,0,0-.05334-1.615l-.13941-.32q-.14154-.23161-.26452-.47131a7.74767,7.74767,0,0,1-.42163-.98633,9.35161,9.35161,0,0,1-.411-4.193.55634.55634,0,0,1,.17468-.3407l.01636-.01514a1.74218,1.74218,0,0,1,1.19555-.45666,2.21853,2.21853,0,0,1,1.08582.33557,6.36215,6.36215,0,0,1,1.4303,1.208,26.37153,26.37153,0,0,1,2.13134,2.7456c1.29065,1.88684,2.4729,3.81653,3.72864,5.68665.62927.93286,1.25989,1.86267,1.94385,2.74365a12.03263,12.03263,0,0,0,2.27649,2.34839,2.88438,2.88438,0,0,0,.67017.38037c.11608.04212.23181.09815.34838.13257l.35.03772a1.56859,1.56859,0,0,0,1.21228-.6344,6.58438,6.58438,0,0,0,1.13574-3.00146.24346.24346,0,0,1,.27893-.20179.25832.25832,0,0,1,.09412.03638l.87817.57153a9.49483,9.49483,0,0,0,.93579.42737,2.12885,2.12885,0,0,0,1.87635-.1178,2.99233,2.99233,0,0,0,1.07946-1.64441,7.12131,7.12131,0,0,0,.31934-2.05859.198.198,0,0,1,.28528-.17529l.012.0061.82666.41248a3.19442,3.19442,0,0,0,.85608.21118,1.09279,1.09279,0,0,0,1.22314-.81348,4.75948,4.75948,0,0,0,.17444-1.78674,10.11259,10.11259,0,0,0-.28332-1.83325.27319.27319,0,0,1,.0824-.26734,2.17732,2.17732,0,0,0,.51831-2.4032,10.18065,10.18065,0,0,0-.60047-1.28479l-.33862-.66125L321.68,243.094a22.27733,22.27733,0,0,0-4.0061-4.13793,103.09522,103.09522,0,0,0-9.40332-7.00525,38.37574,38.37574,0,0,0-4.98291-2.91663,1.13271,1.13271,0,0,1-.21082-.07288c-.13891-.03076-.33191-.06909-.49231-.11547-.29553-.10083-.49389-.21827-.74475-.32776-.4469-.23987-.8866-.48792-1.306-.75232-.85181-.51709-1.67395-1.064-2.49548-1.61316-3.27991-2.20056-6.45935-4.52857-9.58582-6.92957a.0628.0628,0,0,1,.07276-.10229Z"/><path d="M302.61416,241.58409a81.69007,81.69007,0,0,1,6.21533,6.44641,77.21068,77.21068,0,0,1,5.49829,7.09277.314.314,0,0,1-.5177.35535l-.00769-.01172a76.72236,76.72236,0,0,0-5.2135-7.23474A81.53257,81.53257,0,0,0,302.61416,241.58409Z"/><path d="M308.94228,240.228a159.16842,159.16842,0,0,1,10.795,11.86145.314.314,0,0,1-.48718.39624l-.009-.01172A158.8858,158.8858,0,0,0,308.94228,240.228Z"/><path d="M313.46242,239.24864q2.41992,2.11926,4.80029,4.28528l2.35938,2.1925c.776.74744,1.55017,1.48254,2.27686,2.3169a.31407.31407,0,0,1-.47364.41259l-.00915-.011-.00855-.01087c-.64294-.81579-1.38708-1.59924-2.11841-2.37463l-2.24365-2.29883Q315.77761,241.48258,313.46242,239.24864Z"/><path d="M294.82973,215.63414a21.0429,21.0429,0,0,0,2.68836,2.77575q1.444,1.30958,2.92773,2.5774l5.98486,5.016c3.99842,3.33422,8.0857,6.56958,12.12574,9.84851l.05627.05078.01282.01294a28.51526,28.51526,0,0,0,5.94751,4.74292,24.12627,24.12627,0,0,0,7.03393,2.73718,25.3917,25.3917,0,0,0,14.89514-1.254c2.31482-.94592,4.65369-2.29761,7.03821-3.37744,2.3689-1.14539,4.796-2.17078,7.23291-3.16162,2.4524-.9574,4.93506-1.83545,7.4552-2.59973a41.29,41.29,0,0,1,7.74927-1.671.24012.24012,0,0,1,.09387.01013l.01148.00378a23.677,23.677,0,0,0,7.1311,1.20569,15.17026,15.17026,0,0,0,6.95374-1.52942,26.02728,26.02728,0,0,0,3.08044-1.94348,6.48048,6.48048,0,0,1,3.85889-.56409,20.94709,20.94709,0,0,1,3.69323.73243,4.77214,4.77214,0,0,0,.80591.19983,1.939,1.939,0,0,0,.70606-.04432,1.98725,1.98725,0,0,0,1.08569-.76965l.25122-.23486a.52112.52112,0,0,0-.129.0896.57944.57944,0,0,0-.18127.33032.60945.60945,0,0,0,.16162.52942l-.08911-.73572a1.75878,1.75878,0,0,0,.17627-1.00122,3.24493,3.24493,0,0,0-.11011-.56885,3.31542,3.31542,0,0,0-.20129-.53149.646.646,0,0,1-.03321-.50684l.01441-.0404a4.286,4.286,0,0,0-.15-2.35,14.75722,14.75722,0,0,0-.9729-2.48327.7625.7625,0,0,1-.03344-.59314l.01709-.04749a2.47172,2.47172,0,0,0,.16-.98218,3.39308,3.39308,0,0,0-.276-1.03991,5.22858,5.22858,0,0,0-.60376-1.00611,6.45554,6.45554,0,0,0-.79016-.87805.823.823,0,0,1-.21436-.91821l.01953-.04773a2.6263,2.6263,0,0,0,.03785-1.93189,2.67418,2.67418,0,0,0-1.50647-1.27453,10.23683,10.23683,0,0,0-4.85511-.31226,57.034,57.034,0,0,0-10.25366,2.41065l-.00781.00256a1.01468,1.01468,0,0,1-.34583.04651c-3.11242-.13037-6.26025,1.24573-9.50793,2.26-1.64136.51111-3.19129,1.0852-4.999,1.46557-1.73377.36206-3.43555.54554-5.14551.74317-6.8263.63574-13.62671.85547-20.43421.93579l-2.55212.02441-1.27588.00733-.63782.00268c-.22241.00086-.48108-.007-.71948-.02868a6.54081,6.54081,0,0,1-3.907-1.78113c-.358-.354-.60156-.62976-.908-.94861l-6.95935-7.44434q-6.954-7.44983-13.80542-14.99878a.1.1,0,0,1,.14368-.139q7.32989,7.086,14.5404,14.28759l7.2135,7.19873c.2887.28687.621.63562.87378.87171a4.89369,4.89369,0,0,0,2.94824,1.26025c.33789.02564.754-.00146,1.18872-.01037l1.27112-.038,2.54138-.08581c6.77063-.28015,13.55921-.54541,20.25538-1.24512,1.66271-.1886,3.3435-.37036,4.93676-.70227,1.52112-.30835,3.17456-.89868,4.77332-1.39734,1.61316-.517,3.2207-1.056,4.90539-1.5238a16.60665,16.60665,0,0,1,5.34314-.71057l-.35327.04907c1.75562-.54688,3.49378-1.01258,5.27112-1.41968a45.42231,45.42231,0,0,1,5.41028-.93506,20.08167,20.08167,0,0,1,2.8186-.1029,8.3547,8.3547,0,0,1,2.92542.63366,4.37877,4.37877,0,0,1,2.38159,2.23621,3.82347,3.82347,0,0,1,.26709,1.68652,4.55635,4.55635,0,0,1-.39465,1.6145l-.19483-.96545a7.90356,7.90356,0,0,1,.99878,1.15515,6.79631,6.79631,0,0,1,.75427,1.335,4.92182,4.92182,0,0,1,.36853,1.58069,3.98493,3.98493,0,0,1-.31677,1.66541l-.01636-.64014a15.05062,15.05062,0,0,1,.994,2.8042,7.97112,7.97112,0,0,1,.23474,1.5227,3.84085,3.84085,0,0,1-.24231,1.68775l-.0188-.547a4.62877,4.62877,0,0,1,.39686,1.603,2.98757,2.98757,0,0,1-.39393,1.70679l-.089-.73548a.6228.6228,0,0,1,.16626.54138.60071.60071,0,0,1-.18847.34131.617.617,0,0,1-.15161.10413l.251-.23462a2.37716,2.37716,0,0,1-.83862.823,3.70172,3.70172,0,0,1-1.02881.448,3.07208,3.07208,0,0,1-1.12012.0321,5.90888,5.90888,0,0,1-.96911-.26709,19.944,19.944,0,0,0-3.48584-.80676,5.6923,5.6923,0,0,0-3.31531.33435,27.677,27.677,0,0,1-3.19116,1.87927,15.8766,15.8766,0,0,1-7.28809,1.521,26.31714,26.31714,0,0,1-7.30859-1.278l.10486.0138a36.59419,36.59419,0,0,0-7.5586,1.75c-2.48.799-4.9021,1.773-7.29113,2.81506-2.3761,1.07446-4.73572,2.184-7.04029,3.40613-2.34655,1.16833-4.50329,2.54382-6.99621,3.68139a25.50207,25.50207,0,0,1-15.89917,1.54175,25.87769,25.87769,0,0,1-7.51636-3.00793,28.83719,28.83719,0,0,1-6.21143-5.12708l.06885.06348c-4.01086-3.34241-7.92383-6.79089-11.8269-10.25574q-2.93262-2.59149-5.75464-5.31152-1.41778-1.351-2.79151-2.75195c-.44812-.479-.90991-.93921-1.33386-1.44312l-.63611-.75232c-.19885-.26623-.37671-.5542-.56274-.82751a.09932.09932,0,0,1,.16333-.113Z"/><path d="M388.34572,216.12071a34.257,34.257,0,0,1,6.43982-1.39368,16.16421,16.16421,0,0,1,3.3252-.06091,6.42064,6.42064,0,0,1,3.23535,1.05676.314.314,0,1,1-.37109.50671l-.01575-.01232a5.90776,5.90776,0,0,0-2.90491-1.08374,15.78808,15.78808,0,0,0-3.24267-.09375A34.10391,34.10391,0,0,0,388.34572,216.12071Z"/><path d="M391.20839,219.80613a34.59389,34.59389,0,0,1,5.9762-.76062,16.13456,16.13456,0,0,1,3.0387.18579,4.7078,4.7078,0,0,1,2.83313,1.36573.3142.3142,0,0,1-.47034.41674l-.01172-.014-.01074-.01368a4.2063,4.2063,0,0,0-2.43567-1.2937,15.75125,15.75125,0,0,0-2.94275-.33288A34.43408,34.43408,0,0,0,391.20839,219.80613Z"/><path d="M392.26308,223.80491a23.805,23.805,0,0,1,6.18372-.30127,11.01511,11.01511,0,0,1,3.06421.67078,5.814,5.814,0,0,1,2.61181,1.86255.31409.31409,0,1,1-.50268.37671l-.00855-.012-.00488-.00732a5.27654,5.27654,0,0,0-2.27612-1.785,10.62519,10.62519,0,0,0-2.92151-.79407A23.65365,23.65365,0,0,0,392.26308,223.80491Z"/><path d="M359.82043,123.27363V183.8432l84.07414,7.45812V123.27363Zm74.80805,58.98752-66.21972-5.42423v-45.4271l66.21972-.67807Z"/><path d="M373.403,136.30821c.08789,1.85364.16541,3.633.20569,5.3833.0448,1.75268.07251,3.4762.00586,5.21667l-.23364-.23376c1.49414.05017,2.98828.12451,4.4823.13135,1.49414.01489,2.98828-.01966,4.48242-.06934l-.17175.17175c-.06531-1.77038-.11243-3.54077-.12879-5.311-.0343-1.77039-.03637-3.54077-.01892-5.311l.31946.31946c-1.454.00635-2.91467-.06592-4.39221-.10181Zm-.04443-.04444,4.41443-.19567c1.51062-.03577,3.03833-.108,4.57263-.10169a.32276.32276,0,0,1,.31958.3197c.01746,1.77027.01538,3.54065-.0188,5.311-.01648,1.77026-.0636,3.54065-.1289,5.311l-.00037.012a.16552.16552,0,0,1-.17151.15991c-1.49414-.04968-2.98828-.08423-4.48242-.06922-1.494.00672-2.98816.08106-4.4823.13123a.22589.22589,0,0,1-.23328-.21826l-.00061-.01563c-.06665-1.80041-.03894-3.61755.00586-5.40551C373.19313,139.71214,373.27065,137.95091,373.35854,136.26377Z"/><path d="M416.40139,135.37132c.15478,3.60681.25964,7.11865.35193,10.60278.10742,3.49268.1549,6.9242.19458,10.35352.03967,3.42688-.01368,6.81555-.1261,10.22229-.09424,3.40735-.2345,6.84106-.24439,10.29l-.22729-.22742c2.04162.02844,4.08325-.02478,6.12488-.0332,2.04162-.01477,4.08325-.093,6.12487-.13648l-.39709.3971q-.16919-5.19013-.24854-10.38l-.11682-10.37988q-.039-5.19012.0271-10.38l.19165-10.38.5437.54382-5.99182-.22241Zm-.10266-.10266,6.04309-.27,6.25805-.22254a.52493.52493,0,0,1,.54322.506l.00024.00611.00049.03186.19165,10.38q.06152,5.18994.0271,10.38l-.11682,10.37988q-.08515,5.18994-.24854,10.38l-.00073.02148a.38877.38877,0,0,1-.39661.37573c-2.04162-.04345-4.08325-.1217-6.12487-.13647-2.04163-.00842-4.08326-.06165-6.12488-.03333a.22422.22422,0,0,1-.22742-.22119l-.00012-.00622c-.00977-3.47107-.15-6.9574-.24426-10.47-.11243-3.51331-.16578-7.04468-.1261-10.5376.03967-3.49072.08715-6.97925.19458-10.4065C416.039,141.99,416.14394,138.58189,416.29873,135.26866Z"/><path d="M407.49324,193.99934v-5.92711l-9.26548-.822v5.81921c-5.62747.15189-9.8194,1.69547-10.04042,3.9726-.27711,2.85742,5.80035,5.78534,13.57483,6.53989,7.77447.75439,14.30163-.95059,14.57874-3.808C416.55886,197.53022,412.85708,195.24343,407.49324,193.99934Z"/><path d="M320.80166,203.08018c4.59863-2.93091,9.25048-5.77283,13.91784-8.58874a.27513.27513,0,0,1,.18128-.03467c4.3186.66369,8.62146,1.42468,12.92248,2.19665,4.29932.78272,8.61341,1.47425,12.93433,2.12342l12.96167,1.9552c4.31555.68225,8.63672,1.33056,12.94568,2.05383a.32571.32571,0,0,1,.2688.374.32945.32945,0,0,1-.12586.20777q-4.79919,3.60351-9.666,7.11633l-4.84974,3.53552-4.88073,3.49439a.03141.03141,0,0,1-.0376-.0503l4.72949-3.69641,4.76025-3.65515q4.75251-3.66577,9.55433-7.2655l.14294.58179c-4.31689-.6742-8.6217-1.42334-12.93188-2.13843l-12.916-2.23706c-4.30493-.74829-8.6167-1.4541-12.94324-2.06885-4.32483-.62537-8.64782-1.26184-12.95508-1.99548l.181-.03467c-4.69262,2.77368-9.40063,5.52148-14.16186,8.18017a.03135.03135,0,0,1-.0321-.05383Z"/><path d="M326.37575,208.85093c2.64466.67664,5.269,1.41907,7.89026,2.17151l7.84119,2.33142,7.79858,2.47022c2.59168.84875,5.18054,1.70691,7.74878,2.63208-2.6449-.67578-5.26916-1.41846-7.8905-2.17053l-7.84094-2.3324-7.79822-2.47132C331.5331,210.63353,328.94436,209.77513,326.37575,208.85093Z"/><path d="M415.3611,197.58543a22.63464,22.63464,0,0,1,4.78565-.13916,12.055,12.055,0,0,1,4.72156,1.21338,5.471,5.471,0,0,1,1.93786,1.68774,4.65115,4.65115,0,0,1,.79907,2.50086,7.65248,7.65248,0,0,1-.38024,2.52563,6.37849,6.37849,0,0,1-1.193,2.2948,6.81532,6.81532,0,0,1-1.9873,1.66077,14.067,14.067,0,0,1-2.24561,1.04455,15.05377,15.05377,0,0,1-4.83093.94043,16.23757,16.23757,0,0,1-4.81958-.62756,8.72586,8.72586,0,0,0-4.63013-.14087,5.15075,5.15075,0,0,1,2.32312-.62268,12.19707,12.19707,0,0,1,2.42871.08447,18.24328,18.24328,0,0,0,4.639.23511,15.99485,15.99485,0,0,0,4.4552-1.01758,15.34989,15.34989,0,0,0,2.06128-.9801,5.57154,5.57154,0,0,0,1.66858-1.34778,5.7219,5.7219,0,0,0,1.04736-1.87414,6.57275,6.57275,0,0,0,.39429-2.14954,3.72311,3.72311,0,0,0-.53589-2.00061,4.65061,4.65061,0,0,0-1.55408-1.48242,12.45455,12.45455,0,0,0-4.35864-1.45911A27.903,27.903,0,0,0,415.3611,197.58543Z"/><path d="M408.8933,214.8024s-.26976,8.82054-4.95951,14.11908a3.18277,3.18277,0,0,0-.069-2.70583c.75317-1.808-1.0548-5.42407-1.0548-5.42407,1.0548-2.41079-1.65746-4.82157-1.65746-4.82157s1.65746-3.46544-2.712-4.67075C398.44059,211.29926,410.38124,205.72452,408.8933,214.8024Z"/><path d="M434.52639,280.78074a.39405.39405,0,0,1-.12549-.01953l-80.811-26.72168a.40007.40007,0,1,1,.251-.75976l80.6416,26.666L538.315,220.55906v-4.76367L345.74514,180.67527,314.209,192.83836a.39989.39989,0,0,1-.28808-.74609L345.562,179.88816a.43892.43892,0,0,1,.21582-.0205l193.00879,35.20019a.4004.4004,0,0,1,.32813.39356v5.33007a.39779.39779,0,0,1-.20118.34668L434.72512,280.728A.39978.39978,0,0,1,434.52639,280.78074Z"/><path d="M434.30031,275.72313a.31445.31445,0,0,1-.09472-.01465l-85.88233-27.1709a.31348.31348,0,1,1,.18945-.59766l85.751,27.12891L538.55861,215.189a.31408.31408,0,1,1,.3125.54492L434.45656,275.68211A.31531.31531,0,0,1,434.30031,275.72313Z"/><path d="M434.5259,280.6948a.31311.31311,0,0,1-.313-.29882l-.22607-4.97168a.31366.31366,0,0,1,.29931-.32813.32513.32513,0,0,1,.32764.29883l.22607,4.97168a.31365.31365,0,0,1-.29931.32812Z"/><path d="M434.55507,278.92039l.62781,38.39087.47083,38.39087c.16955,12.79687.51953,25.59375.31384,38.39087-.113,6.39844-.22644,12.79687-.47534,19.19531l-.37793,9.59766c-.1886,3.19922-.31836,6.39843-.55921,9.59765a.15735.15735,0,0,1-.31384,0c-.241-3.19922-.37073-6.39843-.55933-9.59765l-.37793-9.59766c-.2489-6.39844-.36218-12.79687-.47534-19.19531-.20556-12.79712.14429-25.594.31385-38.39087l.47094-38.39087.62781-38.39087a.15694.15694,0,0,1,.31384,0Z"/><path d="M530.73562,226.21568l.6278,38.39087.47083,38.39074c.16968,12.79712.51953,25.594.314,38.39087-.11316,6.39844-.22644,12.79688-.47546,19.19556l-.37781,9.59766c-.1886,3.19922-.31836,6.39843-.55932,9.59765a.15738.15738,0,0,1-.31385,0c-.24084-3.19922-.3706-6.39843-.5592-9.59765l-.37793-9.59766c-.2489-6.39868-.36231-12.79712-.47547-19.19556-.20556-12.79687.14429-25.59375.314-38.39087l.47082-38.39074.62781-38.39087a.15694.15694,0,0,1,.31385,0Z"/><path d="M370.79254,331.68511s7.18006.59833,31.845,17.53329a19.93169,19.93169,0,0,0,13.86117,3.45125,13.94745,13.94745,0,0,0,3.78913-.97222s18.75849,4.84833,2.034,8.01241c0,0-23.95663.678-41.81109-12.43033l.226,7.23219h-9.04023S367.62846,335.75321,370.79254,331.68511Z"/><path d="M378.46621,304.13523c1.387,2.3357,2.70275,4.70874,4.05615,7.062l3.93994,7.12329c1.32886,2.36425,2.57715,4.77881,3.86536,7.1582a37.30325,37.30325,0,0,0,4.54126,6.57983,38.44509,38.44509,0,0,0,2.72851,2.927c.95667.92163,1.99146,1.79419,3.01428,2.68481,2.04309,1.77734,4.13855,3.49,6.21155,5.22949,2.08557,1.72364,4.2074,3.40406,6.40308,4.97827,1.08813.801,2.20239,1.56568,3.35791,2.26172l.87622.50586.90564.44654a6.66651,6.66651,0,0,0,1.92175.60522,9.71254,9.71254,0,0,1-3.86389-1.26611c-1.21558-.62159-2.3927-1.31446-3.54358-2.04419-2.286-1.48462-4.48669-3.08936-6.65662-4.73023-2.17993-1.62939-4.26355-3.37793-6.35278-5.11645-1.03491-.87622-2.08838-1.73828-3.09973-2.68482a35.75738,35.75738,0,0,1-7.45-9.84008c-1.24512-2.41822-2.51331-4.81055-3.71008-7.248l-3.63062-7.28565C380.81044,309.03221,379.6028,306.60228,378.46621,304.13523Z"/><path d="M361.87429,320.73631a35.5627,35.5627,0,0,1,4.94568,5.07812,35.1638,35.1638,0,0,1,3.97253,5.87061,35.15147,35.15147,0,0,1-4.94556-5.07813A35.56809,35.56809,0,0,1,361.87429,320.73631Z"/><path d="M319.23877,386.68278s7.19579-.36293,33.89584,13.13742a19.93165,19.93165,0,0,0,14.19726,1.57508,13.94741,13.94741,0,0,0,3.626-1.46805s19.237,2.3077,3.0827,7.67027c0,0-23.65308,3.86152-43.09382-6.753l1.18687,7.13771-8.95975,1.2036S316.64447,391.13593,319.23877,386.68278Z"/><path d="M334.38735,364.36985c.593,2.20972,1.1073,4.43531,1.66321,6.65259l.76892,3.33911a14.27867,14.27867,0,0,0,1.0133,3.16748,12.58984,12.58984,0,0,0,1.75745,2.75952c.7229.84107,1.51184,1.66114,2.3186,2.43824a38.27573,38.27573,0,0,0,5.22254,4.24707c3.78271,2.50659,7.63989,4.96191,11.52746,7.32177,1.94715,1.17847,3.91968,2.31592,5.94373,3.34668a32.73665,32.73665,0,0,0,3.07666,1.45655,9.11369,9.11369,0,0,0,3.27856.82837,8.26578,8.26578,0,0,1-3.39-.5149,33.15879,33.15879,0,0,1-3.2284-1.21362c-2.10119-.92944-4.14123-1.98047-6.1604-3.06494-4.03674-2.18384-7.90759-4.60742-11.75354-7.12256a37.93253,37.93253,0,0,1-5.34851-4.43994c-.81628-.82886-1.59179-1.67578-2.33447-2.58618a11.99448,11.99448,0,0,1-1.79175-3.07373,15.17878,15.17878,0,0,1-.90515-3.39258l-.5946-3.37451C335.09792,368.88572,334.70327,366.63572,334.38735,364.36985Z"/><path d="M318.62941,369.88865a50.15062,50.15062,0,0,1,.93164,8.37427,49.5882,49.5882,0,0,1-.32226,8.41992,49.58712,49.58712,0,0,1-.93164-8.37427A50.16278,50.16278,0,0,1,318.62941,369.88865Z"/><path d="M297.83754,146.4a7.19383,7.19383,0,0,1-3.7362-.63757,4.07256,4.07256,0,0,1-1.5531-1.20459,2.53018,2.53018,0,0,1-.5188-1.85132,3.85666,3.85666,0,0,0,2.34326,2.49024A23.59208,23.59208,0,0,0,297.83754,146.4Z"/><path d="M419.24,140.42a1.5009,1.5009,0,0,0,0-3,1.5009,1.5009,0,0,0,0,3Z"/><path d="M419.48,148.7a1.5009,1.5009,0,0,0,0-3,1.5009,1.5009,0,0,0,0,3Z"/><path d="M419.6,157.58a1.5009,1.5009,0,0,0,0-3,1.5009,1.5009,0,0,0,0,3Z"/><path d="M419.6,167.42a1.5009,1.5009,0,0,0,0-3,1.5009,1.5009,0,0,0,0,3Z"/><path d="M419.84,175.34a1.5009,1.5009,0,0,0,0-3,1.5009,1.5009,0,0,0,0,3Z"/><path d="M377.82583,142.20945a1.15706,1.15706,0,0,0,1.03771-.65832,4.00217,4.00217,0,0,0,.30921-1.07508,1.47658,1.47658,0,0,0-.21021-1.16638,1.166,1.166,0,0,0-1.13671-.36706,1.65388,1.65388,0,0,0-.93592.5542,1.69021,1.69021,0,0,0-.307.98034,2.4601,2.4601,0,0,0,.21472,1.06531A1.1519,1.1519,0,0,0,377.82583,142.20945Zm0,.08887a2.517,2.517,0,0,1-1.45618-.3573,1.79333,1.79333,0,0,1-.7345-1.46423,2.11157,2.11157,0,0,1,.64282-1.54932,1.78083,1.78083,0,0,1,1.54786-.47143,2.53712,2.53712,0,0,1,1.34765.65722,2.25138,2.25138,0,0,1,.73889,1.36316,1.57419,1.57419,0,0,1-.6405,1.45459A2.5249,2.5249,0,0,1,377.82583,142.29832Z"/><path d="M380.70046,146.93931a25.60013,25.60013,0,0,1-2.80335.3125c-.5039.0221-1.01245.04822-1.52746.03491-.515-.01184-1.03-.07934-1.52954-.12609l-.051-.00489a.22354.22354,0,0,1-.20178-.24353l.00037-.004a13.986,13.986,0,0,0,.11853-1.63256,4.2239,4.2239,0,0,1,.238-1.6792,3.12962,3.12962,0,0,1,5.796-.0846,3.25163,3.25163,0,0,1,.199,1.79675C380.87868,145.90647,380.77834,146.46312,380.70046,146.93931Zm-.062-.06213-.23877-1.63428a3.27693,3.27693,0,0,0-.38709-1.37878,2.83125,2.83125,0,0,0-2.25781-1.38977,2.78967,2.78967,0,0,0-2.43286,1.30493,2.507,2.507,0,0,0-.34815,1.49634,13.986,13.986,0,0,0,.11853,1.63256l-.25219-.25219c.472-.04688.92859-.11438,1.38513-.12622.45654-.01331.91955.01281,1.38721.03491C378.552,146.62144,379.53237,146.735,380.63845,146.87718Z"/><path d="M386.25454,136.30821c.08789,1.85364.1654,3.633.20568,5.3833.0448,1.75268.07251,3.4762.00586,5.21667l-.23364-.23376c1.49414.05017,2.98816.12451,4.4823.13135,1.49414.01489,2.98828-.01966,4.48242-.06934l-.17175.17175c-.06531-1.77038-.11243-3.54077-.12878-5.311-.03431-1.77039-.03638-3.54077-.01892-5.311l.31945.31946c-1.4541.00635-2.91467-.06592-4.39221-.10181Zm-.04444-.04444,4.41443-.19567c1.51062-.03577,3.03833-.108,4.57263-.10169a.32276.32276,0,0,1,.31958.3197c.01746,1.77027.01538,3.54065-.01892,5.311-.01636,1.77026-.06347,3.54065-.12878,5.311l-.00037.012a.16552.16552,0,0,1-.17151.15991c-1.49414-.04968-2.98828-.08423-4.48242-.06922-1.49414.00672-2.98816.08106-4.4823.13123a.22588.22588,0,0,1-.23327-.21826l-.00062-.01563c-.06665-1.80041-.03894-3.61755.00586-5.40551C386.0447,139.71214,386.12221,137.95091,386.2101,136.26377Z"/><path d="M390.67739,142.20945a1.15707,1.15707,0,0,0,1.03772-.65832,4.00251,4.00251,0,0,0,.3092-1.07508,1.47662,1.47662,0,0,0-.2102-1.16638,1.166,1.166,0,0,0-1.13672-.36706,1.65388,1.65388,0,0,0-.93592.5542,1.69021,1.69021,0,0,0-.307.98034,2.4601,2.4601,0,0,0,.21472,1.06531A1.15192,1.15192,0,0,0,390.67739,142.20945Zm0,.08887a2.517,2.517,0,0,1-1.45618-.3573,1.79336,1.79336,0,0,1-.7345-1.46423,2.11158,2.11158,0,0,1,.64283-1.54932,1.78081,1.78081,0,0,1,1.54785-.47143,2.53712,2.53712,0,0,1,1.34765.65722,2.25139,2.25139,0,0,1,.7389,1.36316,1.57419,1.57419,0,0,1-.64051,1.45459A2.52486,2.52486,0,0,1,390.67739,142.29832Z"/><path d="M393.552,146.93931a25.59965,25.59965,0,0,1-2.80334.3125c-.50391.0221-1.01245.04822-1.52747.03491-.515-.01184-1.03-.07934-1.52954-.12609l-.051-.00489a.22354.22354,0,0,1-.20178-.24353l.00037-.004a13.98386,13.98386,0,0,0,.11853-1.63256,4.22391,4.22391,0,0,1,.238-1.6792,3.12961,3.12961,0,0,1,5.796-.0846,3.25153,3.25153,0,0,1,.199,1.79675C393.73024,145.90647,393.6299,146.46312,393.552,146.93931Zm-.062-.06213-.23877-1.63428a3.27692,3.27692,0,0,0-.38708-1.37878,2.83128,2.83128,0,0,0-2.25782-1.38977,2.79,2.79,0,0,0-2.433,1.30493,2.5069,2.5069,0,0,0-.348,1.49634,13.98386,13.98386,0,0,0,.11853,1.63256l-.2522-.25219c.47205-.04688.92859-.11438,1.38513-.12622.45654-.01331.91956.01281,1.38721.03491C391.40346,146.62144,392.38393,146.735,393.49,146.87718Z"/><path d="M399.34511,136.30821c.08789,1.85364.16553,3.633.20581,5.3833.04468,1.75268.07239,3.4762.00586,5.21667l-.23376-.23376c1.49414.05017,2.98828.12451,4.48242.13135,1.494.01489,2.98816-.01966,4.4823-.06934l-.17175.17175c-.06519-1.77038-.11231-3.54077-.12879-5.311-.0343-1.77039-.03637-3.54077-.01892-5.311l.31946.31946c-1.454.00635-2.91455-.06592-4.39221-.10181Zm-.04431-.04444,4.41431-.19567c1.51074-.03577,3.03833-.108,4.57263-.10169a.32286.32286,0,0,1,.3197.3197c.01746,1.77027.01538,3.54065-.01892,5.311-.01648,1.77026-.0636,3.54065-.12878,5.311l-.00049.012a.16553.16553,0,0,1-.17151.15991c-1.49414-.04968-2.98828-.08423-4.4823-.06922-1.49414.00672-2.98828.08106-4.48242.13123a.22589.22589,0,0,1-.23328-.21826l-.00061-.01563c-.06665-1.80041-.03894-3.61755.00586-5.40551C399.13527,139.71214,399.21291,137.95091,399.3008,136.26377Z"/><path d="M403.768,142.20945a1.15692,1.15692,0,0,0,1.03772-.65832,3.99346,3.99346,0,0,0,.30921-1.07508,1.47652,1.47652,0,0,0-.21009-1.16638,1.16628,1.16628,0,0,0-1.13684-.36706,1.65429,1.65429,0,0,0-.93591.5542,1.68925,1.68925,0,0,0-.30688.98034,2.46169,2.46169,0,0,0,.2146,1.06531A1.152,1.152,0,0,0,403.768,142.20945Zm0,.08887a2.517,2.517,0,0,1-1.45617-.3573,1.79365,1.79365,0,0,1-.7345-1.46423,2.112,2.112,0,0,1,.64282-1.54932,1.78082,1.78082,0,0,1,1.54785-.47143,2.53669,2.53669,0,0,1,1.34766.65722,2.25153,2.25153,0,0,1,.739,1.36316,1.57426,1.57426,0,0,1-.64062,1.45459A2.52468,2.52468,0,0,1,403.768,142.29832Z"/><path d="M406.64272,146.93931a25.60219,25.60219,0,0,1-2.80347.3125c-.50378.0221-1.01245.04822-1.52746.03491-.515-.01184-1.03-.07934-1.52954-.12609l-.051-.00489a.22362.22362,0,0,1-.20178-.24353l.00049-.004a14.01223,14.01223,0,0,0,.11853-1.63256,4.21961,4.21961,0,0,1,.238-1.6792,3.12952,3.12952,0,0,1,5.7959-.0846,3.25169,3.25169,0,0,1,.1991,1.79675C406.82082,145.90647,406.7206,146.46312,406.64272,146.93931Zm-.06213-.06213-.23877-1.63428a3.27693,3.27693,0,0,0-.38709-1.37878,2.83125,2.83125,0,0,0-2.25781-1.38977,2.78967,2.78967,0,0,0-2.43286,1.30493,2.50791,2.50791,0,0,0-.34815,1.49634,14.01223,14.01223,0,0,0,.11853,1.63256l-.25219-.25219c.47216-.04688.92871-.11438,1.38513-.12622.45654-.01331.91955.01281,1.38733.03491C404.49416,146.62144,405.47463,146.735,406.58059,146.87718Z"/><path d="M393.54323,149.49888c.08789,1.85364.16541,3.63306.20569,5.3833.0448,1.75269.07251,3.4762.00586,5.21668l-.23364-.23377c1.49414.05017,2.98816.12451,4.4823.13135,1.49414.01489,2.98828-.01965,4.48242-.06934l-.17175.17176c-.06531-1.77039-.11243-3.54077-.12891-5.311-.03418-1.77038-.03625-3.54077-.0188-5.311l.31946.31946c-1.4541.00634-2.91467-.06592-4.39221-.10169Zm-.04443-.04443,4.41443-.19568c1.51062-.03577,3.03833-.108,4.57263-.10169a.32278.32278,0,0,1,.31958.31971c.01746,1.77026.01538,3.54065-.01892,5.311-.01636,1.77027-.06348,3.54065-.12879,5.311l-.00036.01208a.1655.1655,0,0,1-.17151.15979c-1.49414-.04968-2.98828-.08423-4.48242-.06921-1.49414.00671-2.98816.08105-4.4823.13122a.226.226,0,0,1-.2334-.21814l-.00049-.01574c-.06665-1.8003-.03894-3.61756.00586-5.40552C393.33339,152.90281,393.41091,151.14158,393.4988,149.45445Z"/><path d="M397.96608,155.40013a1.15706,1.15706,0,0,0,1.03772-.65833,4.00085,4.00085,0,0,0,.30921-1.07507,1.47661,1.47661,0,0,0-.21021-1.16638,1.16623,1.16623,0,0,0-1.13672-.36707,1.65345,1.65345,0,0,0-.93591.5542,1.68944,1.68944,0,0,0-.307.98035,2.46024,2.46024,0,0,0,.21473,1.0653A1.15192,1.15192,0,0,0,397.96608,155.40013Zm0,.08886a2.517,2.517,0,0,1-1.45617-.3573,1.79332,1.79332,0,0,1-.7345-1.46423,2.11159,2.11159,0,0,1,.64282-1.54932,1.78082,1.78082,0,0,1,1.54785-.47143,2.53634,2.53634,0,0,1,1.34754.65723,2.25087,2.25087,0,0,1,.739,1.36315,1.57418,1.57418,0,0,1-.6405,1.45459A2.52483,2.52483,0,0,1,397.96608,155.489Z"/><path d="M400.84072,160.13a25.604,25.604,0,0,1-2.80347.3125c-.50378.02221-1.01233.04821-1.52734.03491-.515-.01184-1.03015-.07935-1.52954-.1261l-.051-.00488a.22346.22346,0,0,1-.20178-.24353l.00036-.004a13.98607,13.98607,0,0,0,.11854-1.63257,4.223,4.223,0,0,1,.238-1.67908,3.12958,3.12958,0,0,1,5.796-.08471,3.25161,3.25161,0,0,1,.199,1.79675C401.01894,159.09715,400.9186,159.65379,400.84072,160.13Zm-.062-.06214-.23877-1.63428a3.278,3.278,0,0,0-.38709-1.37878A2.83156,2.83156,0,0,0,397.895,155.665a2.78974,2.78974,0,0,0-2.433,1.30493,2.507,2.507,0,0,0-.348,1.49634,13.986,13.986,0,0,0,.11853,1.63257l-.25219-.2522c.472-.04687.92859-.11438,1.38513-.12622.45654-.01331.91955.01282,1.38721.035C398.69216,159.81211,399.67263,159.92564,400.77871,160.06785Z"/><path d="M379.56484,149.49888c.08789,1.85364.1654,3.63306.20569,5.3833.0448,1.75269.07251,3.4762.00586,5.21668l-.23365-.23377c1.49414.05017,2.98816.12451,4.4823.13135,1.49414.01489,2.98829-.01965,4.48243-.06934l-.17176.17176c-.0653-1.77039-.11242-3.54077-.12878-5.311-.0343-1.77038-.03638-3.54077-.01892-5.311l.31946.31946c-1.45411.00634-2.91468-.06592-4.39222-.10169Zm-.04443-.04443,4.41442-.19568c1.51062-.03577,3.03833-.108,4.57264-.10169a.32279.32279,0,0,1,.31958.31971c.01745,1.77026.01538,3.54065-.01893,5.311-.01635,1.77027-.06347,3.54065-.12878,5.311l-.00037.01208a.16549.16549,0,0,1-.1715.15979c-1.49414-.04968-2.98829-.08423-4.48243-.06921-1.49414.00671-2.98816.08105-4.4823.13122a.22578.22578,0,0,1-.23327-.21814l-.00061-.01574c-.06665-1.8003-.03894-3.61756.00586-5.40552C379.355,152.90281,379.43251,151.14158,379.52041,149.45445Z"/><path d="M373.403,163.24c.08789,1.85364.16541,3.63306.20569,5.3833.0448,1.75269.07251,3.4762.00586,5.21668l-.23364-.23377c1.49414.05017,2.98828.12451,4.4823.13123,1.49414.015,2.98828-.01953,4.48242-.06922l-.17175.17176c-.06531-1.77039-.11243-3.54078-.12879-5.311-.0343-1.77038-.03637-3.54077-.01892-5.311l.31946.31945c-1.454.00635-2.91467-.06591-4.39221-.1018Zm-.04443-.04443,4.41443-.19568c1.51062-.03589,3.03833-.108,4.57263-.10169a.32278.32278,0,0,1,.31958.31971c.01746,1.77026.01538,3.54065-.0188,5.311-.01648,1.77026-.0636,3.54065-.1289,5.311l-.00037.012a.1656.1656,0,0,1-.17151.15991c-1.49414-.04968-2.98828-.08423-4.48242-.06933-1.494.00683-2.98816.08117-4.4823.13134a.22588.22588,0,0,1-.23328-.21826l-.00061-.01562c-.06665-1.80042-.03894-3.61756.00586-5.40552C373.19313,166.6439,373.27065,164.88255,373.35854,163.19554Z"/><path d="M377.82583,169.14122a1.157,1.157,0,0,0,1.03771-.65845,4.00014,4.00014,0,0,0,.30921-1.075,1.47648,1.47648,0,0,0-.21021-1.16638,1.166,1.166,0,0,0-1.13671-.36707,1.65388,1.65388,0,0,0-.93592.5542,1.69022,1.69022,0,0,0-.307.98035,2.46008,2.46008,0,0,0,.21472,1.0653A1.15192,1.15192,0,0,0,377.82583,169.14122Zm0,.08886a2.517,2.517,0,0,1-1.45618-.3573,1.79332,1.79332,0,0,1-.7345-1.46423,2.11159,2.11159,0,0,1,.64282-1.54932,1.78083,1.78083,0,0,1,1.54786-.47143,2.53633,2.53633,0,0,1,1.34765.65722,2.25141,2.25141,0,0,1,.73889,1.363,1.57428,1.57428,0,0,1-.6405,1.45471A2.52482,2.52482,0,0,1,377.82583,169.23008Z"/><path d="M380.70046,173.87107a25.62961,25.62961,0,0,1-2.80335.3125c-.5039.0221-1.01245.04822-1.52746.03492-.515-.01184-1.03-.07935-1.52954-.12622l-.051-.00477a.22354.22354,0,0,1-.20178-.24353l.00037-.004a13.986,13.986,0,0,0,.11853-1.63257,4.2239,4.2239,0,0,1,.238-1.6792,3.12962,3.12962,0,0,1,5.796-.0846,3.25166,3.25166,0,0,1,.199,1.79676C380.87868,172.83812,380.77834,173.39488,380.70046,173.87107Zm-.062-.06213-.23877-1.6344a3.27689,3.27689,0,0,0-.38709-1.37866,2.83125,2.83125,0,0,0-2.25781-1.38977,2.78967,2.78967,0,0,0-2.43286,1.30493,2.507,2.507,0,0,0-.34815,1.49634,13.986,13.986,0,0,0,.11853,1.63257l-.25219-.25232c.472-.04676.92859-.11426,1.38513-.1261.45654-.01331.91955.01282,1.38721.03491C378.552,173.5532,379.53237,173.66661,380.63845,173.80894Z"/><path d="M386.25454,163.24c.08789,1.85364.1654,3.63306.20568,5.3833.0448,1.75269.07251,3.4762.00586,5.21668l-.23364-.23377c1.49414.05017,2.98816.12451,4.4823.13123,1.49414.015,2.98828-.01953,4.48242-.06922l-.17175.17176c-.06531-1.77039-.11243-3.54078-.12878-5.311-.03431-1.77038-.03638-3.54077-.01892-5.311l.31945.31945c-1.4541.00635-2.91467-.06591-4.39221-.1018Zm-.04444-.04443,4.41443-.19568c1.51062-.03589,3.03833-.108,4.57263-.10169a.32278.32278,0,0,1,.31958.31971c.01746,1.77026.01538,3.54065-.01892,5.311-.01636,1.77026-.06347,3.54065-.12878,5.311l-.00037.012a.1656.1656,0,0,1-.17151.15991c-1.49414-.04968-2.98828-.08423-4.48242-.06933-1.49414.00683-2.98816.08117-4.4823.13134a.22588.22588,0,0,1-.23327-.21826l-.00062-.01562c-.06665-1.80042-.03894-3.61756.00586-5.40552C386.0447,166.6439,386.12221,164.88255,386.2101,163.19554Z"/><path d="M399.23659,163.24c.08789,1.85364.16553,3.63306.20581,5.3833.0448,1.75269.07251,3.4762.00586,5.21668l-.23376-.23377c1.49414.05017,2.98828.12451,4.48242.13123,1.49414.015,2.98816-.01953,4.4823-.06922l-.17175.17176c-.06519-1.77039-.11231-3.54078-.12879-5.311-.0343-1.77038-.03638-3.54077-.01892-5.311l.31946.31945c-1.454.00635-2.91455-.06591-4.39209-.1018Zm-.04431-.04443,4.41431-.19568c1.51074-.03589,3.03845-.108,4.57263-.10169a.3228.3228,0,0,1,.3197.31971c.01746,1.77026.01538,3.54065-.01892,5.311-.01648,1.77026-.0636,3.54065-.12878,5.311l-.00049.012a.16554.16554,0,0,1-.17151.15991c-1.49414-.04968-2.98816-.08423-4.4823-.06933-1.49414.00683-2.98828.08117-4.48242.13134a.22588.22588,0,0,1-.23328-.21826l-.00061-.01562c-.06653-1.80042-.03882-3.61756.00586-5.40552C399.02687,166.6439,399.10439,164.88255,399.19228,163.19554Z"/><path d="M403.65944,169.14122a1.15668,1.15668,0,0,0,1.03772-.65845,3.99605,3.99605,0,0,0,.30933-1.075,1.47648,1.47648,0,0,0-.21021-1.16638,1.16617,1.16617,0,0,0-1.13684-.36707,1.65355,1.65355,0,0,0-.93579.5542,1.68842,1.68842,0,0,0-.307.98035,2.46167,2.46167,0,0,0,.2146,1.0653A1.15207,1.15207,0,0,0,403.65944,169.14122Zm0,.08886a2.517,2.517,0,0,1-1.45617-.3573,1.79321,1.79321,0,0,1-.73438-1.46423,2.11194,2.11194,0,0,1,.6427-1.54932,1.78092,1.78092,0,0,1,1.54785-.47143,2.53547,2.53547,0,0,1,1.34766.65722,2.25155,2.25155,0,0,1,.739,1.363,1.57454,1.57454,0,0,1-.6405,1.45471A2.525,2.525,0,0,1,403.65944,169.23008Z"/><path d="M406.5342,173.87107a25.632,25.632,0,0,1-2.80347.3125c-.50378.0221-1.01245.04822-1.52746.03492-.515-.01184-1.03-.07935-1.52942-.12622l-.051-.00477a.22363.22363,0,0,1-.2019-.24353l.00049-.004a13.986,13.986,0,0,0,.11853-1.63257,4.22175,4.22175,0,0,1,.238-1.6792,3.12962,3.12962,0,0,1,5.796-.0846,3.25275,3.25275,0,0,1,.199,1.79676C406.7123,172.83812,406.61208,173.39488,406.5342,173.87107Zm-.06213-.06213-.23877-1.6344a3.275,3.275,0,0,0-.387-1.37866,2.83145,2.83145,0,0,0-2.25793-1.38977,2.78966,2.78966,0,0,0-2.43286,1.30493,2.507,2.507,0,0,0-.348,1.49634,14.012,14.012,0,0,0,.11841,1.63257l-.25219-.25232c.47216-.04676.92871-.11426,1.38525-.1261.45654-.01331.91943.01282,1.38721.03491C404.38564,173.5532,405.36611,173.66661,406.47207,173.80894Z"/><rect x="335.17291" y="198.83205" width="0.99944" height="0.99992" transform="matrix(0.17287, -0.98495, 0.98495, 0.17287, 81.31511, 495.49349)"/><path d="M371.377,206.0825l-1.96093-.34277.17187-.98438,1.96094.34278Zm-3.92236-.68555-1.96094-.34277.17188-.98438,1.96093.34278Zm-3.92188-.68554-1.96093-.34278.17187-.98437,1.96094.34277Zm-3.92236-.68555-1.96094-.34375.17286-.98438,1.96093.34375Zm-3.92139-.68652-1.96093-.34278.17187-.98437,1.96094.34277Zm-3.92187-.68555-1.96094-.34277.17188-.98438,1.96093.34277Zm-3.92236-.68555-1.96094-.34277.17187-.98438,1.96094.34278Zm-3.92188-.68652-1.96094-.34277.17188-.98438,1.96094.34277Zm-3.92187-.68555-1.96094-.34277.17187-.98438,1.96094.34278Z"/><rect x="373.41656" y="205.51955" width="0.99944" height="0.99992" transform="matrix(0.17287, -0.98495, 0.98495, 0.17287, 106.36092, 538.69285)"/><rect x="331.92868" y="202.27971" width="1.00058" height="1.00011" transform="translate(64.66073 485.49663) rotate(-77.93846)"/><path d="M367.11184,210.68016l-1.90528-.40625.209-.97852,1.90527.40625Zm-3.81006-.81153-1.90576-.40625.208-.97851,1.90577.40625Zm-3.811-.8125-1.90527-.40527.208-.97852,1.90527.40528Zm-3.81152-.81152-1.90527-.40625.209-.97852,1.90527.40625Zm-3.81055-.8125-1.90527-.40527.208-.97852,1.90527.40527Zm-3.81055-.81152-1.90576-.40625.208-.97852,1.90576.40625Zm-3.81152-.81153-1.90527-.40625.209-.97851,1.90528.40625Zm-3.811-.8125-1.90528-.40625.209-.97851,1.90527.40625Zm-3.811-.81152-1.90527-.40625.209-.97852,1.90528.40625Z"/><rect x="369.11081" y="210.20061" width="1.00058" height="1.00011" transform="translate(86.32717 528.12365) rotate(-77.93846)"/><path d="M335.12453,207.94981a23.296,23.296,0,0,1,5.04627.85046,23.03613,23.03613,0,0,1,4.78466,1.81507,23.0414,23.0414,0,0,1-5.04626-.85059A23.30281,23.30281,0,0,1,335.12453,207.94981Z"/></svg>