<svg id="Layer_1" data-name="Layer 1" xmlns="http://www.w3.org/2000/svg" viewBox="0 0 700 550"><title>printing paper</title><path d="M394.84729,279.51633l-12.39-2.01,8,2.55h-15.19q1.17.21021,2.34.45c2.33.45,4.67.94019,7,1.42994,1.84.40014,3.7.75,5.55,1.1101,1.78.36011,3.58.65992,5.37.99Zm6.97,23.16993c-.04.01025-.07.01025-.11.02l.2.01Zm5.54-9.96c-.03,0-.06.01-.09.01l.17.01C407.40729,292.73631,407.38733,292.73631,407.3573,292.7263Zm0,0c-.03,0-.06.01-.09.01l.17.01C407.40729,292.73631,407.38733,292.73631,407.3573,292.7263Zm0,0c-.03,0-.06.01-.09.01l.17.01C407.40729,292.73631,407.38733,292.73631,407.3573,292.7263Zm-53.16-19.76v-.03l-.06-.00977h-.01l-.43-.07007c.16.1399.32995.28.5.40991,1.15.93018,2.45,1.87012,3.77,2.74.6.3899,1.21.78,1.81,1.1399.45.28027.89.54,1.31.78027.2.10986.39.21973.58.31983a29.35563,29.35563,0,0,0,2.82,1.41015c.17.06983.33.12988.47.17993a3.98755,3.98755,0,0,0,.5.15992,2.15209,2.15209,0,0,0,.29.06Zm51.25,8.26.32,3.95019.4,5.27-.7-5.24023-.51-4.06006-9.66-1.55982.54,4.61011a.14179.14179,0,0,1-.12.1499h-.05c-1.85-.35009-3.7-.73-5.56-1.06006-1.85-.33007-3.71-.65991-5.58-.96-3.72-.6101-7.44-1.23-11.15-1.96a.10712.10712,0,0,1-.06-.02c-.22-.09009-.44-.18994-.66-.29h-6.91a13.53775,13.53775,0,0,1-3.79,1.85987c3.35.75,6.7,1.53027,10.05,2.29l11.83,2.78,11.81,2.8601c3.9.96,7.82,1.8899,11.71,2.87989,7-.77,14-1.58985,21.01-2.29981,7.04-.74023,14.08-1.45019,21.13-2.07007Zm44.05,7.13012c-7.01,1-14.02,1.90991-21.04,2.8-7.02.90991-14.05,1.68994-21.08,2.54981a.88073.88073,0,0,1-.16-.00977h-.01c-3.94-.95019-7.86-1.97021-11.79-2.95019l-11.77-2.98-11.76-3.06982c-3.37-.90015-6.74-1.79-10.1-2.72021-4.49,1.43017-12.49,1.91015-22.38-6.42994,0,0-4.7-2.56-11.4-6.79l-29.02,3.44019,25.78,7.46973,25.74,7.60009,25.71,7.68018,25.6,7.73975q15.58494-2.63966,31.21-5.15992c10.44-1.72,20.9-3.34008,31.35-5Zm-42.14,4.36988c-.03,0-.06.01-.09.01l.17.01C407.40729,292.73631,407.38733,292.73631,407.3573,292.7263Zm0,0c-.03,0-.06.01-.09.01l.17.01C407.40729,292.73631,407.38733,292.73631,407.3573,292.7263Zm-5.58,10.43017.01.45h.01Zm.04-.47021c-.04.01025-.07.01025-.11.02l.2.01Zm-.04.47021.01.45h.01Zm.04-.47021c-.04.01025-.07.01025-.11.02l.2.01Zm-.04.47021.01.45h.01Zm.04-.47021c-.04.01025-.07.01025-.11.02l.2.01Zm62.56-10.15992c-10.41,1.88013-20.82,3.81006-31.24,5.61988q-15.63006,2.77515-31.28,5.45019a.12672.12672,0,0,1-.06.01l.78,16.86988.68,17.32006,1.22,34.65992.98,34.66015c.28,11.56006.55,23.10987.71,34.66992l61.21-11.55Zm-62.56,10.15992c-.04.01025-.07.01025-.11.02l.2.01Zm-.03.92016h.01l-.02-.45Zm.03-.92016c-.04.01025-.07.01025-.11.02l.2.01Zm-.04.47021.01.45h.01Zm.04-.47021c-.04.01025-.07.01025-.11.02l.2.01Zm-.04.47021.01.45h.01Zm2.91,103.98975-1.21-34.65991-.99-34.65992-.4-17.34008-.3-16.87989a.67529.67529,0,0,1-.14-.02l-25.71-7.7-25.68-7.8-25.66-7.88012-25.61-8.00977V393.27634l107.18,48.51C405.59729,430.24632,405.13733,418.69651,404.68732,407.14622Zm-94.74-120.02979,79.54,21.91992v23l-79.54-25.98Zm-1.03,100.38989-.08-76.43994,80.89,26.07984,3.62,86.57007Zm92.9-84.82006c-.04.01025-.07.01025-.11.02l.2.01Zm-.04.47021.01.45h.01Zm5.58-10.43017c-.03,0-.06.01-.09.01l.17.01C407.40729,292.73631,407.38733,292.73631,407.3573,292.7263Z"/><polygon points="401.797 303.606 401.787 303.606 401.777 303.156 401.797 303.606" fill="#fff"/><path d="M401.90729,302.71629l-.2-.01c.04-.00977.07-.00977.11-.02Z" fill="#fff"/><polygon points="401.797 303.606 401.787 303.606 401.777 303.156 401.797 303.606" fill="#fff"/><path d="M394.84729,279.51633l-.47-3.16992c-2.71-.6101-5.41-1.23-8.11-1.88012q-4.14-.95985-8.27-2-4.14-1.0049-8.25-2.09986l-8.11-2.20019-.04,4.03027h4.15l16.71,5.30981,8,2.55h-15.19q1.17.21021,2.34.45c2.33.45,4.67.94019,7,1.42994,1.84.40014,3.7.75,5.55,1.1101,1.78.36011,3.58.65992,5.37.99Zm0,0-.47-3.16992c-2.71-.6101-5.41-1.23-8.11-1.88012q-4.14-.95985-8.27-2-4.14-1.0049-8.25-2.09986l-8.11-2.20019-.04,4.03027h4.15l16.71,5.30981,8,2.55h-15.19q1.17.21021,2.34.45c2.33.45,4.67.94019,7,1.42994,1.84.40014,3.7.75,5.55,1.1101,1.78.36011,3.58.65992,5.37.99Zm0,0-.47-3.16992c-2.71-.6101-5.41-1.23-8.11-1.88012q-4.14-.95985-8.27-2-4.14-1.0049-8.25-2.09986l-8.11-2.20019-.04,4.03027h4.15l16.71,5.30981,8,2.55h-15.19q1.17.21021,2.34.45c2.33.45,4.67.94019,7,1.42994,1.84.40014,3.7.75,5.55,1.1101,1.78.36011,3.58.65992,5.37.99Zm0,0-.47-3.16992c-2.71-.6101-5.41-1.23-8.11-1.88012q-4.14-.95985-8.27-2-4.14-1.0049-8.25-2.09986l-8.11-2.20019-.04,4.03027h4.15l16.71,5.30981,8,2.55h-15.19q1.17.21021,2.34.45c2.33.45,4.67.94019,7,1.42994,1.84.40014,3.7.75,5.55,1.1101,1.78.36011,3.58.65992,5.37.99Zm0,0-.47-3.16992c-2.71-.6101-5.41-1.23-8.11-1.88012q-4.14-.95985-8.27-2-4.14-1.0049-8.25-2.09986l-8.11-2.20019-.04,4.03027h4.15l16.71,5.30981,8,2.55h-15.19q1.17.21021,2.34.45c2.33.45,4.67.94019,7,1.42994,1.84.40014,3.7.75,5.55,1.1101,1.78.36011,3.58.65992,5.37.99Zm0,0-.47-3.16992c-2.71-.6101-5.41-1.23-8.11-1.88012q-4.14-.95985-8.27-2-4.14-1.0049-8.25-2.09986l-8.11-2.20019-.04,4.03027h4.15l16.71,5.30981,8,2.55h-15.19q1.17.21021,2.34.45c2.33.45,4.67.94019,7,1.42994,1.84.40014,3.7.75,5.55,1.1101,1.78.36011,3.58.65992,5.37.99Zm0,0-.47-3.16992c-2.71-.6101-5.41-1.23-8.11-1.88012q-4.14-.95985-8.27-2-4.14-1.0049-8.25-2.09986l-8.11-2.20019-.04,4.03027h4.15l16.71,5.30981,8,2.55h-15.19q1.17.21021,2.34.45c2.33.45,4.67.94019,7,1.42994,1.84.40014,3.7.75,5.55,1.1101,1.78.36011,3.58.65992,5.37.99Zm-33.37-11.43994c-.25.06983-.52.12989-.82.18994a28.98984,28.98984,0,0,0-6.46-1.45v5.38013h7.32Zm-7.28,4.8899v.3c1.15.93018,2.45,1.87012,3.77,2.74.61.40015,1.22.79,1.81,1.1399.45.28027.89.54,1.31.78027.2.10986.39.21973.58.31983a29.35563,29.35563,0,0,0,2.82,1.41015c.17.06983.33.12988.47.17993a3.98755,3.98755,0,0,0,.5.15992,2.15209,2.15209,0,0,0,.29.06Zm92.86-23.6399c-2.12.42993-4.23.8899-6.33,1.39991-1.05.25-2.09.53-3.13.81a9.79331,9.79331,0,0,0-2.94,1.10987,11.20546,11.20546,0,0,0-3.69,4.98022c-.86,1.95-1.51,4-2.28,6.05a5.72352,5.72352,0,0,1-.78,1.56983,4.78642,4.78642,0,0,1-1.41,1.09008,16.05566,16.05566,0,0,1-3.12,1.2,45.57319,45.57319,0,0,1-6.42,1.28c-4.16.55-8.33.86011-12.52,1.01l.9,10.08008.11005,1.31983.32,3.95019.4,5.27-.7-5.24023-.51-4.06006-.15-1.17993-1.25-10.5a.40822.40822,0,0,1,.36-.46h.04c4.3-.2,8.61-.55,12.87-1.15991a57.35669,57.35669,0,0,0,6.29-1.23,15.87318,15.87318,0,0,0,2.94-1.09009,4.11751,4.11751,0,0,0,1.15-.8601,5.40317,5.40317,0,0,0,.65-1.31983c.78-1.99,1.42-4.07007,2.38-6.05a11.75041,11.75041,0,0,1,4.1-5.15991,10.243,10.243,0,0,1,3.13-1.09009c1.06-.25,2.12-.47,3.18-.66992,2.13-.41015,4.26-.77,6.41-1.05l-54.06-10.16015-12.93,2.99023-2.08,11.32984-23.79,2.77v4.42017a35.10117,35.10117,0,0,0,8.88995,3.43994c.75,0,2.27,2.74-1.38,3.88989l8.19,1.78q4.155.91481,8.28,1.92994c2.76.66015,5.51,1.33007,8.26,2.04q4.125,1.01991,8.25,2.11011a.26542.26542,0,0,1,.2.22l.41,3.5.54,4.61011a.14179.14179,0,0,1-.12.1499h-.05c-1.85-.35009-3.7-.73-5.56-1.06006-1.85-.33007-3.71-.65991-5.58-.96-3.72-.6101-7.44-1.23-11.15-1.96a.10712.10712,0,0,1-.06-.02c-.22-.09009-.44-.18994-.66-.29h-6.91a13.53775,13.53775,0,0,1-3.79,1.85987c3.35.75,6.7,1.53027,10.05,2.29l11.83,2.78,11.81,2.8601c3.9.96,7.82,1.8899,11.71,2.87989,7-.77,14-1.58985,21.01-2.29981,7.04-.74023,14.08-1.45019,21.13-2.07007Zm-64.57,4.62012,1.51-7.16016,41.52,7.85987v6.93017l-21.54,4.62012-35.69-8.55029Zm7.88,12.90991c-3.8-.90991-7.57-1.89013-11.35-2.84009-3.76-1.02-7.54-1.99-11.29-3.06-3.75-1.04981-7.5-2.12989-11.22-3.31006,3.82.78027,7.62,1.67016,11.41,2.57007,3.8.91015,7.57,1.89013,11.35,2.84008,3.76,1.02,7.54,1.99,11.29,3.05l5.62,1.60987c1.87.57006,3.74,1.1101,5.6,1.7102-1.91-.38013-3.81-.83008-5.72-1.24023Zm4.48,12.65991-.47-3.16992c-2.71-.6101-5.41-1.23-8.11-1.88012q-4.14-.95985-8.27-2-4.14-1.0049-8.25-2.09986l-8.11-2.20019-.04,4.03027h4.15l16.71,5.30981,8,2.55h-15.19q1.17.21021,2.34.45c2.33.45,4.67.94019,7,1.42994,1.84.40014,3.7.75,5.55,1.1101,1.78.36011,3.58.65992,5.37.99Zm12.51,13.21c-.03,0-.06.01-.09.01l.17.01C407.40729,292.73631,407.38733,292.73631,407.3573,292.7263Zm-12.51-13.21-.47-3.16992c-2.71-.6101-5.41-1.23-8.11-1.88012q-4.14-.95985-8.27-2-4.14-1.0049-8.25-2.09986l-8.11-2.20019-.04,4.03027h4.15l16.71,5.30981,8,2.55h-15.19q1.17.21021,2.34.45c2.33.45,4.67.94019,7,1.42994,1.84.40014,3.7.75,5.55,1.1101,1.78.36011,3.58.65992,5.37.99Zm0,0-.47-3.16992c-2.71-.6101-5.41-1.23-8.11-1.88012q-4.14-.95985-8.27-2-4.14-1.0049-8.25-2.09986l-8.11-2.20019-.04,4.03027h4.15l16.71,5.30981,8,2.55h-15.19q1.17.21021,2.34.45c2.33.45,4.67.94019,7,1.42994,1.84.40014,3.7.75,5.55,1.1101,1.78.36011,3.58.65992,5.37.99Zm0,0-.47-3.16992c-2.71-.6101-5.41-1.23-8.11-1.88012q-4.14-.95985-8.27-2-4.14-1.0049-8.25-2.09986l-8.11-2.20019-.04,4.03027h4.15l16.71,5.30981,8,2.55h-15.19q1.17.21021,2.34.45c2.33.45,4.67.94019,7,1.42994,1.84.40014,3.7.75,5.55,1.1101,1.78.36011,3.58.65992,5.37.99Zm0,0-.47-3.16992c-2.71-.6101-5.41-1.23-8.11-1.88012q-4.14-.95985-8.27-2-4.14-1.0049-8.25-2.09986l-8.11-2.20019-.04,4.03027h4.15l16.71,5.30981,8,2.55h-15.19q1.17.21021,2.34.45c2.33.45,4.67.94019,7,1.42994,1.84.40014,3.7.75,5.55,1.1101,1.78.36011,3.58.65992,5.37.99Zm0,0-.47-3.16992c-2.71-.6101-5.41-1.23-8.11-1.88012q-4.14-.95985-8.27-2-4.14-1.0049-8.25-2.09986l-8.11-2.20019-.04,4.03027h4.15l16.71,5.30981,8,2.55h-15.19q1.17.21021,2.34.45c2.33.45,4.67.94019,7,1.42994,1.84.40014,3.7.75,5.55,1.1101,1.78.36011,3.58.65992,5.37.99Z"/><path d="M407.43732,292.74632l-.17-.01c.03,0,.06-.01.09-.01C407.38733,292.73631,407.40729,292.73631,407.43732,292.74632Z" fill="#fff"/><path d="M382.49082,253.94907c3.61987.43982,7.22143.98352,10.82031,1.543,3.59912.55713,7.1831,1.19958,10.77563,1.79529,3.57862.67224,7.16455,1.30371,10.73658,2.01452,3.57177.71167,7.14111,1.438,10.6914,2.27027-3.62012-.43836-7.22168-.98243-10.82056-1.54126-3.59863-.5597-7.18334-1.19886-10.77514-1.797-3.57837-.67481-7.165-1.30286-10.73657-2.01624C389.61069,255.50656,386.0416,254.77976,382.49082,253.94907Z"/><path d="M407.171,449.34153a5.80713,5.80713,0,1,1,5.80664-5.80664A5.81307,5.81307,0,0,1,407.171,449.34153Zm0-10.65137a4.84424,4.84424,0,1,0,4.84375,4.84473A4.84938,4.84938,0,0,0,407.171,438.69016Z"/><path d="M306.59485,407.86887a5.80664,5.80664,0,1,1,5.80664-5.80664A5.81318,5.81318,0,0,1,306.59485,407.86887Zm0-10.65039a4.84375,4.84375,0,1,0,4.84375,4.84375A4.84928,4.84928,0,0,0,306.59485,397.21848Z"/><path d="M462.89563,441.40208a5.80664,5.80664,0,1,1,5.80713-5.80664A5.81308,5.81308,0,0,1,462.89563,441.40208Zm0-10.65039a4.84375,4.84375,0,1,0,4.84424,4.84375A4.84918,4.84918,0,0,0,462.89563,430.75169Z"/><path d="M306.59482,352.20981c7.29443,2.23657,14.55469,4.57593,21.80957,6.93067l21.72583,7.17968,21.65308,7.39649,10.80078,3.77514,10.76733,3.874-10.92163-3.415-10.88843-3.51392L349.816,367.25547l-21.65259-7.3982C320.95883,357.35263,313.75961,354.83261,306.59482,352.20981Z"/><path d="M391.45517,371.64707c.33228-3.68335.772-7.35132,1.22778-11.01685.44458-3.66724.96582-7.323,1.48755-10.979.54493-3.65235,1.092-7.30469,1.71436-10.9458l.9375-5.46119c.34814-1.81518.6626-3.63525,1.04028-5.446-.156,1.843-.37549,3.67725-.56128,5.51611l-.66455,5.501c-.44555,3.667-.96655,7.323-1.4895,10.97876-.54639,3.65234-1.09277,7.30444-1.71606,10.94556C392.81894,364.38217,392.19052,368.02256,391.45517,371.64707Z"/><path d="M317.6532,379.87107l-8.61164,2.07788.03016-.3147c7.277,3.06446,14.55432,6.12867,21.80645,9.25074,7.24787,3.13208,14.51831,6.21191,21.74762,9.38672,7.23139,3.16992,14.48383,6.2915,21.69428,9.50976,7.2265,3.18115,14.426,6.42481,21.62182,9.67676-7.29351-3.02637-14.58337-6.06152-21.84625-9.15894-7.27893-3.0603-14.51587-6.21753-21.77392-9.32592-7.26007-3.10376-14.479-6.30249-21.72052-9.44922-7.23719-3.1565-14.44934-6.37085-21.66169-9.585a.16542.16542,0,0,1-.09-.21582.17487.17487,0,0,1,.12018-.09888Z"/><path d="M328.96783,365.85984a21.16714,21.16714,0,0,1,3.76746-2.1687,20.92566,20.92566,0,0,1,4.09918-1.44678,20.92135,20.92135,0,0,1-3.76745,2.1687A21.16679,21.16679,0,0,1,328.96783,365.85984Z"/><path d="M324.11731,363.89622a20.38055,20.38055,0,0,1,3.67425-2.16724,20.147,20.147,0,0,1,4.0124-1.44849,20.13088,20.13088,0,0,1-3.67426,2.16724A20.38061,20.38061,0,0,1,324.11731,363.89622Z"/><path d="M319.26935,361.45628a13.99214,13.99214,0,0,1,2.94855-1.938,13.82847,13.82847,0,0,1,3.30731-1.229,13.829,13.829,0,0,1-2.94855,1.93775A13.99144,13.99144,0,0,1,319.26935,361.45628Z"/><path d="M333.76788,368.395a26.06179,26.06179,0,0,1,4.2063-2.37036,25.77965,25.77965,0,0,1,4.538-1.64869,25.75814,25.75814,0,0,1-4.2063,2.37037A26.05832,26.05832,0,0,1,333.76788,368.395Z"/><path d="M338.6192,370.36008a27.24152,27.24152,0,0,1,4.304-2.41528,26.9277,26.9277,0,0,1,4.63568-1.6936,26.90936,26.90936,0,0,1-4.304,2.41528A27.22089,27.22089,0,0,1,338.6192,370.36008Z"/><path d="M343.44037,372.66062a31.24946,31.24946,0,0,1,4.93677-2.78589A30.8713,30.8713,0,0,1,353.697,367.917a30.88928,30.88928,0,0,1-4.93683,2.78589A31.22816,31.22816,0,0,1,343.44037,372.66062Z"/><path d="M348.29059,374.63767a36.80217,36.80217,0,0,1,5.2251-3.09839,36.41209,36.41209,0,0,1,5.62121-2.30273,36.365,36.365,0,0,1-5.22516,3.09814A36.79612,36.79612,0,0,1,348.29059,374.63767Z"/><path d="M324.11731,363.89622a85.41184,85.41184,0,0,0-1.38,9.79,87.76121,87.76121,0,0,0-.39,9.87011s-4.48.32007-4.82-2.3l1.78-19.8A5.11953,5.11953,0,0,0,324.11731,363.89622Z"/><path d="M333.76733,368.39622a85.41181,85.41181,0,0,0-1.38,9.79,87.74705,87.74705,0,0,0-.39,9.87011s-4.4.31006-4.8-2.23v-.01a90.64617,90.64617,0,0,0,1.35-9.65014,85.624,85.624,0,0,0,.38-9.87989,85.39467,85.39467,0,0,0-1.38,9.79,87.51174,87.51174,0,0,0-.39,9.45c-.44.03-4.37.15992-4.76-2.22a98.36864,98.36864,0,0,0,1.72-19.41015,5.34567,5.34567,0,0,0,4.85,1.9602l-.01.09986A5.11967,5.11967,0,0,0,333.76733,368.39622Z"/><path d="M353.02728,377.8364l-1.76,19.65992s-4.48.32006-4.82-2.29981l.01-.13013v-.01a87.80911,87.80911,0,0,0,1.38-9.78,85.61653,85.61653,0,0,0,.38-9.88012,97.18781,97.18781,0,0,0-1.76,19.52c-.27.02-4.33.22021-4.78-2.17993a88.512,88.512,0,0,0,1.31-9.44,85.36622,85.36622,0,0,0,.38-9.86987,87.65673,87.65673,0,0,0-1.38,9.7898,86.40024,86.40024,0,0,0-.39,9.1101c-.6.03-4.3.10987-4.72-2.16992a98.67633,98.67633,0,0,0,1.7-19.32007,85.39465,85.39465,0,0,0-1.38,9.79,86.48407,86.48407,0,0,0-.4,9.3999c-.48.03-4.36.15015-4.75-2.22a85.64392,85.64392,0,0,0,1.33-9.53,83.45643,83.45643,0,0,0,.39-9.88012,5.34557,5.34557,0,0,0,4.85,1.9602,5.14309,5.14309,0,0,0,4.82,2.3,5.0646,5.0646,0,0,0,4.79,2.73A5.11141,5.11141,0,0,0,353.02728,377.8364Z"/><path d="M353.697,377.47654a46.62171,46.62171,0,0,1,5.91046-3.43945,46.06991,46.06991,0,0,1,6.30652-2.644,46.09487,46.09487,0,0,1-5.91046,3.43946A46.59182,46.59182,0,0,1,353.697,377.47654Z"/><path d="M322.39728,383.30637a2.19551,2.19551,0,0,1-.05.25l.03-.33007A.18946.18946,0,0,0,322.39728,383.30637Z" fill="#fff"/><path d="M332.0473,387.80637a2.20864,2.20864,0,0,1-.05.25l.03-.33007A.18857.18857,0,0,0,332.0473,387.80637Z" fill="#fff"/><path d="M336.87732,390.15647c-.02.11987-.05.23-.07.34985-.01-.15991-.01-.32006-.01-.48h.05A.61127.61127,0,0,0,336.87732,390.15647Z" fill="#fff"/><path d="M341.64728,392.60642a.49252.49252,0,0,0,.03.12989c-.02.12011-.05.23-.07.35009-.01-.25-.02-.51-.01-.76h.08Z" fill="#fff"/><path d="M346.46729,394.91624l-.01.14013v-.14013Z" fill="#fff"/><path d="M327.17731,385.75632a.14227.14227,0,0,0,.02.06006v.01c-.01.04-.02.08985-.03.12989,0-.1399-.01-.29-.01-.42994h.04Z" fill="#fff"/><path d="M351.26447,397.49754a5.338,5.338,0,0,1,1.7843-1.22046,5.28224,5.28224,0,0,1,2.10467-.49341,5.2786,5.2786,0,0,1-1.78436,1.22046A5.34221,5.34221,0,0,1,351.26447,397.49754Z"/><path d="M363.10577,382.95432a81.67719,81.67719,0,0,1,8.88416-3.30615,80.72226,80.72226,0,0,1,9.17645-2.37744,80.77092,80.77092,0,0,1-8.88415,3.3064A81.72717,81.72717,0,0,1,363.10577,382.95432Z"/><path d="M356.79156,379.8762a65.37436,65.37436,0,0,1,7.50934-3.02588,64.53888,64.53888,0,0,1,7.79572-2.18482,64.58268,64.58268,0,0,1-7.50934,3.02588A65.28479,65.28479,0,0,1,356.79156,379.8762Z"/><path d="M363.2522,380.45676a47.523,47.523,0,0,1,6.47308-2.40771,46.98853,46.98853,0,0,1,6.72864-1.55664,47.015,47.015,0,0,1-6.47309,2.40771A47.55307,47.55307,0,0,1,363.2522,380.45676Z"/><path d="M365.64728,392.76633a90.66269,90.66269,0,0,0,3.06,9.51l-5.77,1-.49-1.68994-5.68.71-6.8-23.46,6.42.62989.11.37011a107.25108,107.25108,0,0,0,2.42,10.93994,110.03481,110.03481,0,0,0,3.39,10.67017,127.67475,127.67475,0,0,0-5.81-21.61011l6.24.29.83,2.86988A87.4483,87.4483,0,0,0,365.64728,392.76633Z"/><path d="M375.43732,405.56638l-5.53.84986-1.2-4.1399a89.28716,89.28716,0,0,0-2.09-9.77,86.92265,86.92265,0,0,0-3.05-9.51l5.52.5Z"/><path d="M350.13892,378.78269a90.163,90.163,0,0,1,8.85363-3.48364,89.07141,89.07141,0,0,1,9.14008-2.64258,89.12627,89.12627,0,0,1-8.8537,3.48364A90.15582,90.15582,0,0,1,350.13892,378.78269Z"/><path d="M375.43915,405.56882c3.76153-1.53369,7.55554-2.97705,11.35229-4.41284l-.19671.37281c-.50257-1.76636-.95441-3.5459-1.43409-5.31812l-1.41937-5.322-2.70434-10.6792.39923.231c-4.10584,1.051-8.21149,2.10254-12.34528,3.05151,4.03919-1.2937,8.10663-2.48462,12.17377-3.67651a.31865.31865,0,0,1,.39545.21631l.0017.00585.00232.00879,2.84235,10.64307,1.354,5.33911c.44477,1.78125.91742,3.55542,1.3393,5.34278l.00281.012a.30843.30843,0,0,1-.19971.36108C383.161,403.05442,379.31628,404.35667,375.43915,405.56882Z"/><path d="M317.87866,342.2158l-9.61029,3.19629.004-.36133c8.58514,2.79028,17.17047,5.58032,25.73273,8.43872,8.55841,2.86987,17.13751,5.67847,25.67883,8.59912,8.54321,2.9148,17.10583,5.77246,25.62982,8.74439,8.53882,2.92822,17.05286,5.92993,25.56354,8.94189-8.60028-2.74561-17.19721-5.50122-25.76929-8.33032-8.58685-2.78516-17.13519-5.68506-25.70288-8.52759-8.56958-2.83667-17.10138-5.7854-25.65393-8.67285-8.54864-2.89893-17.07422-5.86646-25.6-8.83325l-.00525-.00171a.189.189,0,0,1,.00927-.35987Z"/><path d="M329.41913,325.16477a24.17333,24.17333,0,0,1,4.08307-2.83349,23.90032,23.90032,0,0,1,4.53045-2.043,23.9,23.9,0,0,1-4.08307,2.83349A24.17491,24.17491,0,0,1,329.41913,325.16477Z"/><path d="M323.70435,323.39475a23.28355,23.28355,0,0,1,3.977-2.82275,23.022,23.022,0,0,1,4.43145-2.03638,23.00557,23.00557,0,0,1-3.97705,2.82276A23.26928,23.26928,0,0,1,323.70435,323.39475Z"/><path d="M317.94659,321.082a15.98178,15.98178,0,0,1,3.17231-2.4917,15.79958,15.79958,0,0,1,3.64935-1.71875,15.78205,15.78205,0,0,1-3.1723,2.4917A15.97364,15.97364,0,0,1,317.94659,321.082Z"/><path d="M335.13147,327.59055a29.77037,29.77037,0,0,1,4.56354-3.10547,29.45026,29.45026,0,0,1,5.011-2.31518,29.431,29.431,0,0,1-4.56353,3.10547A29.76546,29.76546,0,0,1,335.13147,327.59055Z"/><path d="M340.84735,329.362a31.07693,31.07693,0,0,1,4.67041-3.166,30.74428,30.74428,0,0,1,5.11792-2.37573,30.74132,30.74132,0,0,1-4.67047,3.166A31.09527,31.09527,0,0,1,340.84735,329.362Z"/><path d="M346.5611,331.51853a35.7304,35.7304,0,0,1,5.35577-3.64917,35.32833,35.32833,0,0,1,5.87183-2.74267,35.29108,35.29108,0,0,1-5.35572,3.64917A35.71,35.71,0,0,1,346.5611,331.51853Z"/><path d="M352.27686,333.30369A42.08186,42.08186,0,0,1,357.931,329.271a41.63867,41.63867,0,0,1,6.18195-3.16479,41.59184,41.59184,0,0,1-5.65412,4.03271A42.08287,42.08287,0,0,1,352.27686,333.30369Z"/><path d="M323.70432,323.39477a97.64506,97.64506,0,0,0-.62937,11.2857,100.33279,100.33279,0,0,0,.50613,11.2816s-5.07277.796-5.71244-2.15607l.12117-22.72764A5.853,5.853,0,0,0,323.70432,323.39477Z"/><path d="M335.131,327.59192a97.64511,97.64511,0,0,0-.62937,11.28571,100.31627,100.31627,0,0,0,.50613,11.2816s-4.98265.77692-5.68288-2.07818l-.001-.01141a103.62892,103.62892,0,0,0,.60864-11.12344,97.89085,97.89085,0,0,0-.51848-11.29176,97.627,97.627,0,0,0-.62937,11.2857,100.04744,100.04744,0,0,0,.46567,10.803c-.49836.07658-4.9629.603-5.63638-2.07063a112.45917,112.45917,0,0,0,.09037-22.27769,6.11152,6.11152,0,0,0,5.71385,1.766l-.00179.11471A5.85314,5.85314,0,0,0,335.131,327.59192Z"/><path d="M357.98094,336.49156l-.11178,22.56605s-5.07285.796-5.71242-2.15579l-.0012-.1492-.001-.01141a100.38716,100.38716,0,0,0,.63034-11.2743,97.87949,97.87949,0,0,0-.51851-11.292,111.11209,111.11209,0,0,0-.12532,22.4067c-.30561.0488-4.91149.66782-5.65526-2.02309a101.19443,101.19443,0,0,0,.58333-10.88014,97.59818,97.59818,0,0,0-.51752-11.28035,100.21481,100.21481,0,0,0-.62939,11.28542,98.78036,98.78036,0,0,0,.433,10.4158c-.6806.092-4.888.53922-5.586-2.01747a112.81447,112.81447,0,0,0,.07624-22.17313,97.6292,97.6292,0,0,0-.62938,11.2857,98.87611,98.87611,0,0,0,.44946,10.7469c-.5439.08043-4.95244.59089-5.625-2.07159a97.91394,97.91394,0,0,0,.59747-10.98469,95.41609,95.41609,0,0,0-.5071-11.293,6.11136,6.11136,0,0,0,5.71385,1.766,5.87993,5.87993,0,0,0,5.71244,2.15608,5.79018,5.79018,0,0,0,5.71963,2.64874A5.84367,5.84367,0,0,0,357.98094,336.49156Z"/><path d="M358.70929,336.01707a53.34955,53.34955,0,0,1,6.402-4.48731,52.72475,52.72475,0,0,1,6.92981-3.61938,52.72675,52.72675,0,0,1-6.402,4.4873A53.32462,53.32462,0,0,1,358.70929,336.01707Z"/><path d="M323.614,345.67246a2.50865,2.50865,0,0,1-.03287.28961l.00243-.37891A.21661.21661,0,0,0,323.614,345.67246Z" fill="#fff"/><path d="M335.04059,349.86962a2.52416,2.52416,0,0,1-.03287.28961l.00236-.37891A.21562.21562,0,0,0,335.04059,349.86962Z" fill="#fff"/><path d="M340.76925,352.08174c-.01126.13849-.0348.26681-.04606.4053-.0268-.18121-.04222-.36366-.05762-.54583l.05694-.00482A.6989.6989,0,0,0,340.76925,352.08174Z" fill="#fff"/><path d="M346.43911,354.41341a.56288.56288,0,0,0,.04672.14507c-.01124.13876-.0348.2668-.046.40557-.03548-.28384-.07192-.57908-.08459-.86484l.09115-.00771Z" fill="#fff"/><path d="M352.15249,356.58061l.00209.1606-.01349-.15964Z" fill="#fff"/><path d="M329.29528,348.00315a.16266.16266,0,0,0,.02859.06649l.001.01141c-.00755.04657-.01416.10428-.02171.15085-.01347-.15936-.03933-.32945-.0528-.48881l.04561-.00386Z" fill="#fff"/><path d="M357.866,359.0593a6.09757,6.09757,0,0,1,1.91522-1.562,6.02949,6.02949,0,0,1,2.3501-.76489,6.02948,6.02948,0,0,1-1.91516,1.562A6.09746,6.09746,0,0,1,357.866,359.0593Z"/><path d="M369.95514,341.3513a93.39966,93.39966,0,0,1,9.80249-4.62183,92.30136,92.30136,0,0,1,10.225-3.5918,92.30082,92.30082,0,0,1-9.80249,4.62183A93.39741,93.39741,0,0,1,369.95514,341.3513Z"/><path d="M362.46564,338.45286a74.70855,74.70855,0,0,1,8.26324-4.17017,73.789,73.789,0,0,1,8.67047-3.23974,73.825,73.825,0,0,1-8.26324,4.17016A74.70225,74.70225,0,0,1,362.46564,338.45286Z"/><path d="M369.88153,338.49216a54.38031,54.38031,0,0,1,7.14227-3.36621,53.75166,53.75166,0,0,1,7.51538-2.42138,53.78305,53.78305,0,0,1-7.14233,3.36621A54.43947,54.43947,0,0,1,369.88153,338.49216Z"/><path d="M373.79532,352.2845a103.65236,103.65236,0,0,0,4.40172,10.53915l-6.47685,1.69482-.72093-1.878-6.40228,1.35574-10.00569-26.07079,7.37437.09934.16094.411a122.61465,122.61465,0,0,0,3.8103,12.22976,125.79548,125.79548,0,0,0,4.88939,11.829,145.968,145.968,0,0,0-8.69969-24.05878l7.13652-.27046,1.22191,3.18943A99.97948,99.97948,0,0,0,373.79532,352.2845Z"/><path d="M386.18072,365.9236l-6.218,1.50066-1.7657-4.60061a102.0782,102.0782,0,0,0-3.32169-10.92876,99.37368,99.37368,0,0,0-4.39032-10.54011l6.33649.03806Z"/><path d="M354.78162,337.84763a103.10015,103.10015,0,0,1,9.75067-4.821,101.83211,101.83211,0,0,1,10.1579-3.89063,101.898,101.898,0,0,1-9.75068,4.82129A103.09315,103.09315,0,0,1,354.78162,337.84763Z"/><path d="M386.183,365.92625c2.06531-1.06226,4.1557-2.06958,6.23316-3.10547l6.27453-3.01489-.18823.4436c-.74261-1.96387-1.42871-3.94751-2.14581-5.92041l-2.1294-5.926-4.10913-11.90527.477.22461c-4.57623,1.59253-9.1521,3.186-13.76995,4.66528,4.47686-1.86279,8.99578-3.61133,13.5144-5.36084a.36453.36453,0,0,1,.47125.20825l.0025.0066.00354.01,4.26288,11.85083,2.05658,5.9519c.67823,1.98657,1.38745,3.96216,2.04016,5.95752l.00458.01416a.35145.35145,0,0,1-.19287.42969l-6.3819,2.78052C390.4649,364.1323,388.33655,365.05662,386.183,365.92625Z"/><polygon points="354.197 272.197 354.197 272.966 354.137 272.926 354.127 272.926 352.947 272.197 354.197 272.197" fill="#fff"/><polyline points="361.517 272.196 361.597 272.256 361.597 272.196 361.517 272.196" fill="none"/><path d="M343.36086,309.36109c3.86072,0,3.86711-6,0-6-3.86071,0-3.8671,6,0,6Z"/><path d="M278.65585,149.88315a5.06174,5.06174,0,0,1-1.10327-1.27771,6.66041,6.66041,0,0,1-.71313-1.52881,4.72547,4.72547,0,0,1-.23071-1.7135,2.29322,2.29322,0,0,1,.66113-1.60156,4.65221,4.65221,0,0,0,.08887,1.55847,12.9271,12.9271,0,0,0,.39917,1.47C278.05478,147.78147,278.42685,148.7623,278.65585,149.88315Z"/><path d="M287.78037,132.55808a5.28779,5.28779,0,0,1,1.67822-.49732,6.89368,6.89368,0,0,1,1.74927-.02929,5.24609,5.24609,0,0,1,1.71777.48022,2.809,2.809,0,0,1,1.32275,1.20142,10.30561,10.30561,0,0,0-3.1499-.726C290.02841,132.84909,288.94028,132.79624,287.78037,132.55808Z"/><path d="M289.85943,138.73732a1.44462,1.44462,0,0,0,0-2.88751,1.44462,1.44462,0,0,0,0,2.88751Z"/><path d="M291.0145,150.33176a2.53475,2.53475,0,0,1-1.29981-.041,3.2236,3.2236,0,0,1-1.17871-.6051,2.63605,2.63605,0,0,1-.78052-1.12744,1.88679,1.88679,0,0,1,.02491-1.33154,8.13187,8.13187,0,0,0,.64209.9862,5.7412,5.7412,0,0,0,.73242.73633C289.69492,149.40586,290.3187,149.789,291.0145,150.33176Z"/><path d="M260.0603,140.64308s9.702.231,13.97556-6.93c0,0,1.50151-6.006,6.58353-2.31,0,0,16.17007-6.35252,14.89956-12.12755,0,0-8.085-16.63207-27.48912-9.471S260.0603,140.64308,260.0603,140.64308Z"/><path d="M274.036,133.71311c.01636.80139.0354,1.569.09986,2.318a7.662,7.662,0,0,0,.438,2.12354,3.505,3.505,0,0,0,1.186,1.61865,6.28168,6.28168,0,0,0,2.05249.8706,3.65669,3.65669,0,0,1-2.43482-.224,3.49562,3.49562,0,0,1-1.70312-1.92456,5.48975,5.48975,0,0,1-.28687-2.46765A6.27433,6.27433,0,0,1,274.036,133.71311Z"/><path d="M259.32,116.39459s-18.43282-7.28314-.87675-16.06118,15.31483,7.95939,15.31483,7.95939"/><path d="M260.15073,140.67588a22.00184,22.00184,0,0,1-1.46655,3.75647,12.14181,12.14181,0,0,1-1.053,1.77185,5.22664,5.22664,0,0,1-1.59644,1.51831l.14819-.88367,6.13208,5.65869c2.04615,1.88257,4.12623,3.72388,6.19947,5.5658,2.08569,1.82556,4.1355,3.6958,6.30029,5.41015a35.40931,35.40931,0,0,0,3.35474,2.39221,10.72057,10.72057,0,0,0,1.79956.91944,2.85976,2.85976,0,0,0,1.80176.24109l-.19483.36157a10.40917,10.40917,0,0,0-1.52661-3.09863,18.23463,18.23463,0,0,0-2.32275-2.66529,23.64157,23.64157,0,0,0-2.74341-2.24719l-1.47852-.98279-1.52807-.90442a.515.515,0,0,1-.18287-.70507.56357.56357,0,0,1,.05274-.0741,9.31847,9.31847,0,0,1,2.70581-2.14978,8.62126,8.62126,0,0,1,3.33008-1.00671,9.48043,9.48043,0,0,1,3.47973.32348,15.09024,15.09024,0,0,1,1.64331.56421,4.63282,4.63282,0,0,0,1.29688.35217c1.741.2284,3.34668-1.06372,4.48584-2.68921a21.38079,21.38079,0,0,0,2.65625-5.49084l1.18555-.713-.10035-.01453c-.00586-.00024-.00659-.00012,0-.00024l.03565-.00037.11059-.00488.26441-.02259.57031-.07043,1.1792-.18286.5957-.1.14893-.02563a.61346.61346,0,0,0,.0625-.02527.40824.40824,0,0,1,.11572-.02576c.061-.05822.09278-.042.15283-.232a4.38874,4.38874,0,0,0-.32959-1.88465,15.53481,15.53481,0,0,0-.93286-2.08166l.03491.05371a4.93932,4.93932,0,0,1-.63183-3.02856,12.16775,12.16775,0,0,1,.52685-2.70374c.156-.50781.30982-.83044.45777-1.23206a10.61277,10.61277,0,0,0,.37622-1.1698,16.05637,16.05637,0,0,0,.52051-2.41333,24.39,24.39,0,0,0,.15478-5.01257,29.83925,29.83925,0,0,0-.74536-5.03064.09645.09645,0,0,1,.06592-.11938.10146.10146,0,0,1,.11621.05688,25.53228,25.53228,0,0,1,1.36084,5.00049,23.55691,23.55691,0,0,1,.28076,5.23059,17.01864,17.01864,0,0,1-.3501,2.63831,11.9996,11.9996,0,0,1-.34472,1.291c-.12842.40772-.30689.876-.37891,1.19336a10.565,10.565,0,0,0-.3396,2.34424,3.29086,3.29086,0,0,0,.43066,1.90527l.02393.03565.01123.01855a14.61884,14.61884,0,0,1,1.18018,2.34986,5.99744,5.99744,0,0,1,.47485,2.91272,2.38045,2.38045,0,0,1-1.22168,1.692c-.15259.06091-.30957.11707-.46753.16724l-.23022.06787-.15308.02991-.61377.11755c-.41089.07813-.82422.14636-1.2478.20361l-.64966.07776-.34766.02808-.19653.00769-.11792-.00012-.07666-.00306a1.188,1.188,0,0,1-.17676-.02136l1.18531-.71289a20.52584,20.52584,0,0,1-3.054,6.0636,9.93323,9.93323,0,0,1-2.58813,2.454,5.524,5.524,0,0,1-3.688.83313,6.282,6.282,0,0,1-1.79859-.54285,13.52606,13.52606,0,0,0-1.3894-.55334,7.912,7.912,0,0,0-2.90772-.41809,8.15824,8.15824,0,0,0-5.34375,2.33691l-.12988-.77905,1.50537,1.02734,1.44971,1.10437a33.04607,33.04607,0,0,1,2.70581,2.43836,20.957,20.957,0,0,1,2.34985,2.78869,11.38411,11.38411,0,0,1,1.67823,3.30176.294.294,0,0,1-.17994.35632l-.01489.0055a3.4268,3.4268,0,0,1-2.2832-.13489,14.19764,14.19764,0,0,1-1.98877-.84,35.893,35.893,0,0,1-3.64356-2.18151,70.19955,70.19955,0,0,1-6.70361-5.11011c-2.13183-1.82227-4.16211-3.75232-6.16846-5.70154-1.99511-1.96338-3.94433-3.96387-5.83056-6.03857l-.03394-.03724a.53261.53261,0,0,1,.03589-.75219.54469.54469,0,0,1,.14624-.09448,4.27808,4.27808,0,0,0,1.36328-1.11438,12.60151,12.60151,0,0,0,1.16553-1.53833,30.06437,30.06437,0,0,0,1.9021-3.46766.09648.09648,0,0,1,.1272-.04931A.09951.09951,0,0,1,260.15073,140.67588Z"/><path d="M255.83261,147.31125a21.31831,21.31831,0,0,0-4.97192,4.9867,38.44376,38.44376,0,0,0-3.646,6.05371,59.602,59.602,0,0,0-4.61548,13.35022l-.41479,1.72082-.30713,1.74573-.60718,3.4906c-.28613,2.34558-.58886,4.69092-.82251,7.042-.13232,2.36231-.32617,4.72034-.40918,7.08423l-.06469,7.10083v.009l-.00367.07727c-.813,9.81946-1.60913,19.65528-2.31494,29.49183-.73974,9.83569-1.42822,19.67883-1.8855,29.5343-.19262,4.92859-.39038,9.85827-.49243,14.78979-.0542,2.4657-.0791,4.93225-.09887,7.39807l.0144,7.3982c.10571,9.86157.49951,19.72314,1.37622,29.52978l-.93359-.53149a50.90647,50.90647,0,0,1,7.44092-2.87818,39.00474,39.00474,0,0,1,7.85839-1.56787,19.457,19.457,0,0,1,8.11792.82032,12.3246,12.3246,0,0,1,3.68262,2.04907l.79517.71094.718.78784,1.28711,1.37109c3.59156,3.48145,8.55957,5.396,13.57276,6.156a32.95317,32.95317,0,0,0,7.60791.32055l1.877-.21875c.60767-.12719,1.2356-.21,1.82764-.36987a9.498,9.498,0,0,0,3.18652-1.37207l-.36182.90649q-1.40075-11.53857-2.67944-23.08178c-.84766-7.69873-1.57934-15.41016-2.31128-23.121q-1.08691-11.56824-1.84936-23.16687l-.34815-5.80127c-.11059-1.934-.16235-3.87268-.24609-5.80787-.14185-3.87243-.19116-7.75134-.09033-11.62585a.096.096,0,0,1,.09863-.09363.09909.09909,0,0,1,.09375.0979c.09058,7.73633.87012,15.443,1.532,23.14832.73047,7.70276,1.572,15.3949,2.3916,23.08911l2.6543,23.0636q1.32348,11.53125,2.7605,23.04907l.012.09692a.8443.8443,0,0,1-.374.80982l-.96485.6333a6.77951,6.77951,0,0,1-.98974.47241,13.39462,13.39462,0,0,1-2.00806.67554c-.67261.18237-1.34936.27685-2.02441.41723-.676.09156-1.354.15137-2.031.22583a34.93752,34.93752,0,0,1-8.07251-.41333,31.70913,31.70913,0,0,1-7.76587-2.26123,23.04826,23.04826,0,0,1-6.77368-4.54541l-1.39014-1.51123-.59985-.67212-.66553-.60522a10.56732,10.56732,0,0,0-3.13965-1.78076,17.87762,17.87762,0,0,0-7.40747-.84986,46.34414,46.34414,0,0,0-14.85058,4.01172l-.03516.01538a.64306.64306,0,0,1-.89868-.54712c-.64648-9.87695-.75488-19.75878-.76416-29.6333l.04468-7.40576.13159-7.404c.04932-4.93652.19409-9.87146.33374-14.806q.36182-14.80683,1.12427-29.60327c.56347-9.86084,1.21631-19.71253,2.19677-29.55017l-.00366.08593.13916-7.17553c.1084-2.3899.32862-4.77649.4878-7.16382.26928-2.37879.57031-4.75842.9375-7.124l.70532-3.52674.3562-1.76123.46533-1.7384a57.59893,57.59893,0,0,1,5.06958-13.43408,39.09756,39.09756,0,0,1,3.94873-6.00672,20.51538,20.51538,0,0,1,5.2959-4.83093.09588.09588,0,0,1,.103.16162Z"/><path d="M254.59729,411.85642a37.6367,37.6367,0,0,1-.87-8.32007.05.05,0,1,1,.1,0,48.1611,48.1611,0,0,0,1.37012,8.17994,44.25394,44.25394,0,0,0,2.75,7.77,31.55877,31.55877,0,0,0,1.99,3.60009,26.64217,26.64217,0,0,0,1.90991,2.72c-.05.42994-.1.8501-.1499,1.24-.02-.02-.03-.04-.05-.06a28.35836,28.35836,0,0,1-4.47-7.1399A37.08066,37.08066,0,0,1,254.59729,411.85642Z"/><path d="M275.18738,436.88645a6.14187,6.14187,0,0,1-.84009,3.25,5.33029,5.33029,0,0,1-2.54,2.16992,12.04457,12.04457,0,0,1-6.6.29,34.30773,34.30773,0,0,1-6.35-1.88012c-2.06006-.8-4.07007-1.71-6.05-2.7l-.03-.02-.0199-.01a38.95613,38.95613,0,0,0-4.06994-2.46,35.73661,35.73661,0,0,0-4.33008-1.96,17.24314,17.24314,0,0,0-9.15-1.17016.54905.54905,0,0,1-.65-.42993.5001.5001,0,0,1-.01-.16993c.24-2.27.44006-4.55.63013-6.82006l.56994-6.83985c.34-4.56006.67005-9.12012.93006-13.68994a.05356.05356,0,0,1,.04992-.05029.04726.04726,0,0,1,.04993.05029c.05,2.2898.11011,4.57983.06006,6.87988-.03,2.29-.09,4.58008-.2,6.87012-.11011,2.2898-.21,4.57983-.4,6.85986-.16,2.05-.32995,4.1001-.53,6.14991a14.5395,14.5395,0,0,1,4.27.1101,23.85345,23.85345,0,0,1,4.73,1.32007,34.91127,34.91127,0,0,1,4.42,2.06983,39.65347,39.65347,0,0,1,4.12,2.6101,49.45976,49.45976,0,0,0,12.04993,4.84986,11.24793,11.24793,0,0,0,6.38013-.17993,4.73437,4.73437,0,0,0,2.38989-2.02,5.74433,5.74433,0,0,0,.76-2.97c-2.1499-1.53-4.33-3.02-6.51-4.52q.88514.25488,1.74.57006c1.68,1.25,3.36011,2.49,5.06006,3.7v.01A.14588.14588,0,0,1,275.18738,436.88645Z"/><path d="M261.21738,424.87412a32.20053,32.20053,0,0,1-6.38623,2.02319,32.73552,32.73552,0,0,1-6.69361.7583,23.7146,23.7146,0,0,1-6.70825-.89038,15.08584,15.08584,0,0,1-5.83642-3.3081,20.02623,20.02623,0,0,0,6.04541,2.52148,29.77525,29.77525,0,0,0,6.49365.63477,46.87022,46.87022,0,0,0,6.55762-.51416C256.86752,425.77475,259.05087,425.3978,261.21738,424.87412Z"/><path d="M258.69458,404.95432a35.72646,35.72646,0,0,1,3.66809,13.24854,44.29316,44.29316,0,0,1-.00183,6.92969,35.87125,35.87125,0,0,1-1.18237,6.85034l-.50769-.55762a13.4085,13.4085,0,0,1,4.93591.04858,26.21286,26.21286,0,0,1,4.67676,1.37818,43.13088,43.13088,0,0,1,8.47,4.66406l-.02149-.01343c1.9878.9187,3.92286,1.96021,5.98792,2.68946l1.52771.59326,1.56592.47094c.52258.15235,1.04052.32422,1.56677.45655l1.59534.30981c2.10034.33814,4.35546.54126,6.2456-.29712a4.69265,4.69265,0,0,0,2.22412-1.92773,5.4846,5.4846,0,0,0,.72217-2.86694l.2085.373-6.7489-4.759.03552.02319a27.77963,27.77963,0,0,1-6.40442-5.54614,30.22842,30.22842,0,0,1-4.42737-7.18066,39.75762,39.75762,0,0,1-2.55261-7.9961,40.74986,40.74986,0,0,1-.89307-8.30859.05226.05226,0,0,1,.052-.05225.05487.05487,0,0,1,.05225.05176,45.87027,45.87027,0,0,0,1.35168,8.17847,44.443,44.443,0,0,0,2.78577,7.7583,32.01761,32.01761,0,0,0,4.436,6.86743,26.709,26.709,0,0,0,6.16894,5.28418l.03589.02344,6.69067,4.84082.02637.019a.44447.44447,0,0,1,.18237.35425,6.41312,6.41312,0,0,1-.90295,3.42407,5.51305,5.51305,0,0,1-2.70081,2.24927,11.54066,11.54066,0,0,1-6.71411.14746l-1.62378-.38233c-.53137-.15625-1.05029-.35107-1.57592-.52246l-1.57019-.532-1.521-.65063c-2.05139-.814-3.99609-1.8462-5.97546-2.80518l-.01709-.01025-.00476-.00342a35.25051,35.25051,0,0,0-4.08838-2.4961,31.18627,31.18627,0,0,0-4.37452-1.93554,25.907,25.907,0,0,0-4.6051-1.15235,14.05159,14.05159,0,0,0-4.649.095.44038.44038,0,0,1-.51159-.54418l.00378-.01368a44.10143,44.10143,0,0,0,1.12695-6.676,43.45737,43.45737,0,0,0,.111-6.79541,40.34714,40.34714,0,0,0-2.97412-13.26.0522.0522,0,0,1,.0946-.04395Z"/><path d="M286.87607,424.87412a32.20053,32.20053,0,0,1-6.38623,2.02319,32.7336,32.7336,0,0,1-6.6936.7583,23.71462,23.71462,0,0,1-6.70826-.89038,15.08324,15.08324,0,0,1-5.83618-3.3081,20.0249,20.0249,0,0,0,6.04517,2.52148,29.77525,29.77525,0,0,0,6.49365.63477,46.8701,46.8701,0,0,0,6.55762-.51416C282.52622,425.77475,284.70957,425.3978,286.87607,424.87412Z"/><path d="M307.49731,452.10642c-5.65-.27-10.14-.37011-13.86-.54h-.02c-8.2-.36987-12.66992-1.07006-17.63-4.63012l-.02,3.1101-18.11.38013-.90991.02.04992-.25a20.70223,20.70223,0,0,1-6.66-3.26025l-.03,3.1101-19.01-.13989,3.8-18.05c7.92993-1.59009,17.91,5.8,17.91,5.8,2.19007,1.12988,4.17005,2.05982,5.95,2.75977a21.25362,21.25362,0,0,0-1.49,4.64013,20.65513,20.65513,0,0,0-.51,4.8501,21.08385,21.08385,0,0,0,1.49011-4.64014,21.76723,21.76723,0,0,0,.50989-4.85009c.01.01025.03.01025.04.02l1.76-8.57984a16.56485,16.56485,0,0,1,8.46.90991,38.499,38.499,0,0,1,9.44006,4.89014c.98.50977,1.91992.97,2.81994,1.38989,2.19007.79,4.70008,1.73,7.04993,2.76,12.74011,3.72,12.14014-4.8999,12.14014-4.8999s22.33,6.73,22.68994,11.30982C323.3573,448.21629,325.63733,452.9763,307.49731,452.10642Z"/><path d="M290.19739,414.95628c-7.61011,12.18994-44.57007,1.62011-44.57007,1.62011-1.95-.37988,0-6.7,0-6.7a176.07845,176.07845,0,0,0,1.96-23.73022c.23-7.93994.22-15.87989.17-23.81983-.15-7.93994-.30993-15.87011-.63-23.81006-.31006-7.92993-.7-15.85986-1.26-23.77l.5,23.8c.15,7.92994.33008,15.86011.39,23.79.13,7.92993.13,15.86011.05994,23.79l-.09,5.95c-.03991,1.98-.15,3.96-.21,5.93994-.03,1.98-.22009,3.96-.31994,5.94-.04.99023-.16016,1.97021-.27,2.96l-.3,2.9602c-5.55.68994-11.09009-3.92993-10.79-7.62012.3-3.7,1.08008-84.09008,1.08008-84.09008s18.95-10.15992,27.72,0c8.78,10.17016,27.40991,7.49023,27.40991,7.49023C292.44739,367.44651,290.19739,414.95628,290.19739,414.95628Z"/><path d="M281.89,167.3237a24.38249,24.38249,0,0,1,3.02856,6.0033,21.56292,21.56292,0,0,1,1.32837,6.59509c-.4148-1.05493-.75928-2.10571-1.13184-3.14953l-1.10351-3.12525C283.28769,171.55808,282.52719,169.488,281.89,167.3237Z"/><path d="M274.18005,211.8574c4.16809,6.5249,8.23792,13.11548,12.28516,19.70752l1.57373,2.38916,1.73242,2.28223c1.20532,1.48339,2.41577,2.96679,3.74011,4.35522a101.11247,101.11247,0,0,0,8.30835,7.97363c1.4419,1.27149,2.94031,2.48145,4.42957,3.69947q2.2326,1.83105,4.52393,3.59277c3.05511,2.34888,6.18481,4.602,9.32574,6.84424,6.31909,4.42383,12.77551,8.70459,19.48193,12.52563a.45759.45759,0,0,1,.06061.04151,40.216,40.216,0,0,0,4.89832,3.57421,26.57894,26.57894,0,0,0,5.465,2.57911,20.38036,20.38036,0,0,0,5.9206,1.03369,17.1205,17.1205,0,0,0,5.90838-.8794.38348.38348,0,0,1,.11353-.01855h.00982l-.11193.01806a15.677,15.677,0,0,0,1.90924-.79687,11.59208,11.59208,0,0,0,1.73773-1.0498l.21252.73974a8.24053,8.24053,0,0,1-1.95465-.65527c-.5971-.27027-1.18463-.55371-1.76007-.85571-1.15344-.60035-2.279-1.24512-3.38544-1.9231a43.61969,43.61969,0,0,1-6.33526-4.58887,13.9668,13.9668,0,0,1-1.40253-1.45874,4.868,4.868,0,0,1-1.06384-1.97265,2.264,2.264,0,0,1,1.081-2.39039,4.7008,4.7008,0,0,1,2.20252-.57861,17.01928,17.01928,0,0,1,4.02374.408,34.59472,34.59472,0,0,1,3.82568,1.02759l-.44195-.032.49347-.12037.24664-.05981.14044-.03906.079-.0293a3.81312,3.81312,0,0,0,1.31323-.7124,1.05276,1.05276,0,0,0,.39124-.93848c-.0213-.3374-.345-.7395-.323-.5664a14.43008,14.43008,0,0,1-1.98761-.50953c-1.22821-.38671-2.42566-.82373-3.61407-1.30712a29.13091,29.13091,0,0,1-3.51782-1.67774l.05914.03247-.64728-.36621c-.17432-.10937-.37207-.17627-.55579-.26855a7.58223,7.58223,0,0,0-1.19458-.38086,12.69829,12.69829,0,0,0-2.60894-.28369c-.90192-.01709-1.82776.02612-2.76752.07177a19.65144,19.65144,0,0,1-3.0025.0293,12.86271,12.86271,0,0,1-2.95624-.78491,29.275,29.275,0,0,1-2.68927-1.16992,45.00034,45.00034,0,0,1-5.02869-2.86377c-.41009-.29859-.8573-.5813-1.23279-.89795l-1.10052-.96167c-.74854-.63306-1.39294-1.32373-2.09412-1.98291q-2.02972-2.02258-3.9646-4.10938c-2.60278-2.76636-5.09149-5.62378-7.54821-8.50659-2.46534-2.87524-4.88141-5.7898-7.28162-8.71729-2.402-2.93017-4.7558-5.88354-7.01849-8.95043l-11.15857-19.81226a.09607.09607,0,0,1,.03528-.13135.09724.09724,0,0,1,.12939.03174l6.07349,9.58325c1.00952,1.6001,1.99133,3.21655,2.9663,4.84033.48462.81568.96936,1.62549,1.43653,2.46631.11682.22339.2312.39722.3501.66187.05835.11621.11706.27221.1726.35718l.15857.22a6.13792,6.13792,0,0,0,.37146.50927l.42591.55249c4.73016,5.84229,9.67327,11.58057,14.68328,17.21534,2.5149,2.812,5.05207,5.60376,7.62476,8.34838,1.28217,1.3772,2.59668,2.71949,3.92633,4.03272.67865.63135,1.331,1.32226,2.03058,1.90552l1.03772.89966c.34784.29052.70923.50585,1.06085.76513a43.05581,43.05581,0,0,0,4.82977,2.72193,19.02688,19.02688,0,0,0,5.01819,1.76733,18.80688,18.80688,0,0,0,2.65851-.00952c.94818-.03418,1.91223-.06909,2.90021-.03906a14.59912,14.59912,0,0,1,3.0119.37085,9.456,9.456,0,0,1,1.49622.49877c.23858.1189.48846.21412.71569.356l.58118.34107.05951.03247a37.25149,37.25149,0,0,0,6.71558,2.89673,14.48964,14.48964,0,0,0,1.64947.45922l.31915.04883a1.46968,1.46968,0,0,1,.53174.24,2.40926,2.40926,0,0,1,.53925.56421,2.84337,2.84337,0,0,1,.46472,1.27124,2.80533,2.80533,0,0,1-.95831,2.41382,5.44433,5.44433,0,0,1-1.97962,1.0542l.07862-.0293c-.12336.04126-.27228.08911-.37818.11475l-.28033.06225-.56055.12378a.77012.77012,0,0,1-.41412-.02221l-.0282-.00977a23.16386,23.16386,0,0,0-7.22864-1.50366,3.34526,3.34526,0,0,0-1.507.32715.82763.82763,0,0,0-.45117.874,3.63473,3.63473,0,0,0,.73633,1.40039,12.71539,12.71539,0,0,0,1.228,1.35938,42.4,42.4,0,0,0,6.007,4.64355c1.06812.69605,2.15808,1.36133,3.27008,1.98.55512.31152,1.11884.60254,1.686.87891a8.02992,8.02992,0,0,0,1.67065.63257l.0539.01049a.40608.40608,0,0,1,.15869.72925,12.21376,12.21376,0,0,1-1.91321,1.08985,17.95868,17.95868,0,0,1-2.01953.78344.38219.38219,0,0,1-.11225.01807h-.00982l.11316-.01831a17.80144,17.80144,0,0,1-6.152.853,20.98869,20.98869,0,0,1-6.08923-1.12574,30.49487,30.49487,0,0,1-5.61011-2.58984,40.8585,40.8585,0,0,1-5.03607-3.56982l.06024.04126q-10.21775-5.58069-19.95526-11.96119c-3.255-2.11572-6.403-4.39331-9.51441-6.72021q-4.6832-3.471-9.04071-7.37134a102.65936,102.65936,0,0,1-8.32617-8.20459,53.10251,53.10251,0,0,1-6.99365-9.41235q-5.7953-10.06824-11.38867-20.24048a.0962.0962,0,0,1,.16552-.0979Z"/><path d="M253.85825,174.2009a25.6925,25.6925,0,0,1,4.627-5.59314,20.08124,20.08124,0,0,1,6.23413-3.93005,14.61713,14.61713,0,0,1,7.44751-.84314,17.38939,17.38939,0,0,1,6.95776,2.77417l.0127.00842a.80066.80066,0,0,1,.22119.21948c1.60425,2.39966,3.02393,4.868,4.39258,7.37964,1.37744,2.50244,2.64819,5.05982,3.90942,7.616,1.261,2.55676,2.49659,5.1239,3.677,7.7185,1.19482,2.58826,2.2998,5.219,3.36792,7.87171a.44677.44677,0,0,1-.04029.41174l-.0105.0155a37.247,37.247,0,0,1-4.98437,5.98389,39.90306,39.90306,0,0,1-6.08106,4.87231,40.03475,40.03475,0,0,1-14.45507,5.82972.99385.99385,0,0,1-1.08692-.52661l-.01245-.02564c-2.63818-5.25684-5.13135-10.58057-7.56616-15.93542-1.24121-2.66553-2.39282-5.375-3.54883-8.08155q-.873-2.027-1.66821-4.09094a30.46141,30.46141,0,0,1-1.40772-4.21387.0949.0949,0,0,1,.1814-.05371l.00854.0221c1.04053,2.69934,2.52979,5.27539,3.81763,7.902l4.03223,7.83179c2.68164,5.224,5.38574,10.43994,7.98926,15.70056l-1.09913-.55212a43.66522,43.66522,0,0,0,7.17554-1.99255,36.84352,36.84352,0,0,0,6.699-3.29578,40.46868,40.46868,0,0,0,6.03808-4.45129,35.36586,35.36586,0,0,0,5.15576-5.45252l-.05078.427c-.89746-2.6831-1.84887-5.35888-3.009-7.94885-1.14111-2.59644-2.37207-5.15723-3.75708-7.63464-1.36963-2.4856-2.853-4.90638-4.37085-7.29944-1.52686-2.38269-3.11475-4.74475-4.70093-7.0531l.23364.22754a17.24,17.24,0,0,0-6.28051-2.56409,13.76174,13.76174,0,0,0-6.7107.54419,20.51576,20.51576,0,0,0-6.095,3.3258,29.85886,29.85886,0,0,0-5.08178,4.96216l-.00342.00428a.09628.09628,0,0,1-.15747-.11Z"/><path d="M456.79611,300.95945a.50081.50081,0,0,1-.49951-.48535l-.04346-1.5a.50027.50027,0,0,1,.48536-.51465.5119.5119,0,0,1,.51464.48535l.04346,1.5a.50026.50026,0,0,1-.48535.51465Z" fill="#fff"/><path d="M460.26877,420.05906a.50013.50013,0,0,1-.49951-.48535l-.08692-2.97754a.50027.50027,0,0,1,.48536-.51465.541.541,0,0,1,.51464.48536l.08692,2.97753a.50026.50026,0,0,1-.48535.51465Zm-.17334-5.95508a.50013.50013,0,0,1-.49951-.48535l-.08692-2.97754a.50026.50026,0,0,1,.48536-.51464.51593.51593,0,0,1,.51464.48535l.08692,2.97754a.50025.50025,0,0,1-.48535.51464Zm-.17383-5.95507a.50014.50014,0,0,1-.49951-.48536l-.08691-2.97753a.50025.50025,0,0,1,.48535-.51465.53091.53091,0,0,1,.51465.48535l.08691,2.97754a.50026.50026,0,0,1-.48535.51465Zm-.17383-5.95508a.50081.50081,0,0,1-.49951-.48535l-.08642-2.97754a.50025.50025,0,0,1,.48535-.51465.51988.51988,0,0,1,.51465.48535l.08642,2.97754a.50026.50026,0,0,1-.48535.51465Zm-.17334-5.95508a.50081.50081,0,0,1-.49951-.48535l-.08691-2.97754a.50026.50026,0,0,1,.48535-.51465.52051.52051,0,0,1,.51465.48535l.08691,2.97754a.50026.50026,0,0,1-.48535.51465Zm-.17382-5.95508a.50081.50081,0,0,1-.49952-.48535l-.08691-2.97656a.50026.50026,0,0,1,.48535-.51465.5359.5359,0,0,1,.51465.48535l.08691,2.97656a.50025.50025,0,0,1-.48535.51465Zm-.17334-5.9541a.50014.50014,0,0,1-.49952-.48535l-.08691-2.97754a.50026.50026,0,0,1,.48535-.51465.55181.55181,0,0,1,.51465.48535l.08691,2.97754a.50025.50025,0,0,1-.48535.51465Zm-.17383-5.95508a.50013.50013,0,0,1-.49951-.48535l-.08692-2.97754a.50026.50026,0,0,1,.48535-.51465.52484.52484,0,0,1,.51465.48535l.08692,2.97754a.50026.50026,0,0,1-.48536.51465Zm-.17383-5.95508a.50081.50081,0,0,1-.49951-.48535l-.08643-2.97754a.50025.50025,0,0,1,.48535-.51464.50559.50559,0,0,1,.51465.48535l.08643,2.97754a.50025.50025,0,0,1-.48535.51464Zm-.17334-5.95507a.50082.50082,0,0,1-.49951-.48536l-.08692-2.97753a.50026.50026,0,0,1,.48536-.51465.51546.51546,0,0,1,.51464.48535l.08692,2.97754a.50027.50027,0,0,1-.48535.51465Zm-.17383-5.95508a.50081.50081,0,0,1-.49951-.48535l-.08691-2.97754a.50025.50025,0,0,1,.48535-.51465.52894.52894,0,0,1,.51465.48535l.08691,2.97754a.50026.50026,0,0,1-.48535.51465Zm-.17334-5.95508a.50081.50081,0,0,1-.49951-.48535l-.08691-2.97754a.50025.50025,0,0,1,.48535-.51465.546.546,0,0,1,.51465.48535l.08691,2.97754a.50026.50026,0,0,1-.48535.51465Zm-.17383-5.95508a.50081.50081,0,0,1-.49951-.48535l-.08691-2.97754a.50026.50026,0,0,1,.48535-.51465.52042.52042,0,0,1,.51465.48535l.08691,2.97754a.50026.50026,0,0,1-.48535.51465Zm-.17382-5.95508a.50081.50081,0,0,1-.49952-.48535l-.08642-2.97754a.50027.50027,0,0,1,.48535-.51465.51138.51138,0,0,1,.51465.48536l.08642,2.97754a.50025.50025,0,0,1-.48535.51464Zm-.17334-5.95507a.50014.50014,0,0,1-.49952-.48536l-.08691-2.97754a.50025.50025,0,0,1,.48535-.51464.5519.5519,0,0,1,.51465.48535l.08691,2.97754a.50026.50026,0,0,1-.48535.51465Zm-.17383-5.95411a.5008.5008,0,0,1-.49951-.48535l-.08692-2.97754a.50027.50027,0,0,1,.48535-.51465.5071.5071,0,0,1,.51465.48536l.08692,2.97754a.50026.50026,0,0,1-.48536.51464Zm-.17334-5.95507a.50081.50081,0,0,1-.49951-.48536l-.08692-2.97753a.50026.50026,0,0,1,.48535-.51465.52.52,0,0,1,.51465.48535l.08692,2.97754a.50028.50028,0,0,1-.48536.51465Zm-.17383-5.95508a.50081.50081,0,0,1-.49951-.48535l-.08692-2.97754a.50026.50026,0,0,1,.48536-.51465.53483.53483,0,0,1,.51464.48535l.08692,2.97754a.50026.50026,0,0,1-.48535.51465Zm-.17383-5.95508a.50081.50081,0,0,1-.49951-.48535l-.08643-2.97754a.50021.50021,0,0,1,1-.0293l.08643,2.97754a.50026.50026,0,0,1-.48535.51465Zm-.17334-5.95508a.50014.50014,0,0,1-.49951-.48535l-.08691-2.97754a.50025.50025,0,0,1,.48535-.51465.52552.52552,0,0,1,.51465.48535l.08691,2.97754a.50026.50026,0,0,1-.48535.51465Z" fill="#fff"/><path d="M458.92307,424.80125a.5.5,0,0,1-.08789-.99219l1.05273-.18945-.03174-1.06836a.50087.50087,0,0,1,.48535-.51465.52565.52565,0,0,1,.51465.48535l.04395,1.499a.5011.5011,0,0,1-.41162.50683l-1.47657.26563A.55134.55134,0,0,1,458.92307,424.80125Z" fill="#fff"/><path d="M417.66232,432.23973a.50007.50007,0,0,1-.08837-.99219l2.94726-.53125a.50014.50014,0,1,1,.17774.98437l-2.94727.53125A.56114.56114,0,0,1,417.66232,432.23973Zm5.89454-1.0625a.50007.50007,0,0,1-.08838-.99219l2.94726-.53125a.50014.50014,0,1,1,.17774.98437l-2.94727.53125A.56111.56111,0,0,1,423.55686,431.17723Zm5.89453-1.0625a.50007.50007,0,0,1-.08838-.99219l2.94678-.53125a.50014.50014,0,0,1,.17773.98437l-2.94678.53125A.56111.56111,0,0,1,429.45139,430.11473Zm5.894-1.0625a.50007.50007,0,0,1-.08838-.99219l2.94727-.53125a.50014.50014,0,0,1,.17773.98437l-2.94726.53125A.56124.56124,0,0,1,435.34543,429.05223Zm5.89453-1.0625a.50007.50007,0,0,1-.08838-.99219l2.94727-.53125a.50014.50014,0,1,1,.17773.98437l-2.94726.53125A.56124.56124,0,0,1,441.24,427.98973Zm5.89453-1.0625a.50007.50007,0,0,1-.08838-.99219l2.94678-.53125a.50014.50014,0,1,1,.17774.98437l-2.94678.53125A.56124.56124,0,0,1,447.13449,426.92723Zm5.894-1.0625a.50007.50007,0,0,1-.08838-.99219l2.94726-.53125a.50014.50014,0,1,1,.17774.98437l-2.94727.53125A.56111.56111,0,0,1,453.02854,425.86473Z" fill="#fff"/><path d="M413.23947,433.03758a.50007.50007,0,0,1-.08838-.99219l1.47608-.2666a.50014.50014,0,0,1,.17773.98437l-1.47607.26661A.56237.56237,0,0,1,413.23947,433.03758Z" fill="#fff"/></svg>