<svg xmlns="http://www.w3.org/2000/svg" data-name="Layer 1" viewBox="0 0 700 550"><path d="M241.12307 441.75761v25.524h14.60064v-8.304s4.07629-1.08083 10.59837 4.41412 30.95932 13.82415 36.26877 3.88985l.00137.00292c-4.45993 2.07759-15.61691-.00292-15.61691-.00292a39.20055 39.20055 0 01-15.21817-8.304 26.21012 26.21012 0 00-16.03343-6.301c-9.05489-1.45943-12.97454-6.30091-14.607-10.9177M213.67194 137.59748c-2.20347 3.62135-2.94931 7.91545-3.1513 12.07878a54.00341 54.00341 0 001.16724 12.54743A32.86816 32.86816 0 01211.123 175.197a49.55 49.55 0 01-4.6142 12.07749l-.39754-.8532a180.41767 180.41767 0 0019.35821 3.24884c3.25832.33216 6.521.62432 9.79005.80081q4.904.254 9.81016.21941a118.42932 118.42932 0 0019.45283-1.55389 52.37706 52.37706 0 009.32689-2.48512 25.98845 25.98845 0 008.12691-4.75981l-.30444.59695a29.55369 29.55369 0 00-.26667-5.4232c-.25145-1.80407-.57987-3.78229-.66209-5.69361a46.08472 46.08472 0 01.8463-11.49131c.17333-.93554.44842-1.90968.55-2.72616a23.05932 23.05932 0 00.10562-2.74417c-.03006-1.8629-.19708-3.74194-.38585-5.61513-.39251-3.749-.90981-7.498-1.494-11.23575a.09.09 0 01.07356-.10374.09139.09139 0 01.10258.06771c.88384 3.68522 1.66091 7.3971 2.23891 11.15354.282 1.87985.54362 3.76462.66841 5.68366a24.19218 24.19218 0 01.02714 2.92651c-.10667 1.06747-.34082 1.92208-.48105 2.85283a44.496 44.496 0 00-.48806 11.112c.08082.92338.17707 1.84477.30643 2.7616l.43672 2.80441c.134.95484.24222 1.91588.31192 2.88639a19.45715 19.45715 0 01.02094 3.00663.88694.88694 0 01-.28865.58279l-.01591.01451a26.61611 26.61611 0 01-8.77368 5.089 54.10112 54.10112 0 01-9.69566 2.41576 78.81776 78.81776 0 01-9.87179.9732q-4.94555.2235-9.88349.01415c-3.28826-.13169-6.571-.31567-9.84279-.616-3.27306-.27719-6.54261-.57754-9.80221-.96853q-4.89222-.556-9.77472-1.20209c-3.25949-.41964-6.50681-.87554-9.75905-1.44349a.57245.57245 0 01-.46549-.66233.57827.57827 0 01.04608-.14584l.02176-.04515a58.75666 58.75666 0 004.08555-11.87551 48.51 48.51 0 00.934-6.18179c.04514-.51823.03836-1.03717.06058-1.55611a12.71384 12.71384 0 00-.00772-1.55437l-.07731-1.55156-.20935-1.53448c-.13275-1.01671-.327-2.11634-.48678-3.16966-.16093-1.065-.24526-2.1436-.34573-3.216a43.89523 43.89523 0 01.06889-6.469 29.11129 29.11129 0 011.19543-6.35009 18.39906 18.39906 0 012.83738-5.77349.0894.0894 0 01.14655.10187z"/><path d="M282.71533,182.58213,286.385,199.562l3.57668,16.99849-.591-.441c5.97419-.59707,11.94487-1.23121,17.9228-1.78769l-.62771.68806c-.13977-5.35771-.63239-10.77986-1.16455-16.15838q-.41316-4.03977-.8925-8.074c-.32351-2.67973-.61941-5.4273-.75707-8.14808-.28163-5.4584-.13859-10.90219-.09906-16.3158a144.83732,144.83732,0,0,0-.59391-16.17054,87.35751,87.35751,0,0,0-3.16043-15.83359,21.11056,21.11056,0,0,0-3.69129-7.01733,24.80874,24.80874,0,0,0-5.95349-5.32261,44.11484,44.11484,0,0,0-14.9771-5.813,72.202,72.202,0,0,0-16.10481-1.389l.24385-.13474a19.76582,19.76582,0,0,1-5.51711,5.04227,13.4367,13.4367,0,0,1-7.18938,2.08922,14.20094,14.20094,0,0,1-7.19066-2.17974,25.7614,25.7614,0,0,1-5.74612-4.81444l.249.1524a47.20021,47.20021,0,0,0-10.06314-1.167,39.07563,39.07563,0,0,0-10.02781,1.12571,26.726,26.726,0,0,0-9.05029,4.14743,24.24374,24.24374,0,0,0-3.67106,3.34241,24.85251,24.85251,0,0,0-2.87224,4.05141c-.20105.36338-.41941.71718-.6069,1.088l-.52958,1.1311c-.366.73683-.674,1.55191-1.0056,2.33494q-.99437,2.36347-1.92126,4.75116c-1.25,3.17785-2.4264,6.38272-3.46124,9.62548-2.07646,6.47056-3.68919,13.13082-3.65562,19.85763-.01486,1.696.12514,3.32346.16748,5.11689.02936,1.7457-.00491,3.468-.05532,5.19034q-.16842,5.16255-.49,10.30173-.62087,10.28529-1.61834,20.54c-.36526,3.41914-.73368,6.831-1.27121,10.255-.13591.85484-.28117,1.71366-.495,2.59423-.19812.86982-.44186,1.656-.64665,2.49131-.42082,1.64782-.81075,3.30592-1.12268,4.96461-.077.41415-.14935.82865-.2097,1.23882a8.74881,8.74881,0,0,0-.11345,1.14232.212.212,0,0,0,.00093.02608c.00035.01544.00012-.00526-.01333-.05052a.71817.71817,0,0,0-.08456-.17064.75811.75811,0,0,0-.58327-.29953l.11064.004.32187.0159.63789.02936,1.27624.04725c1.70208.05333,3.40545.069,5.10344.03111,1.6974-.03684,3.3927-.13251,5.05747-.33532a18.79987,18.79987,0,0,0,2.441-.44666,4.57878,4.57878,0,0,0,1.98652-.92887l-.15368.3773c.21778-3.46639.54245-6.90493.92911-10.345q.57648-5.15714,1.45156-10.27706c.585-3.41024,1.3118-6.80037,2.23342-10.13834a39.23768,39.23768,0,0,1,3.7989-9.64513l.1545.09169a38.93848,38.93848,0,0,0-3.4837,9.67671c-.8173,3.34171-1.4401,6.73137-1.92173,10.14057-.49894,3.40615-.9194,6.82517-1.22922,10.25541-.315,3.42709-.56876,6.86985-.71414,10.29741l-.00971.23064-.14409.147a5.54653,5.54653,0,0,1-2.55774,1.34384,20.0557,20.0557,0,0,1-2.603.53333,48.57746,48.57746,0,0,1-5.19513.41953c-1.729.06023-3.45528.06573-5.1804.03333l-1.2939-.03181-.64678-.02164-.32034-.01181-.04994-.00176a.8353.8353,0,0,1-.64432-.34584.85676.85676,0,0,1-.11544-.244,1.11436,1.11436,0,0,1-.04129-.20854c-.0069-.05544-.00947-.09883-.0104-.134a9.35788,9.35788,0,0,1,.11075-1.41659c.05895-.43859.12877-.86946.203-1.29893.30047-1.71495.67543-3.40077,1.08174-5.0797.19275-.83227.44409-1.68957.61426-2.49365.18117-.78876.3131-1.6215.43555-2.46172.48444-3.35668.811-6.76938,1.13133-10.17191.62608-6.81324,1.15776-13.64332,1.54688-20.47644q.30385-5.1245.46011-10.24583c.0455-1.70454.074-3.41106.04117-5.093-.03976-1.634-.19345-3.42685-.18175-5.16086-.01871-7.03277,1.72968-13.871,3.8686-20.408,1.073-3.28229,2.2836-6.5095,3.56545-9.70314q.95068-2.40049,1.96769-4.77023c.34245-.79262.645-1.58173,1.045-2.37973l.56993-1.19332c.20175-.392.43578-.76818.65251-1.15273a24.4081,24.4081,0,0,1,7.08551-7.7951,28.14671,28.14671,0,0,1,9.6-4.23269,40.33367,40.33367,0,0,1,10.37226-1.00923,48.19914,48.19914,0,0,1,10.31015,1.35776l.14549.03626.10386.11625a24.93023,24.93023,0,0,0,5.4556,4.7231,13.34429,13.34429,0,0,0,6.72927,2.16558,12.6951,12.6951,0,0,0,6.8261-1.874,19.01025,19.01025,0,0,0,5.34812-4.82l.09953-.13169.14456-.00316a73.6616,73.6616,0,0,1,16.2448,1.48583,44.7095,44.7095,0,0,1,15.23325,5.78074,26.81383,26.81383,0,0,1,6.18623,5.40378,21.96847,21.96847,0,0,1,3.98182,7.219,87.90278,87.90278,0,0,1,3.51632,15.97171,127.75613,127.75613,0,0,1,.856,16.322c-.00666,5.43244-.11438,10.845.19684,16.22305.29228,5.35584,1.07671,10.74489,1.543,16.16224.4931,5.419.94666,10.81436,1.04794,16.30446l.01158.63016-.63952.058c-5.9791.54257-11.96534,1.00736-17.9483,1.50934l-.50011.042-.091-.48327L285.66324,199.706l-3.124-17.08877Z"/><path d="M180.80725,229.31447c-.076,2.65073-.21345,5.29677-.32444,7.94481-.11193,2.648-.28573,5.29116-.42561,7.93708-.14971,2.645-.28351,5.29128-.47871,7.93288l-.54268,7.928-.006.08748-.06584.18222c-.26059.721-.5897,1.40887-.79953,2.1519-.18151.75344-.45391,1.47507-.56256,2.25249a35.77923,35.77923,0,0,0-.649,4.64684,72.68636,72.68636,0,0,0-.08573,9.48642,88.72518,88.72518,0,0,0,1.02537,9.48688c.13953.782.27625,1.56642.45075,2.3367a7.09606,7.09606,0,0,0,.74374,2.16313,5.65423,5.65423,0,0,0,3.58334,2.581l.14678.03275.06643.13146.3421.67754c.12608.21719.26877.42221.40163.63473a3.971,3.971,0,0,0,1.05,1.00419,2.36441,2.36441,0,0,0,1.3415.35965,2.701,2.701,0,0,0,1.32747-.4124l.2414-.15333.1621.23029a1.89854,1.89854,0,0,0,1.15893.66175,5.23529,5.23529,0,0,0,1.47846.10608l-.026.00327a1.349,1.349,0,0,0,.7518-.454,2.48293,2.48293,0,0,0,.41286-.88911,7.47313,7.47313,0,0,0,.18959-2.12605,25.87606,25.87606,0,0,0-.62514-4.3638,68.57783,68.57783,0,0,0-2.51377-8.5207l-.03333-.09252-.00023-.106a7.654,7.654,0,0,1,.17263-1.81167,3.4461,3.4461,0,0,1,.98115-1.76945,3.04674,3.04674,0,0,1,1.9553-.73952,5.31706,5.31706,0,0,1,1.89038.28374,6.07251,6.07251,0,0,1,2.98709,2.23225,6.62644,6.62644,0,0,1,.87052,1.65389l.58619,1.54384c.394,1.02256.7994,2.042,1.27238,2.98464.45508.91823,1.06794,1.86606,1.65,2.06757a1.397,1.397,0,0,0,1.01484-.07426c.13894-.04667.12818-.05228.12818-.05228a.10418.10418,0,0,0,.0331-.05123,1.27345,1.27345,0,0,0,.1014-.44561,9.54606,9.54606,0,0,0-.4904-2.94581c-.29941-1.02431-.67063-2.04652-1.07063-3.05949-.40724-1.03542-.8256-1.96816-1.2863-3.07282a11.029,11.029,0,0,1-.70268-3.5582c-.02538-.60444.01182-1.21051-.0152-1.67378a12.02693,12.02693,0,0,0-.14573-1.52068c-.7656-4.11772-2.88136-8.114-5.14625-11.76534l-.18315-.29543.04035-.28994c.77531-5.57431,1.48115-11.15692,2.31353-16.72421.79894-5.57127,1.62408-11.13938,2.52406-16.69849l.17848.02175c-.45976,5.61268-.99437,11.21611-1.55518,16.81638-.52736,5.60449-1.18139,11.19342-1.76583,16.79089l-.14268-.585a43.52615,43.52615,0,0,1,3.39,5.88893,26.755,26.755,0,0,1,2.24465,6.51792,13.96411,13.96411,0,0,1,.16912,1.78969c.02584.646-.01076,1.14957.01134,1.65436a9.11621,9.11621,0,0,0,.57064,2.94592,49.928,49.928,0,0,1,2.3326,6.32015,10.94743,10.94743,0,0,1,.49917,3.60545,2.91469,2.91469,0,0,1-.333,1.14712,1.81406,1.81406,0,0,1-.49824.57952,1.93229,1.93229,0,0,1-.614.30994,3.117,3.117,0,0,1-2.22968.03111,3.84173,3.84173,0,0,1-1.61729-1.3663,10.68592,10.68592,0,0,1-.90443-1.56746c-.50526-1.05028-.90221-2.10383-1.28992-3.15738l-.55345-1.58408a5.06014,5.06014,0,0,0-.63683-1.30138,4.59141,4.59141,0,0,0-2.20851-1.75507,2.62976,2.62976,0,0,0-2.48745.10971,3.53071,3.53071,0,0,0-.83473,2.57014l-.03356-.19813a74.183,74.183,0,0,1,2.20851,8.75287,26.58735,26.58735,0,0,1,.47765,4.51608,8.59638,8.59638,0,0,1-.25275,2.31482,3.09855,3.09855,0,0,1-.54736,1.11425,1.97887,1.97887,0,0,1-1.13671.6607l-.01333.0028-.0131.00059a5.80978,5.80978,0,0,1-1.66793-.14164,2.4551,2.4551,0,0,1-1.49893-.92338l.40327.077a3.23361,3.23361,0,0,1-1.63822.49391,3.04926,3.04926,0,0,1-1.64068-.44806,4.50908,4.50908,0,0,1-1.21776-1.13753c-.14783-.22865-.306-.45309-.4442-.68666l-.37205-.7201.21287.164a6.42436,6.42436,0,0,1-4.06732-2.79762,8.39267,8.39267,0,0,1-.90022-2.32792c-.21508-.783-.38923-1.56957-.56689-2.35681a87.7666,87.7666,0,0,1-1.4663-9.55332,57.82248,57.82248,0,0,1-.21146-9.70631,27.16477,27.16477,0,0,1,2.221-9.58513l-.0717.26924.67929-7.91744c.21216-2.64031.48572-5.27583.74327-7.91252.26748-2.636.50092-5.27455.79636-7.90843.29637-2.63377.56631-5.26952.89765-7.9006Z"/><path d="M182.44091,278.02867a49.71925,49.71925,0,0,0,3.24183,10.37061,23.69541,23.69541,0,0,1,1.80441,5.201,20.94819,20.94819,0,0,1,.47286,5.54331l-.89273-.10187a20.27067,20.27067,0,0,0-.24164-5.31232,23.11459,23.11459,0,0,0-1.55647-5.15455A49.94083,49.94083,0,0,1,182.44091,278.02867Z"/><polygon points="179.905 284.073 183.061 296.617 182.183 296.806 179.905 284.073"/><path d="M305.16789,215.23256c.03579,3.07318.00082,6.14389.00737,9.21567l-.095,9.21122c-.0552,6.1405-.23239,12.27714-.30655,18.41507-.10222,6.13664-.32584,12.27094-.48092,18.40045-.03275,1.532-.05614,3.06428-.0462,4.58988.00889.75847.01321,1.533.07883,2.25961a4.80993,4.80993,0,0,0,.7704,1.96255c1.49038,2.63926,3.45539,5.0321,4.95513,7.76878l.22643.41321-.475-.00117-3.05142-.0076.25707-.36584c.99636,2.76827,1.923,5.55513,2.71213,8.39532a37.70585,37.70585,0,0,1,.99647,4.33573,9.15329,9.15329,0,0,1,.09439,1.15016,2.20514,2.20514,0,0,1-.3069,1.3256.91766.91766,0,0,1-.43286.29789,1.80153,1.80153,0,0,1-.2676.05228l-.14619-.00117a4.88357,4.88357,0,0,1-.59087-.02655,4.17993,4.17993,0,0,1-1.19461-.28151,7.94011,7.94011,0,0,1-3.34112-3.21926,30.32671,30.32671,0,0,1-2.10594-3.95983c-1.216-2.71154-2.203-5.49688-3.14685-8.29018l.77695.54152-7.96785.44069-.88654.049-.00479-.90794-.18947-35.21637c-.01778-5.86939-.147-11.73528-.27123-17.60023q-.11175-4.398-.35637-8.78748c-.07789-1.46325-.17578-2.92545-.32631-4.38052a25.03527,25.03527,0,0,0-.71578-4.31211l.16865-.0621a22.43595,22.43595,0,0,1,1.02806,4.30988c.2414,1.45554.42959,2.91739.59777,4.38029.32994,2.92721.55461,5.86191.76783,8.79637.42677,5.86951.61566,11.74768.82618,17.62315.17591,5.87653.2876,11.754.29895,17.63134.03848,5.878-.04877,11.75271-.124,17.63275l-.89121-.85871,7.97462-.29192.60456-.02211.17263.56374c.8539,2.789,1.772,5.55922,2.86417,8.242a29.16421,29.16421,0,0,0,1.86372,3.88276,6.96221,6.96221,0,0,0,2.74967,2.935,3.23868,3.23868,0,0,0,.92946.25287,4.02373,4.02373,0,0,0,.50607.0407l.12865.00584c.00117-.009-.00058-.011.00117-.00608.01322.02176-.00935-.01146.015.00141a1.61816,1.61816,0,0,0,.15591-.7904,8.36574,8.36574,0,0,0-.04959-1.043,31.60094,31.60094,0,0,0-.84338-4.26228c-.74444-2.8223-1.63366-5.61817-2.5878-8.38141l-.12608-.365.38327-.00094,3.05142-.00748-.2483.41181c-1.46688-2.65108-3.49036-4.98976-5.13245-7.63557q-.30823-.49894-.58572-1.02724a4.28035,4.28035,0,0,1-.2531-.56444,3.484,3.484,0,0,1-.13368-.6587c-.10713-.79917-.14222-1.56162-.1862-2.3367-.07824-1.54337-.12257-3.08171-.15415-4.61982q-.20754-9.22776.06866-18.438c.21216-6.1398.37765-12.27972.69379-18.4146l.48479-9.2014c.20772-3.06545.37894-6.13184.63215-9.19531Z"/><polygon points="306.397 287.324 304.911 282.425 307.105 287.05 306.397 287.324"/><polygon points="299.355 287.475 298.137 281.081 301.057 286.899 299.355 287.475"/><path d="M292.045,287.00178s-5.61579,109.6291-17.02713,137.65416a345.57054,345.57054,0,0,1-58.15264,10.44086,344.48443,344.48443,0,0,1-60.0573.2696Q168.3584,365.34888,179.909,295.34012a6.09725,6.09725,0,0,0,2.71357,1.37477c1.9947,4.39381,4.88792,2.38112,4.88792,2.38112.72786,1.09617,2.90222.91651,2.90222.91651,4.34894-.73674-1.26684-16.85634-1.26684-16.85634,0-3.29763,1.67113-3.84572,3.35148-3.56723a5.42175,5.42175,0,0,1,4.1332,3.60309c2.17447,6.128,3.29762,8.09573,5.74159,7.10748,1.90487-.77283-.42228-6.8019-1.97672-10.342a10.4267,10.4267,0,0,1-.79981-4.65441c.23363-5.93024-5.56182-14.40339-5.56182-14.40339l4.07934-33.51493s1.35679-29.39983,7.88009-40.38878c0,0,58.70063,12.08523,76.63516-4.3938l6.79279,34.06312C292.593,225.27313,292.045,287.00178,292.045,287.00178Z"/><path d="M309.80163,287.142c1.77062-.1152,3.54194-.19029,5.313-.2835l1.32852-.05369c.23321-.005.41683-.02666.69051-.018a1.757,1.757,0,0,1,.74222.22222,1.80062,1.80062,0,0,1,.88782,1.23893c.06561.54023.033.91321.05427,1.378.04058,3.54522.07684,7.09043.078,10.63565l-.01684,2.65879-.00854,1.32946-.00854.66478-.00667.33228a2.13417,2.13417,0,0,1-.04736.402,1.87588,1.87588,0,0,1-.96128,1.24467,1.82046,1.82046,0,0,1-.7739.19824l-.67894-.00936-2.65891-.0545q-5.31783-.121-10.63565-.09415l-.04491.00023-.04222-.02854a14.43672,14.43672,0,0,0-3.88287-2.00675,2.41817,2.41817,0,0,0-1.96746.04818,2.0196,2.0196,0,0,0-.50514,1.82021l.06023.76818-.51976-.58011c-.62478-.69742-1.28232-1.37869-1.96348-2.02044a10.31166,10.31166,0,0,0-2.1657-1.66465,1.03583,1.03583,0,0,0-.48268-.13041c-.06866.01006-.07649.0145-.12714.19625-.02128.15205-.03427.42982-.04877.66093l-.04491.70443a5.52584,5.52584,0,0,0,.356,2.60956,16.56755,16.56755,0,0,0,3.2706,4.42123,1.79567,1.79567,0,0,0,2.02862.61952c.64994-.23789.84163-1.08665.76725-1.95728l-.0931-1.08923.86034.69485a8.19657,8.19657,0,0,0,2.40733,1.40851,1.68158,1.68158,0,0,0,1.13589.03381,1.29908,1.29908,0,0,0,.61111-.85637l.36315-1.11121.48432,1.042a20.73384,20.73384,0,0,0,2.59786,4.3362,6.12688,6.12688,0,0,0,1.82056,1.59565,1.83156,1.83156,0,0,0,2.07693-.17274,4.96608,4.96608,0,0,0,1.42209-1.94582,8.20332,8.20332,0,0,0,.4966-2.45518,15.18709,15.18709,0,0,0-.651-5.07385l.08456-.03052a15.4165,15.4165,0,0,1,.97344,5.117,8.65429,8.65429,0,0,1-.42011,2.62475,5.52173,5.52173,0,0,1-1.51682,2.25448,2.49347,2.49347,0,0,1-1.33472.5973,2.7429,2.7429,0,0,1-1.43975-.27427,6.81238,6.81238,0,0,1-2.10664-1.73412,20.66709,20.66709,0,0,1-2.82592-4.47047l.84735-.06924a2.18826,2.18826,0,0,1-1.10852,1.45577,2.55243,2.55243,0,0,1-1.78383.01345,9.02684,9.02684,0,0,1-2.73622-1.57015l.76712-.39438a4.07,4.07,0,0,1-.14935,1.59483,2.11492,2.11492,0,0,1-1.18046,1.31226,2.69871,2.69871,0,0,1-3.07282-.86455,17.27385,17.27385,0,0,1-3.37715-4.73947,6.17559,6.17559,0,0,1-.36338-2.97668l.06807-.71332c.02538-.24117.0304-.43789.085-.75438a1.2651,1.2651,0,0,1,.22468-.47988.833.833,0,0,1,.551-.27871,1.6481,1.6481,0,0,1,.87472.22117,10.78238,10.78238,0,0,1,2.28044,1.85366c.67812.68057,1.31706,1.38571,1.93494,2.12044l-.45941.18807a4.17622,4.17622,0,0,1,.08994-1.1794,1.73658,1.73658,0,0,1,.68222-1.04935,1.90427,1.90427,0,0,1,1.19776-.27134,4.54095,4.54095,0,0,1,1.1339.235,16.05207,16.05207,0,0,1,3.94708,2.12676l-.0869-.02819q5.31783.0342,10.63565-.09415l2.65891-.0545.65028-.0165a1.18743,1.18743,0,0,0,.4973-.149,1.20128,1.20128,0,0,0,.58128-.818l-.02152-5.24367c.00129-3.54522.03743-7.09043.07813-10.63565-.00035-.42022.03708-.93764.00573-1.278a1.23824,1.23824,0,0,0-.57906-.876,1.9213,1.9213,0,0,0-1.15261-.18281l-1.32969.00234c-1.77343-.01871-3.54639-.01906-5.32028-.05965Z"/><path d="M296.39608 306.78558a4.34124 4.34124 0 011.32688 1.5787 4.29189 4.29189 0 01.53005 1.99307 4.29321 4.29321 0 01-1.32676-1.57881A4.34 4.34 0 01296.39608 306.78558zM303.09938 306.78558a4.12738 4.12738 0 01.47157 1.95237 4.08081 4.08081 0 01-.42631 1.96278 4.08133 4.08133 0 01-.47169-1.95237A4.12631 4.12631 0 01303.09938 306.78558zM259.16828 114.4792a15.64294 15.64294 0 01-.49309-3.91621 5.19027 5.19027 0 01.40245-2.05342 1.5312 1.5312 0 01.32409-.49637 1.37609 1.37609 0 01.49812-.39707 2.28466 2.28466 0 011.16876-.22c1.35483.03543 2.60125.16128 3.86568.11964a11.06052 11.06052 0 003.60006-.62549 6.60186 6.60186 0 002.79927-1.99728 6.98919 6.98919 0 00.87788-1.51156 8.31792 8.31792 0 00.56666-1.70021 28.55616 28.55616 0 00.50046-3.73468l.41485-3.86931c.56163-5.12519 1.05905-10.32641.14842-15.42657a30.47166 30.47166 0 00-2.23576-7.36949 33.77231 33.77231 0 00-4.096-6.4826l.96724-.14994A67.21722 67.21722 0 01265.85 71.259a57.28218 57.28218 0 01-3.31622 6.32015 31.24543 31.24543 0 01-4.384 5.77606 12.58294 12.58294 0 01-3.0299 2.27552 6.92581 6.92581 0 01-3.93492.84338.9693.9693 0 01-.73238-.47987l-.00515-.00913A20.86657 20.86657 0 00246.126 80.3689a3.53471 3.53471 0 00-1.309-.714 1.22122 1.22122 0 00-1.095.2214 5.83789 5.83789 0 00-1.49191 2.87154 12.62921 12.62921 0 00-.40409 1.74243 10.25609 10.25609 0 00-.18292 1.76921 9.31644 9.31644 0 00.60011 3.47411 8.40633 8.40633 0 005.06613 4.85759l-.02.1786a7.29372 7.29372 0 01-3.44451-1.63624 8.99754 8.99754 0 01-2.43026-3.03153 10.35156 10.35156 0 01-.94338-3.81738 11.46474 11.46474 0 01.06175-1.96851 11.21658 11.21658 0 01.34187-1.92921 9.68611 9.68611 0 01.60666-1.90466 5.02306 5.02306 0 011.245-1.81366 2.86206 2.86206 0 012.42114-.62665 5.12 5.12 0 012.01868.94759 14.32337 14.32337 0 012.78874 2.8451 30.08878 30.08878 0 012.16769 3.2244l-.73742-.48876c1.91869.19216 3.86322-1.04829 5.45022-2.57a29.52007 29.52007 0 004.24356-5.333c1.24537-1.94348 2.366-3.98147 3.42534-6.05419 1.04162-2.07833 2.0305-4.20591 2.92335-6.34506l.02058-.04947a.54279.54279 0 01.94666-.10059 36.59 36.59 0 013.82287 6.8971 38.92562 38.92562 0 012.17564 7.53756 66.252 66.252 0 01.73555 15.642c-.06526 1.303-.17017 2.599-.26327 3.89293a25.83572 25.83572 0 01-.52947 3.97714 9.85431 9.85431 0 01-.69753 1.97342 8.53253 8.53253 0 01-1.11028 1.82267 7.81281 7.81281 0 01-3.5272 2.36184c-2.69833.91133-5.486.43906-7.9744.14853a1.38823 1.38823 0 00-.72642.054.5706.5706 0 00-.26912.1828.8907.8907 0 00-.23263.2938 4.52343 4.52343 0 00-.50128 1.70442 18.78287 18.78287 0 00.04725 3.83913z"/><path d="M240.57443 103.21323c-9.80481-4.65508-15.55882-27.21564-4.32636-38.755s31.70453 0 31.70453 0-7.97143 21.97981-16.66753 21.064c0 0-6.88441-12.45522-9.60194-3.48014s3.98571 12.45523 5.61623 12.63839zM143.82015 488.50135a3.50664 3.50664 0 01-2.73213-1.04981c-2.66382-2.9361.81777-10.95938.96747-11.299.25731-.56608 6.28389-13.8 8.17861-16.80913 1.86757-2.967 11.35984-23.53372 11.45621-23.74143l.68865.31812c-.39111.84864-9.60923 20.81937-11.503 23.82751-1.86664 2.966-8.06539 16.57709-8.12808 16.71463-.03275.07392-3.43293 7.90632-1.09753 10.47939.8842.97215 2.56 1.062 4.98146.2676 10.44289-3.43107 10.87891-8.6745 10.88172-8.7269l.00655-.11041.06456-.09169c1.06478-1.47273 10.48219-14.41384 13.24146-15.25126a17.95376 17.95376 0 004.86449-3.00908 69.07246 69.07246 0 015.91992-4.09632c3.97936-2.414 3.62194-9.26209 3.33469-14.76377-.08889-1.69916-.17216-3.30475-.1207-4.62965l.75789.02994c-.04959 1.29028.03368 2.87809.1207 4.55947.29847 5.70472.669 12.80357-3.6996 15.45336a67.76348 67.76348 0 00-5.85723 4.05328 18.32216 18.32216 0 01-5.09935 3.12884c-2.11365.64093-9.88618 10.88079-12.78673 14.88635-.10385.86455-1.149 5.92366-11.39072 9.2883A9.97735 9.97735 0 01143.82015 488.50135z"/><path d="M140.46221 485.09679s1.6687 10.17666 12.53883 3.02773a41.49189 41.49189 0 0012.71189-12.96987 31.75575 31.75575 0 018.50591-9.42631c2.11944-1.52331 4.32558-2.646 5.95751-2.33661v4.67071l10.05486-4.72221s2.75394-12.57074-5.00922-19.4475l.23718.25192c.14925 4.89536-.19882 10.00872-3.6523 12.10364-5.43507 3.297-8.1526 6.3192-10.87013 7.14344s-13.04415 15.11112-13.04415 15.11112-.27175 5.49495-11.14187 9.06667c-3.71264 1.21991-5.39643.29245-6.00416-1.45783M296.46649 468.58209a59.43851 59.43851 0 01-9.56057-.92724 39.95773 39.95773 0 01-15.4019-8.39474 25.99341 25.99341 0 00-15.77709-6.20342H255.726c-5.90214-.94595-10.237-3.37492-12.94485-7.22329-4.28345-6.08647-2.96979-13.46321-2.91177-13.77385l.74665.13848c-.014.073-1.31086 7.38516 2.79014 13.204 2.58616 3.67153 6.75078 5.9929 12.37878 6.90049a26.62432 26.62432 0 0116.22621 6.39243 39.1173 39.1173 0 0015.05289 8.2179c4.12626.76911 15.22412 2.05751 16.77545-1.207.60724-1.27811-.02994-3.95316-6.51126-9.44361l-.07672-.06362-.03462-.09451c-.1076-.29286-2.75646-7.169-12.14393-7.169h-.146l-.10854-.09825c-.60818-.552-14.91629-13.60262-16.62293-22.44086l.74478-.14409c1.58408 8.20106 14.94436 20.69211 16.28048 21.92438 9.19848.07017 12.29364 6.67593 12.66884 7.56762 5.52413 4.69233 7.69486 8.0579 6.6357 10.28757C303.57937 468.02163 300.09311 468.58116 296.46649 468.58209z"/><path d="M271.75714 458.97761a39.20055 39.20055 0 0015.21817 8.304 19.778 19.778 0 0110.59837-11.308s-2.71753-7.41819-12.50064-7.41819A18.23589 18.23589 0 00271.75714 458.97761zM244.98946 104.63164c7.32587 0 7.338-11.38526 0-11.38526-7.32587 0-7.338 11.38526 0 11.38526zM264.96329 96.46623q1.17858.51139 2.34863.91332a7.69353 7.69353 0 002.34265.45707 2.20368 2.20368 0 001.90676-.88806 6.21614 6.21614 0 00.87519-2.26816 4.228 4.228 0 01-.3766 2.5878 2.44069 2.44069 0 01-1.01484 1.00771 3.10869 3.10869 0 01-1.38571.31918 6.0745 6.0745 0 01-2.57038-.66923A8.466 8.466 0 01264.96329 96.46623zM258.80408 81.27135a11.76953 11.76953 0 014.653-.79309 10.14577 10.14577 0 012.36757.34888 5.94193 5.94193 0 012.12793 1.07753 16.38747 16.38747 0 00-4.51783-.66818C261.9114 81.18772 260.38464 81.25942 258.80408 81.27135zM275.65227 82.5a6.71076 6.71076 0 00-1.95752-.09368 3.70607 3.70607 0 00-1.76489.56374 2.752 2.752 0 00-.64314.57777 1.41553 1.41553 0 00-.23252.74373 3.40916 3.40916 0 00.53988 1.67588 12.79769 12.79769 0 001.10256 1.59343A5.91672 5.91672 0 01273.638 89.43a3.29752 3.29752 0 01.10783 1.081 2.00254 2.00254 0 01-.415 1.02291 2.92439 2.92439 0 01-1.84547.85694 3.037 3.037 0 001.54535-1.07682 1.86207 1.86207 0 00.05088-1.70676 6.449 6.449 0 00-.95648-1.61051 12.31186 12.31186 0 01-1.19133-1.65588 3.98644 3.98644 0 01-.59531-2.08617 2.10773 2.10773 0 01.41883-1.10654 2.75587 2.75587 0 01.882-.68151A4.72852 4.72852 0 01275.65227 82.5zM267.59027 90.23871c-.12725.61917-.17531 1.07671.0179 1.33378a2.05976 2.05976 0 00.43777.46163 7.95194 7.95194 0 01.654.53988 1.79273 1.79273 0 01-.91847-.00994 1.45061 1.45061 0 01-.82245-.59894 1.14852 1.14852 0 01-.052-1.079A1.26765 1.26765 0 01267.59027 90.23871zM264.37451 86.157a1.13921 1.13921 0 000-2.277 1.13921 1.13921 0 000 2.277z"/><path d="M273.84058 86.34016a1.13921 1.13921 0 000-2.27705 1.13921 1.13921 0 000 2.27705zM239.17756 99.78946a5.08474 5.08474 0 001.55214 2.903c-3.34381 10.99926-6.47687 11.73691-6.47687 11.73691l-28.40815 3.12347c18.60665-30.00813 4.09117-27.68 12.51293-44.99307 8.42188-17.30363 19.32535-9.40865 19.32535-9.40865l4.88625 30.26673a4.75484 4.75484 0 00-.843.38338 5.17353 5.17353 0 00-2.22289 2.59646A6.14177 6.14177 0 00239.17756 99.78946z"/><path d="M242.7705,94.68262c-.67076,3.14265-1.36057,5.78706-2.0408,8.00984a7.432,7.432,0,0,1-.81449-2.99891,6.79838,6.79838,0,0,1,.47906-2.94136,5.30277,5.30277,0,0,1,1.74384-2.32828,5.18025,5.18025,0,0,1,.5366-.35449Z"/><path d="M242.77014 94.6804c1.04139.78058 2.05939 1.46887 3.06979 2.17027 1.022.68209 2.03237 1.36454 3.06487 2.02055.505.346 1.02115.67567 1.54325 1.00046.49953.36292 1.04408.6518 1.5477 1.02033a34.83612 34.83612 0 013.09388 2.214 14.71153 14.71153 0 01-3.73843-.96853 19.47594 19.47594 0 01-3.427-1.76161A17.499 17.499 0 01244.934 97.914 9.68509 9.68509 0 01242.77014 94.6804zM150.55526 459.54527s9.2396-2.74748 20.38148 3.84646l-13.04415 15.11112c-7.60908-7.69293-15.48992-2.198-15.48992-2.198zM556.50154 229.97505c-18.21121.581-36.71856 1.06-55.36439 1.47238q-27.97032.62315-56.32531 1.00536c-9.42479.16386-18.90992.197-28.3733.29006l-14.20811.11462-14.23337.01146c-9.4835.03579-18.99027-.10409-28.471-.19111-9.48841-.15824-18.96091-.31192-28.41307-.54233l-2.466-.06012.05134-2.35458.89847-41.23453c.153-6.87242.19649-13.74484.30011-20.61726.08211-6.87242.07567-13.74485.11789-20.61727q.02947-20.61726-.196-41.23452c-.16011-13.74484-.45344-27.48957-.67367-41.23441l-.03088-1.92863 1.99869-.0393c18.76126-.36912 37.52241-.77554 56.28368-1.03332l56.28356-.49227 28.14172-.21064 14.07092-.10538 14.07092-.02094c9.38057.0069 18.76114-.05122 28.14184.009l28.14172.17263 3.66521.02245-.01637 3.62639c-.06293 13.9625-.30643 27.91365-.47929 41.83908l-.798 41.61218-1.00127 41.18341zm-.50829-.5083l-1.1159-41.91159L553.876 146.26952l-.798-40.85675c-.17286-13.56438-.41636-27.1029-.47929-40.63l3.64861 3.6486-28.14172.17263c-9.3807.06012-18.76127.00211-28.14184.00889L485.8928 68.592l-14.07092-.10527L443.68016 68.276l-56.28356-.49216c-18.76127-.25789-37.52242-.66432-56.28368-1.03344l1.96769-1.96757c-.22011 13.74484-.51344 27.48957-.67367 41.23441q-.236 20.61726-.19591 41.23452c.04211 6.87242.03567 13.74485.11778 20.61727.10362 6.87242.14713 13.74484.30011 20.61726l.89858 41.23453-2.41458-2.41447c9.30911-.23041 18.59776-.38421 27.87061-.54234 9.28034-.087 18.53484-.227 27.81261-.19122l13.90846.01158 13.93361.11462c9.29777.09309 18.5739.12608 27.91038.29005q27.96453.37386 56.24181 1.00537C517.6671 228.40677 536.68216 228.88559 555.99325 229.46675z"/><path d="M347.02989,138.29209c7.08891-.582,14.17782-.88642,21.26673-1.09332,3.54451-.12959,7.08891-.15836,10.63342-.23462l10.63331-.07766,10.63342.0738c3.5444.07848,7.08891.10339,10.63331.23427,7.08891.20608,14.17782.512,21.26673,1.09753-7.08891.58561-14.17782.89157-21.26673,1.09765-3.5444.13087-7.08891.15578-10.63331.23426l-10.63342.0738L378.93,139.62014c-3.54451-.07625-7.08891-.105-10.63342-.23462C361.20771,139.17863,354.1188,138.87419,347.02989,138.29209Z"/><path d="M354.06255 80.475c.58209 5.52133.88653 11.04266 1.09343 16.5641.12959 2.76067.15836 5.52133.23462 8.282l.07766 8.28211-.07392 8.282c-.07836 2.76066-.10339 5.52133-.23415 8.28211-.20608 5.52133-.512 11.04265-1.09764 16.564-.58549-5.52133-.89157-11.04265-1.09753-16.564-.13088-2.76078-.15591-5.52145-.23427-8.28211l-.07392-8.282.07766-8.28211c.07626-2.76067.10515-5.52133.23474-8.282C353.176 91.51764 353.48057 85.99631 354.06255 80.475zM377.01054 138.69735c-2.45283.14888-5.02028.27765-7.63569.37987-2.6085.12386-5.2832.17029-7.942.19369l-.61707.00538-.0062-.62877c-.02129-2.1471-.00316-4.29432.08316-6.44143l.25181-6.44155c.0614-2.14722.09859-4.29433.0559-6.44155-.00795-2.1471-.08035-4.29433-.15275-6.44143l-.01239-.36889.39754-.01625q3.882-.15948 7.764-.236l7.76387-.11252.72736-.01052.00632.7442c.01871 2.18933.03006 4.39-.01146 6.57921-.02234 2.19318-.08573 4.37456-.15544 6.5385C377.41486 130.33945 377.21 134.59483 377.01054 138.69735zm-.09942-.09942c-.19929-4.48613-.40432-8.81953-.51683-13.068-.06971-2.13038-.1331-4.24345-.15555-6.34459-.04152-2.10523-.03018-4.19877-.01135-6.30377l.73332.73332-7.76387-.11251q-3.882-.0786-7.764-.2359l.3849-.38491c-.07228 2.1471-.14467 4.29433-.15263 6.44143-.04269 2.14722-.00549 4.29433.05591 6.44155l.25181 6.44155c.0862 2.14711.10444 4.29433.08315 6.44143l-.62314-.623c2.51727.02328 5.01852.06971 7.58609.19357C371.57938 138.32028 374.188 138.44916 376.91112 138.59793z"/><path d="M392.50694,138.69735c-2.48933.10655-5.0452.23917-7.66142.318-2.60839.09287-5.25853.18164-7.91638.21064l-.57122.0062-.00714-.58467c-.03941-3.19539-.07041-6.39079-.03626-9.5863.03568-3.19539.16877-6.39091.25439-9.5863q.17191-4.79326.13847-9.58642l-.04608-4.79315-.11731-4.79315-.00912-.37415.39427-.011c2.588-.07182,5.176-.15462,7.764-.19205,2.588-.05637,5.176-.07953,7.764-.1062l.67625-.007.00713.6904c.0338,3.23492.073,6.48342.05509,9.72723-.01906,3.24125-.04772,6.48658-.13041,9.69742-.08128,3.20861-.12631,6.4288-.2407,9.58407Zm-.09954-.09942-.31754-9.78618c-.11438-3.23574-.15941-6.40646-.24081-9.58864-.08257-3.18007-.11134-6.32565-.13041-9.47543-.01778-3.14709.02141-6.2895.05521-9.44548l.68326.68326c-2.588-.02678-5.17595-.04982-7.764-.10631-2.588-.03731-5.17595-.12012-7.764-.192l.385-.3849-.11743,4.79315-.046,4.79315q-.03018,4.79327.13848,9.58642c.08561,3.19539.21871,6.39091.25438,9.5863.03415,3.19551.003,6.39091-.03626,9.5863l-.57823-.57812c2.51821.02889,5.04414.11778,7.6117.21053C387.10058,138.35875,389.72077,138.49138,392.4074,138.59793Z"/><path d="M408.035,138.69735c-2.4981.09812-5.05713.21941-7.66949.29871-2.61037.07239-5.25232.18292-7.90831.20608l-.54608.00479-.00853-.55941c-.05579-3.66615-.08948-7.33241-.0703-10.99868.01942-3.66615.14936-7.33241.24222-10.99856.1145-3.66627.18059-7.33253.16421-10.99868l-.04479-5.49934-.12187-5.49934-.00831-.3745.39345-.01064c5.176-.13988,10.3519-.2455,15.528-.28269l.66315-.00479.00468.67262c.025,3.70357.08936,7.42469.06924,11.13926.00386,3.71761-.05064,7.42715-.116,11.11529-.0862,3.67808-.1283,7.37148-.24433,10.99751Zm-.09953-.09942-.3269-11.205c-.116-3.70638-.15813-7.34551-.24432-10.99985-.0655-3.64428-.11988-7.26727-.11614-10.88207-.02-3.618.04421-7.22926.06935-10.8581l.66771.66759c-5.17607-.03731-10.352-.14292-15.528-.28269l.385-.3849-.12187,5.49934-.04491,5.49934c-.01637,3.66615.04982,7.33241.16433,10.99868.09286,3.66615.2228,7.33241.24222,10.99856.01918,3.66627-.01451,7.33253-.0703,10.99868l-.55449-.55438c2.52.02328,5.05408.1338,7.61966.20608Z"/><path d="M423.56312 138.69735c-2.48932.10655-5.04519.23917-7.66142.318-2.6085.09287-5.25852.18164-7.91638.21064l-.57122.0062-.00713-.58467c-.03942-3.19539-.07041-6.39079-.03626-9.5863.03555-3.19539.16877-6.39091.25438-9.5863q.17193-4.79326.13848-9.58642l-.04608-4.79315-.11731-4.79315-.00912-.37415.39426-.011c2.588-.07182 5.176-.15462 7.764-.19205 2.58792-.05637 5.176-.07953 7.764-.1062l.67613-.007.00725.6904c.0338 3.23492.073 6.48342.05509 9.72723-.01907 3.24125-.04772 6.48658-.13041 9.69742-.08129 3.20861-.12632 6.4288-.24082 9.58407zm-.09953-.09942l-.31754-9.78618c-.1145-3.23574-.15941-6.40646-.24082-9.58864-.08257-3.18007-.11134-6.32565-.1304-9.47543-.01778-3.14709.0214-6.2895.0552-9.44548l.68327.68326c-2.588-.02678-5.17607-.04982-7.764-.10631-2.588-.03731-5.17595-.12012-7.764-.192l.38491-.3849-.11731 4.79315-.046 4.79315q-.03018 4.79327.13847 9.58642c.08562 3.19539.21871 6.39091.25439 9.5863.03415 3.19551.003 6.39091-.03626 9.5863l-.57824-.57812c2.51821.02889 5.04414.11778 7.61171.21053C418.15676 138.35875 420.777 138.49138 423.46359 138.59793zM401.5171 207.64132c2.94768-7.95486 6.06308-15.83967 9.22035-23.70693l4.80566-11.77189.30035-.73566a5.04082 5.04082 0 01.468-.85121 4.02539 4.02539 0 011.44524-1.31858 4.51073 4.51073 0 013.78966-.26 4.60391 4.60391 0 011.6167 1.103 6.03754 6.03754 0 01.95554 1.55261l1.3718 2.86756c3.62322 7.66422 7.12013 15.39043 10.80277 23.02542l1.39156 2.85785a7.2593 7.2593 0 00.73906 1.33449 2.91573 2.91573 0 001.12548.903 3.30876 3.30876 0 002.81622.01824 3.00406 3.00406 0 001.12758-.87952 3.79708 3.79708 0 00.39941-.60209l.35731-.70888c1.92512-3.77574 3.74521-7.60516 5.62074-11.40616q5.54274-11.446 11.24043-22.81279l2.85037-5.68273 1.42513-2.84125.71251-1.42068c.13426-.253.2028-.43742.3911-.74654a4.41669 4.41669 0 01.58526-.82 4.57553 4.57553 0 017.09756.42993 5.95213 5.95213 0 01.48619.849l.33345.72139.66677 1.44267 1.32876 2.88757c7.01206 15.43476 13.91092 30.92168 20.46217 46.569l-.17251.07953c-7.64621-15.14236-14.94471-30.44508-22.13011-45.79984l-1.33331-2.88546-.6642-1.444-.33205-.72186a3.78334 3.78334 0 00-.29964-.52876 2.61023 2.61023 0 00-3.98053-.264 2.45161 2.45161 0 00-.34152.466c-.09929.13673-.23824.44269-.35543.65567l-.73414 1.40969-1.46805 2.81937-2.93622 5.63876q-5.86062 11.28353-11.90557 22.47279c-1.98208 3.74662-4.01971 7.46493-5.9522 11.23681l-.36713.7056a4.43385 4.43385 0 01-.48525.71391 3.63962 3.63962 0 01-1.36735 1.03811 3.91575 3.91575 0 01-3.33212-.062 4.63175 4.63175 0 01-2.13506-2.50547l-1.41741-2.84522c-3.808-7.57312-7.80153-15.05477-11.66885-22.59876l-1.43717-2.83528a4.75256 4.75256 0 00-.70841-1.14022 2.923 2.923 0 00-.98981-.66818 2.81388 2.81388 0 00-2.34921.17322 2.53427 2.53427 0 00-.88467.79472 3.36047 3.36047 0 00-.30759.53181l-.3124.73063-4.9997 11.69072c-3.37948 7.7744-6.801 15.53125-10.39015 23.21805z"/><path d="M381.3658,207.64132c2.94768-7.95486,6.063-15.83967,9.22034-23.70693l4.80567-11.77189.30034-.73566a5.04223,5.04223,0,0,1,.46795-.85121,4.02542,4.02542,0,0,1,1.44525-1.31858,4.51046,4.51046,0,0,1,3.78953-.26,4.60328,4.60328,0,0,1,1.61682,1.103,6.04094,6.04094,0,0,1,.95555,1.55261l1.37179,2.86756c3.62323,7.66422,7.12014,15.39043,10.80266,23.02542l1.39156,2.85785a7.26658,7.26658,0,0,0,.73917,1.33449,2.91581,2.91581,0,0,0,1.12548.903,3.30876,3.30876,0,0,0,2.81622.01824,3.004,3.004,0,0,0,1.12759-.87952,3.78888,3.78888,0,0,0,.39929-.60209l.35731-.70888c1.92512-3.77574,3.74521-7.60516,5.62086-11.40616q5.54273-11.446,11.24043-22.81279l2.85025-5.68273,1.42525-2.84125.7125-1.42068c.13427-.253.2028-.43742.39111-.74654a4.4171,4.4171,0,0,1,.58525-.82,4.57554,4.57554,0,0,1,7.09757.42993,5.95309,5.95309,0,0,1,.48619.849l.33333.72139.66689,1.44267,1.32875,2.88757c7.012,15.43476,13.91092,30.92168,20.46218,46.569l-.17251.07953c-7.64621-15.14236-14.94471-30.44508-22.13011-45.79984l-1.33332-2.88546-.6642-1.444-.33216-.72186a3.77258,3.77258,0,0,0-.29952-.52876,2.61024,2.61024,0,0,0-3.98054-.264,2.44684,2.44684,0,0,0-.34151.466c-.0993.13673-.23836.44269-.35555.65567l-.734,1.40969-1.46805,2.81937-2.93621,5.63876q-5.86064,11.28353-11.90557,22.47279c-1.98208,3.74662-4.01971,7.46493-5.9522,11.23681l-.36713.7056a4.43391,4.43391,0,0,1-.48526.71391,3.63947,3.63947,0,0,1-1.36735,1.03811,3.91575,3.91575,0,0,1-3.33212-.062,4.63249,4.63249,0,0,1-2.13517-2.50547l-1.41729-2.84522c-3.808-7.57312-7.80153-15.05477-11.66885-22.59876l-1.43729-2.83528a4.74913,4.74913,0,0,0-.70829-1.14022,2.92308,2.92308,0,0,0-.98982-.66818,2.81386,2.81386,0,0,0-2.3492.17322,2.53418,2.53418,0,0,0-.88467.79472,3.36128,3.36128,0,0,0-.3076.53181l-.31251.73063-4.99958,11.69072c-3.37949,7.7744-6.801,15.53125-10.39015,23.21805Z"/><path d="M444.18938 201.3208a3.58239 3.58239 0 01-6.40366-.0475L431.051 187.59987l-7.013 13.72093a3.58239 3.58239 0 01-6.40367-.0475L410.41066 186.607l-8.80582 21.071h75.60782l-17.20352-37.30876zM492.17751 118.14687l3.98579 28.1016c-.05743.00959-.12456.00959-.1821.01918-.40234.03825-.81426.067-1.21683.08608-.03824 0-.07649.00959-.12444.00959a28.8626 28.8626 0 01-28.1878-17.96466.749.749 0 00-.04784-.134c-.14386-.3642-.28748-.73776-.42163-1.11144-.05743-.17252-.10538-.34491-.16292-.50783-.09579-.26819-.182-.5269-.25871-.80479-.134-.45028-.26819-.90057-.37356-1.36056-.13415-.51731-.23953-1.03473-.345-1.55215-.01918-.115-.02865-.22993-.05743-.3449-.067-.412-.13415-.83356-.19169-1.24548-.01906-.1055-.02865-.21088-.03824-.31626-.04784-.4311-.09579-.86221-.12456-1.303a1.86472 1.86472 0 01-.01918-.23953c-.02878-.46947-.05755-.93893-.05755-1.4084a.58888.58888 0 01-.00959-.12456 28.89742 28.89742 0 011.44677-9.40876c.01918-.05743.04795-.11485.06713-.182.14374-.41192.28748-.824.45029-1.236.03836-.10538.08631-.21076.12467-.31614.14363-.37368.30643-.73777.46947-1.09227.05743-.12455.10526-.24911.1628-.36408q.2586-.56052.5462-1.09227c.04783-.10538.09567-.20117.14362-.29707.24912-.45029.49824-.90057.76654-1.34127.03836-.06713.0862-.13415.12456-.20117.22994-.3642.45988-.72817.6994-1.08279.09579-.134.1917-.25871.27778-.39274.048-.05755.08631-.12456.13427-.182zM493.01118 116.06783l-21.9314-17.00655a28.7904 28.7904 0 0139.39783-4.56064zM500.09155 145.55854c-.6035.14374-1.20723.27789-1.81073.37368l-3.97632-28.05365L512.14472 95.8515c.28737.24912.57485.50783.85262.77613.05754.048.11509.10538.16292.15321.53649.51742 1.05391 1.04443 1.55214 1.60969a28.59435 28.59435 0 012.79774 3.69831c0 .00959.00948.00959.00948.01918a28.29794 28.29794 0 012.14628 4.0624.45694.45694 0 00.02866.06714c.27789.65145.5366 1.32208.76654 2.012.03836.115.07672.22994.115.3545.22046.67064.43122 1.35086.60362 2.05027A28.83373 28.83373 0 01500.09155 145.55854z"/><path fill="#fff" d="M469.73851 100.738l.527-.67075c-.17263.22994-.345.4504-.50783.68993zM471.051 99.0421l.02877.01918c-.22994.26818-.45987.54607-.68022.82385zM496.307 146.22929l.51742-.05754-.66116.0959v-.01918A.738.738 0 01496.307 146.22929zM497.34176 146.09514h.05743l-.57473.07661C496.99686 146.15257 497.16925 146.1238 497.34176 146.09514zM498.28082 145.93222l.00959.03836-.89122.12456v-.00959C497.69626 146.0376 497.99333 145.98976 498.28082 145.93222zM510.49679 94.48146l.83344.67063-.00959.00959c-.27778-.22035-.55567-.44069-.843-.661zM512.1639 95.83232l-.01918.01918c-.25871-.22994-.51742-.45029-.78572-.67064z"/><rect width="26.089" height=".982" x="432.121" y="86.445"/><polygon points="470.013 106.508 457.974 91.477 432.121 91.477 432.121 90.494 458.446 90.494 470.778 105.894 470.013 106.508"/><rect width="26.089" height=".982" x="432.121" y="94.543"/><rect width="26.09" height=".982" x="516.57" y="160.017"/><polygon points="542.66 156.95 516.334 156.95 504.002 141.55 504.768 140.936 516.806 155.968 542.66 155.968 542.66 156.95"/><rect width="26.09" height=".982" x="516.57" y="151.919"/></svg>